<svg width="59" height="58" viewBox="0 0 59 58" fill="none" xmlns="http://www.w3.org/2000/svg">
<path d="M27.1109 53.5757H16.4845V57.1576H27.1109V53.5757Z" fill="#003459"/>
<path d="M27.1109 0.354004H16.4845V3.93593H27.1109V0.354004Z" fill="#003459"/>
<path d="M42.7516 53.5757H32.1252V57.1576H42.7516V53.5757Z" fill="#003459"/>
<path d="M42.7519 0.354004H32.1255V3.93593H42.7519V0.354004Z" fill="#003459"/>
<path d="M54.8876 31.671L54.8876 42.2974L58.4695 42.2974L58.4695 31.671L54.8876 31.671Z" fill="#003459"/>
<path d="M0.813293 31.671L0.813293 42.2974L4.39522 42.2974L4.39522 31.671L0.813293 31.671Z" fill="#003459"/>
<path d="M54.9046 16.0133L54.9046 26.6396L58.4865 26.6396L58.4865 16.0133L54.9046 16.0133Z" fill="#003459"/>
<path d="M0.830383 16.0133L0.830383 26.6396L4.41231 26.6396L4.41231 16.0133L0.830383 16.0133Z" fill="#003459"/>
<path fill-rule="evenodd" clip-rule="evenodd" d="M54.9095 53.5754V46.5142H58.4914V57.1406H58.4225V57.1573H47.7961V53.5754H54.9095Z" fill="#003459"/>
<path fill-rule="evenodd" clip-rule="evenodd" d="M54.9095 3.93532V10.9966H58.4914V0.370191H58.4225V0.353395H47.7961V3.93532H54.9095Z" fill="#003459"/>
<path fill-rule="evenodd" clip-rule="evenodd" d="M4.39518 53.5754V46.5142H0.813252L0.813253 57.1406H0.882154V57.1573H11.5085V53.5754H4.39518Z" fill="#003459"/>
<path fill-rule="evenodd" clip-rule="evenodd" d="M4.39518 3.93532V10.9966H0.813252L0.813253 0.370191H0.882154V0.353395H11.5085V3.93532H4.39518Z" fill="#003459"/>
<path d="M37.4963 26.4404H22.0594V31.6439H37.4963V26.4404Z" fill="#56CCF2"/>
<path d="M27.301 21.1994L27.301 36.6362L32.5044 36.6362L32.5044 21.1994L27.301 21.1994Z" fill="#56CCF2"/>
</svg>
