<svg width="68" height="68" viewBox="0 0 68 68" fill="none" xmlns="http://www.w3.org/2000/svg">
<path d="M34.0427 0.403335C52.5794 0.673405 67.3105 15.7973 67.0404 34.2849C66.7703 52.8706 51.5728 67.4544 33.2325 67.2335C14.5486 66.9879 -0.0597745 51.7167 0.234848 33.3274C0.52947 14.7416 15.7271 0.20692 34.0427 0.403335ZM33.6499 3.42321C16.8564 3.42321 3.25472 17.0249 3.23017 33.8184C3.23017 50.6364 16.8319 64.2627 33.699 64.2136C50.4679 64.1645 63.9714 50.6855 64.0205 33.892C64.0942 17.0495 50.4434 3.42321 33.6499 3.42321Z" fill="#003459"/>
<path d="M26.9963 40.6193C24.7621 41.2331 22.5278 41.8223 20.1954 42.4361C19.5571 40.8402 18.8942 39.2689 18.3295 37.6731C17.9366 36.5928 17.6175 35.4634 17.372 34.334C16.6845 31.2405 16.439 28.1469 17.1264 25.0043C17.3965 23.8504 17.7402 22.721 18.3786 21.6898C18.7223 21.1497 19.1397 20.6095 19.6307 20.2167C21.1038 19.0137 22.6752 19.161 24.0992 20.4868C24.9094 21.2479 25.5232 22.1808 26.0388 23.1384C27.1436 25.1271 27.8801 27.2385 27.9047 29.5464C27.9292 31.0441 27.6346 32.4926 27.34 33.9412C26.9717 35.6353 26.6771 37.3293 26.8244 39.0725C26.8735 39.6127 26.9472 40.1037 26.9963 40.6193Z" fill="#56CCF2"/>
<path d="M47.0062 42.4358C44.772 41.822 42.5378 41.2327 40.279 40.6435C40.3526 40.0788 40.4263 39.5141 40.4509 38.974C40.5736 37.1817 40.2053 35.4385 39.8616 33.6953C39.567 32.2222 39.2969 30.7491 39.3706 29.2514C39.4688 27.1645 40.1317 25.2495 41.0892 23.4326C41.7275 22.2541 42.415 21.1248 43.4953 20.2654C44.5019 19.4552 45.6067 19.1606 46.8343 19.7499C47.5218 20.069 48.111 20.5601 48.553 21.1984C49.5105 22.5733 50.0015 24.1446 50.2716 25.7896C50.8608 29.2514 50.4189 32.6396 49.4859 35.9786C48.8967 38.1637 48.0128 40.2998 47.0062 42.4358Z" fill="#56CCF2"/>
<path d="M39.6896 42.6572C41.9729 43.271 44.2317 43.8603 46.515 44.4741C46.4414 45.0388 46.3677 45.6034 46.2695 46.1436C46.0976 47.0766 45.9258 48.0341 45.7048 48.9671C45.6066 49.3599 45.4347 49.7527 45.2383 50.121C44.7227 51.0785 43.888 51.5695 42.8077 51.5695C41.4082 51.5695 40.2052 51.0785 39.1495 50.1946C38.2165 49.409 38.0201 48.3533 38.1674 47.1993C38.3392 45.8981 38.8548 44.6705 39.3704 43.4674C39.4441 43.2219 39.5668 42.9518 39.6896 42.6572Z" fill="#56CCF2"/>
<path d="M27.6104 42.6816C28.2242 44.1548 28.9116 45.6033 29.1572 47.1992C29.3781 48.6968 28.8871 49.8508 27.5858 50.661C26.6038 51.2748 25.5726 51.6431 24.3941 51.594C23.3384 51.5449 22.5773 51.0293 22.0617 50.1208C21.5706 49.237 21.3742 48.2549 21.2024 47.2728C21.055 46.3644 20.9323 45.4314 20.785 44.4739C23.0683 43.8847 25.3271 43.2709 27.6104 42.6816Z" fill="#56CCF2"/>
</svg>
