<svg width="639" height="187" viewBox="0 0 639 187" fill="none" xmlns="http://www.w3.org/2000/svg">
<rect width="639" height="187" rx="7" fill="#003459"/>
<path d="M197.497 73.56H199.297V78.204C199.297 80.004 198.505 80.652 197.245 80.652C195.985 80.652 195.193 80.004 195.193 78.204V64.596C195.193 62.796 195.985 62.112 197.245 62.112C198.505 62.112 199.297 62.796 199.297 64.596V67.296H203.041V64.848C203.041 60.816 201.025 58.512 197.137 58.512C193.249 58.512 191.233 60.816 191.233 64.848V77.952C191.233 81.984 193.249 84.288 197.137 84.288C201.025 84.288 203.041 81.984 203.041 77.952V69.96H197.497V73.56ZM209.545 62.4H216.385V58.8H205.585V84H216.385V80.4H209.545V73.02H214.981V69.42H209.545V62.4ZM217.686 62.4H221.826V84H225.786V62.4H229.926V58.8H217.686V62.4ZM243.236 58.8H237.26V84H243.488C247.448 84 249.5 81.912 249.5 78.024V75.972C249.5 73.308 248.672 71.4 246.548 70.572C248.312 69.744 249.104 68.088 249.104 65.496V64.596C249.104 60.708 247.34 58.8 243.236 58.8ZM242.984 72.66C244.784 72.66 245.54 73.38 245.54 75.72V77.916C245.54 79.788 244.82 80.4 243.488 80.4H241.22V72.66H242.984ZM243.128 62.4C244.532 62.4 245.144 63.192 245.144 64.992V66.396C245.144 68.412 244.244 69.06 242.768 69.06H241.22V62.4H243.128ZM251.885 84H255.845V58.8H251.885V84ZM258.741 84H269.217V80.4H262.701V58.8H258.741V84ZM270.94 84H274.9V58.8H270.94V84ZM286.255 84H290.323V58.8H286.795V73.884L282.727 58.8H277.759V84H281.323V65.748L286.255 84ZM299.099 73.56H300.899V78.204C300.899 80.004 300.107 80.652 298.847 80.652C297.587 80.652 296.795 80.004 296.795 78.204V64.596C296.795 62.796 297.587 62.112 298.847 62.112C300.107 62.112 300.899 62.796 300.899 64.596V67.296H304.643V64.848C304.643 60.816 302.627 58.512 298.739 58.512C294.851 58.512 292.835 60.816 292.835 64.848V77.952C292.835 81.984 294.851 84.288 298.739 84.288C302.627 84.288 304.643 81.984 304.643 77.952V69.96H299.099V73.56ZM307.006 58.8V77.988C307.006 82.02 309.022 84.324 312.91 84.324C316.798 84.324 318.814 82.02 318.814 77.988V58.8H315.07V78.24C315.07 80.04 314.278 80.688 313.018 80.688C311.758 80.688 310.966 80.04 310.966 78.24V58.8H307.006ZM330.314 58.8H324.518L320.486 84H324.122L324.806 79.428H329.666L330.35 84H334.346L330.314 58.8ZM327.218 63.264L329.126 76.008H325.31L327.218 63.264ZM336.19 84H346.666V80.4H340.15V58.8H336.19V84ZM359.811 58.8H353.979V84H357.939V74.532H359.811C363.771 74.532 365.715 72.336 365.715 68.304V65.028C365.715 60.996 363.771 58.8 359.811 58.8ZM359.811 62.4C361.071 62.4 361.755 62.976 361.755 64.776V68.556C361.755 70.356 361.071 70.932 359.811 70.932H357.939V62.4H359.811ZM371.185 64.596C371.185 62.796 371.977 62.112 373.237 62.112C374.497 62.112 375.289 62.796 375.289 64.596V78.204C375.289 80.004 374.497 80.688 373.237 80.688C371.977 80.688 371.185 80.004 371.185 78.204V64.596ZM367.225 77.952C367.225 81.984 369.349 84.288 373.237 84.288C377.125 84.288 379.249 81.984 379.249 77.952V64.848C379.249 60.816 377.125 58.512 373.237 58.512C369.349 58.512 367.225 60.816 367.225 64.848V77.952ZM381.319 64.848C381.319 72.048 389.059 73.02 389.059 78.204C389.059 80.004 388.267 80.652 387.007 80.652C385.747 80.652 384.955 80.004 384.955 78.204V76.404H381.211V77.952C381.211 81.984 383.227 84.288 387.115 84.288C391.003 84.288 393.019 81.984 393.019 77.952C393.019 70.752 385.279 69.78 385.279 64.596C385.279 62.796 385.999 62.112 387.259 62.112C388.519 62.112 389.239 62.796 389.239 64.596V65.64H392.983V64.848C392.983 60.816 391.003 58.512 387.151 58.512C383.299 58.512 381.319 60.816 381.319 64.848ZM394.136 62.4H398.276V84H402.236V62.4H406.376V58.8H394.136V62.4ZM412.08 62.4H418.92V58.8H408.12V84H418.92V80.4H412.08V73.02H417.516V69.42H412.08V62.4ZM433.686 84C433.29 83.064 433.254 82.164 433.254 80.94V77.052C433.254 74.424 432.606 72.516 430.626 71.688C432.39 70.86 433.218 69.168 433.218 66.576V64.596C433.218 60.708 431.454 58.8 427.35 58.8H421.374V84H425.334V73.74H426.702C428.502 73.74 429.294 74.604 429.294 76.944V80.904C429.294 82.956 429.438 83.352 429.654 84H433.686ZM427.242 62.4C428.646 62.4 429.258 63.192 429.258 64.992V67.476C429.258 69.492 428.358 70.14 426.882 70.14H425.334V62.4H427.242ZM435.354 64.848C435.354 72.048 443.094 73.02 443.094 78.204C443.094 80.004 442.302 80.652 441.042 80.652C439.782 80.652 438.99 80.004 438.99 78.204V76.404H435.246V77.952C435.246 81.984 437.262 84.288 441.15 84.288C445.038 84.288 447.054 81.984 447.054 77.952C447.054 70.752 439.314 69.78 439.314 64.596C439.314 62.796 440.034 62.112 441.294 62.112C442.554 62.112 443.274 62.796 443.274 64.596V65.64H447.018V64.848C447.018 60.816 445.038 58.512 441.186 58.512C437.334 58.512 435.354 60.816 435.354 64.848Z" fill="white"/>
<path d="M253.932 122.66V134H256.74V108.8H253.932V120.14H247.74V108.8H244.932V134H247.74V122.66H253.932ZM259.628 108.8V134H262.436V108.8H259.628ZM267.807 113.624L274.251 134H277.167V108.8H274.683V127.016L268.851 108.8H265.287V134H267.807V113.624ZM280.053 108.8V134H285.957C289.881 134 291.681 131.624 291.681 127.772V115.064C291.681 111.176 289.881 108.8 285.957 108.8H280.053ZM282.861 131.444V111.356H285.885C287.937 111.356 288.909 112.616 288.909 114.92V127.88C288.909 130.184 287.937 131.444 285.921 131.444H282.861ZM294.327 108.8V134H297.135V108.8H294.327ZM299.914 122.66H306.79V120.14H299.914V122.66ZM312.357 119.96V111.356H319.917V108.8H309.549V134H319.917V131.444H312.357V122.48H318.513V119.96H312.357ZM325.006 113.624L331.45 134H334.366V108.8H331.882V127.016L326.05 108.8H322.486V134H325.006V113.624ZM342.689 108.548C338.837 108.548 337.037 111.068 337.037 114.884V127.916C337.037 131.732 338.837 134.252 342.689 134.252C346.577 134.252 348.377 131.732 348.377 127.916V120.5H343.121V123.02H345.713V128.06C345.713 130.328 344.812 131.696 342.761 131.696C340.745 131.696 339.809 130.328 339.809 128.06V114.74C339.809 112.472 340.745 111.104 342.761 111.104C344.812 111.104 345.713 112.472 345.713 114.74V117.044H348.377V114.884C348.377 111.068 346.577 108.548 342.689 108.548ZM361.042 134V131.444H353.842V108.8H351.034V134H361.042ZM363.163 108.8V134H365.971V108.8H363.163ZM374.15 108.548C370.37 108.548 368.57 110.96 368.57 114.848C368.57 121.94 376.994 122.48 376.994 128.096C376.994 130.364 376.058 131.696 374.042 131.696C372.026 131.696 371.09 130.364 371.09 128.096V126.512H368.462V127.952C368.462 131.768 370.262 134.252 374.114 134.252C377.966 134.252 379.802 131.768 379.802 127.952C379.802 120.86 371.342 120.32 371.342 114.668C371.342 112.436 372.206 111.104 374.222 111.104C376.238 111.104 377.102 112.436 377.102 114.704V115.532H379.766V114.848C379.766 111.032 377.966 108.548 374.15 108.548ZM391.253 122.66V134H394.061V108.8H391.253V120.14H385.061V108.8H382.253V134H385.061V122.66H391.253Z" fill="white"/>
</svg>
