<svg width="85" height="76" viewBox="0 0 85 76" fill="none" xmlns="http://www.w3.org/2000/svg">
<g clip-path="url(#clip0)">
<path d="M18.3221 20.9952V75.6404H51.0144C51.0144 75.6404 65.7439 75.9999 67.0372 60.9006C68.3305 45.8013 67.0372 7.83721 67.0372 7.83721H50.7988C50.7988 7.83721 45.1944 8.98764 41.6019 6.25538C38.0093 3.52311 36.9315 7.98101 32.7642 8.05292C28.5968 8.12482 18.2502 8.05292 18.2502 8.05292V20.9952H18.3221Z" fill="#C9E5EE" stroke="#003459" stroke-width="2" stroke-miterlimit="10"/>
<path d="M66.9653 60.4688C66.1031 61.1159 63.8039 62.6258 62.0795 63.201C59.7802 63.9919 57.7684 63.9919 56.5469 63.8481C56.7625 64.9267 56.978 67.2275 55.9721 69.816C54.6788 73.3391 52.0921 75.1367 51.2299 75.7119" stroke="#003459" stroke-width="2" stroke-miterlimit="10"/>
<path d="M52.8107 7.98087C53.601 6.90235 54.4632 6.11143 55.038 5.68002C55.4691 5.32051 55.9721 5.0329 56.978 4.38579C58.3432 3.59487 58.7025 3.45107 59.0617 3.37917C59.8521 3.23536 60.4987 3.30726 61.0017 3.45107C62.798 3.73867 64.235 3.81058 66.175 3.95438C68.2587 4.02628 68.1868 3.81058 69.9831 4.02628C71.2046 4.17008 71.7075 4.24199 72.929 4.24199C74.0786 4.24199 74.2942 4.17008 75.0127 4.09818C75.6593 4.02628 76.5934 4.17008 77.8867 5.17671C80.1141 8.62798 82.3415 12.0074 84.5689 15.4586C84.5689 22.5769 84.5689 29.6952 84.5689 36.8134C82.4852 35.7349 80.8326 34.7283 79.7549 34.0093C78.1023 32.9307 77.8867 32.5712 76.5216 31.7803C74.366 30.4861 73.9349 30.7737 72.0668 29.6233C70.1987 28.4728 68.8335 27.2505 68.2587 26.6753C66.4624 24.8777 66.5342 24.0868 64.8098 22.7926C63.5165 21.8579 63.3009 22.0736 62.295 21.1389C60.858 19.8446 61.0735 19.1256 59.7802 17.7595C58.4869 16.3934 57.0499 15.7462 56.1158 15.2429C54.3914 14.452 53.601 14.5239 51.8766 13.4454C50.3677 12.5107 50.224 11.9355 50.1522 11.6479C50.0085 10.4974 51.4455 9.56271 51.5892 9.4908C53.1699 8.48418 55.038 8.98749 56.044 9.2032C57.5528 9.56271 58.5588 10.2817 59.9239 11.0726C61.2172 11.8636 61.7202 12.4388 63.3728 13.4454C63.9476 13.8049 64.4506 14.5239 65.0972 14.3801C65.6002 14.2363 65.9594 13.5892 66.0313 13.4454C66.2468 13.014 66.2468 12.5826 66.2468 12.3669C66.0313 12.4388 65.6002 12.5107 65.1691 12.3669C64.5224 12.1512 64.0194 11.576 63.9476 10.785C63.3728 10.6412 62.7261 10.4974 62.0076 10.2098C60.6424 9.63461 59.5647 8.91559 58.8462 8.34038C58.415 8.48418 57.9121 8.55608 57.3373 8.62798C55.4692 8.55608 53.8884 8.34038 52.8107 7.98087Z" fill="white" stroke="#003459" stroke-width="2" stroke-miterlimit="10"/>
<path d="M0.359253 6.90224C2.51479 5.89562 4.16737 4.9609 5.38884 4.24188C7.32882 3.09146 8.19104 2.37244 10.2029 1.50962C11.7117 0.862509 12.574 0.503001 13.8673 0.359198C15.0888 0.287296 15.448 0.503001 17.8191 0.574903C19.3998 0.646804 19.4717 0.503001 20.6213 0.574903C21.9865 0.646804 23.7828 0.718706 25.7227 1.43772C27.519 2.15674 28.6686 3.23526 30.2494 4.7452C31.5427 5.96752 32.4768 7.18985 33.1234 8.05267C31.0397 8.12457 28.956 8.26837 26.8724 8.34028C26.6568 8.34028 26.2257 8.26837 25.8664 8.05267C25.579 7.90887 25.2916 7.69316 25.1479 7.54936C24.7168 7.62126 24.2857 7.69316 23.7828 7.69316C22.7768 7.76506 21.9146 7.69316 21.1961 7.62126C20.9806 7.98077 20.765 8.41218 20.4057 8.84359C19.4717 9.92211 18.3221 10.4973 17.6754 10.713C18.0347 10.8568 18.5376 11.0006 19.1843 11.1444C20.4776 11.2882 21.1961 10.9287 23.4235 10.3535C25.0761 9.92211 25.8664 9.70641 26.7287 9.63451C26.9442 9.63451 27.8783 9.70641 29.8901 9.77831C30.9679 9.85021 31.5427 9.85021 31.9738 10.2097C32.5486 10.6411 33.0516 11.3601 33.0516 12.0792C33.0516 13.5172 31.1834 14.4519 29.962 15.0271C27.3035 16.3933 26.4412 15.818 22.5613 16.9685C20.4776 17.6156 18.8969 18.1189 17.1006 19.4131C16.0947 20.1321 15.8073 20.5635 14.2984 21.6421C13.4362 22.2892 12.2866 23.0801 10.8495 23.7991C9.62806 24.3743 8.8377 24.59 4.16737 25.8124C3.377 26.0281 2.22738 26.3157 0.718509 26.6752C0.574807 20.1321 0.502955 13.5172 0.359253 6.90224Z" fill="white" stroke="#003459" stroke-width="2" stroke-miterlimit="10"/>
</g>
<defs>
<clipPath id="clip0">
<rect width="85" height="76" fill="white"/>
</clipPath>
</defs>
</svg>
