<svg width="59" height="69" viewBox="0 0 59 69" fill="none" xmlns="http://www.w3.org/2000/svg">
<path d="M57.9133 68.4275C39.1914 68.4275 20.4695 68.4275 1.74762 68.4275C1.09147 68.0338 0.916504 67.4433 0.916504 66.6997C0.916504 45.3969 0.916504 24.0942 0.916504 2.7915C0.916504 1.91664 1.20083 1.28237 2.05382 0.998047C20.5789 0.998047 39.1039 0.998047 57.6508 0.998047C58.5476 1.30425 58.7882 1.96039 58.7882 2.85711C58.7663 24.1161 58.7663 45.3751 58.7882 66.634C58.7663 67.3995 58.5913 68.0338 57.9133 68.4275ZM56.2292 65.9342C56.2292 45.0907 56.2292 24.3129 56.2292 3.557C38.579 3.557 20.9944 3.557 3.38797 3.557C3.38797 24.3785 3.38797 45.1345 3.38797 65.9342C21.0163 65.9342 38.6228 65.9342 56.2292 65.9342Z" fill="#003459"/>
<path d="M56.2291 65.9343C38.6008 65.9343 21.0162 65.9343 3.38785 65.9343C3.38785 45.1346 3.38785 24.3787 3.38785 3.55713C20.9943 3.55713 38.5789 3.55713 56.2291 3.55713C56.2291 24.3131 56.2291 45.0909 56.2291 65.9343ZM12.1801 31.9024C12.2676 37.1516 13.8424 41.154 16.9481 44.566C22.2847 50.4056 31.4269 51.8929 38.3164 47.9998C46.4526 43.3849 49.6458 33.8052 45.8402 25.2317C45.5996 24.7067 45.6433 24.3131 45.9495 23.8319C49.0115 19.1295 47.2399 12.7868 42.1877 10.3154C37.6384 8.10637 32.1924 9.83421 29.7866 14.2741C29.546 14.7115 29.3054 14.9302 28.8024 14.9521C28.1681 14.974 27.5338 15.0615 26.9214 15.1708C18.501 16.5269 12.1583 24.0287 12.1801 31.9024ZM29.8303 55.6766C27.7088 55.6766 25.5873 55.6766 23.4658 55.6766C22.5034 55.6766 21.9566 56.114 21.9348 56.8577C21.9129 57.6232 22.4816 58.0825 23.4876 58.1043C23.5533 58.1043 23.6407 58.1043 23.7064 58.1043C27.7744 58.1043 31.8425 58.1043 35.9106 58.1043C36.1512 58.1043 36.3917 58.1043 36.6323 58.0825C37.2666 57.995 37.704 57.4919 37.704 56.8795C37.704 56.289 37.2447 55.786 36.6105 55.6985C36.3699 55.6766 36.1293 55.6766 35.8887 55.6766C33.8765 55.6547 31.8644 55.6766 29.8303 55.6766ZM29.8085 62.6098C30.6833 62.6098 31.5582 62.6317 32.433 62.6098C33.2204 62.588 33.7234 62.1068 33.7453 61.4288C33.7672 60.7508 33.2641 60.2259 32.4768 60.204C30.7271 60.1602 28.9774 60.1602 27.2276 60.204C26.3965 60.2259 25.8716 60.7726 25.9154 61.4725C25.9591 62.1505 26.4621 62.6098 27.2495 62.6317C28.1025 62.6317 28.9555 62.6098 29.8085 62.6098Z" fill="white"/>
<path d="M12.1802 31.902C12.1583 24.0064 18.501 16.5045 26.8996 15.1704C27.5339 15.061 28.1463 14.9735 28.7806 14.9516C29.2836 14.9298 29.5461 14.7111 29.7648 14.2736C32.1706 9.83374 37.6166 8.08403 42.1658 10.3149C47.2181 12.7864 48.9897 19.1072 45.9277 23.8314C45.6215 24.3126 45.5778 24.6844 45.8184 25.2312C49.624 33.8048 46.4526 43.3844 38.2946 47.9993C31.4051 51.8924 22.2629 50.4051 16.9263 44.5655C13.8424 41.1535 12.2677 37.173 12.1802 31.902ZM28.6712 17.445C22.2192 17.7074 16.4889 22.7379 14.9579 29.4305C13.4925 35.7951 16.7732 42.7939 22.6566 45.9215C28.715 49.1366 36.2606 47.8681 40.8536 42.9907C45.6215 37.8947 45.9059 30.7865 43.6312 26.4122C40.263 28.5775 36.7418 28.9493 33.2423 26.8715C29.721 24.75 28.3213 21.4912 28.6712 17.445ZM44.0687 22.1692C46.059 19.0635 44.7467 14.558 41.3566 12.6989C37.4854 10.5774 33.4173 12.677 32.2362 15.0829C34.6202 15.4109 36.8292 16.1983 38.8633 17.4231C40.9192 18.6479 42.647 20.2445 44.0687 22.1692ZM31.252 17.4231C30.6615 20.7038 32.105 23.5471 35.0577 25.0781C37.3542 26.2591 40.7661 25.8217 42.4283 24.072C39.6944 20.2226 36.02 17.9699 31.252 17.4231Z" fill="#003459"/>
<path d="M29.8306 55.6767C31.8427 55.6767 33.8768 55.6767 35.8889 55.6767C36.1295 55.6767 36.3701 55.6767 36.6107 55.6986C37.245 55.7861 37.6824 56.2672 37.7043 56.8796C37.7043 57.4702 37.2668 57.9951 36.6326 58.0826C36.392 58.1263 36.1514 58.1044 35.9108 58.1044C31.8427 58.1044 27.7747 58.1044 23.7066 58.1044C23.641 58.1044 23.5535 58.1044 23.4879 58.1044C22.4818 58.0826 21.9131 57.6451 21.935 56.8578C21.9569 56.1141 22.5037 55.6767 23.466 55.6767C25.6094 55.6548 27.7091 55.6767 29.8306 55.6767Z" fill="#003459"/>
<path d="M29.8087 62.6097C28.9557 62.6097 28.1027 62.6315 27.2498 62.6097C26.4624 62.5878 25.9375 62.1285 25.9156 61.4505C25.8719 60.7506 26.3968 60.2038 27.2279 60.1819C28.9776 60.1601 30.7273 60.1601 32.477 60.1819C33.2644 60.2038 33.7674 60.7287 33.7456 61.4067C33.7237 62.0847 33.2206 62.5659 32.4333 62.5878C31.5584 62.6315 30.6836 62.6097 29.8087 62.6097Z" fill="#003459"/>
<path d="M28.6713 17.4453C28.3214 21.4696 29.6992 24.7504 33.2424 26.85C36.7418 28.9497 40.2631 28.556 43.6313 26.3907C45.9059 30.765 45.6216 37.895 40.8536 42.9692C36.2825 47.8465 28.7369 49.1151 22.6567 45.9C16.7733 42.7942 13.5144 35.7735 14.9579 29.409C16.4889 22.7382 22.2192 17.7078 28.6713 17.4453Z" fill="#56CCF2"/>
<path d="M44.0686 22.1698C42.6251 20.2451 40.9192 18.6485 38.8633 17.4237C36.8292 16.1989 34.5983 15.4334 32.2362 15.0834C33.4173 12.6776 37.4854 10.5779 41.3566 12.6994C44.7467 14.5366 46.0808 19.064 44.0686 22.1698Z" fill="white"/>
<path d="M31.2523 17.4238C36.0203 17.9706 39.7165 20.2015 42.4504 24.0727C40.7663 25.8006 37.3544 26.2599 35.0798 25.0788C32.1053 23.5697 30.6618 20.7264 31.2523 17.4238Z" fill="white"/>
<path d="M44.8008 18.9346C44.8008 22.9902 42.2124 25.5786 38.1568 25.5786C34.1012 25.5786 31.1631 22.6405 31.1631 18.5849C31.1631 14.5293 34.1012 11.9409 38.1568 11.9409C42.2124 11.9409 44.8008 14.879 44.8008 18.9346Z" fill="white"/>
</svg>