<svg width="1059" height="106" viewBox="0 0 1059 106" fill="none" xmlns="http://www.w3.org/2000/svg">
<rect width="1059" height="106" rx="6" fill="#003459"/>
<path d="M95.7393 50H100.611C103.691 50 105.203 48.292 105.203 45.156V35.244C105.203 32.108 103.691 30.4 100.611 30.4H95.7393V50ZM100.555 33.2C101.535 33.2 102.123 33.704 102.123 35.104V45.296C102.123 46.696 101.535 47.2 100.555 47.2H98.8193V33.2H100.555ZM107.589 50H110.669V30.4H107.589V50ZM113.341 50H118.213C121.293 50 122.805 48.292 122.805 45.156V35.244C122.805 32.108 121.293 30.4 118.213 30.4H113.341V50ZM118.157 33.2C119.137 33.2 119.725 33.704 119.725 35.104V45.296C119.725 46.696 119.137 47.2 118.157 47.2H116.421V33.2H118.157ZM136.538 50H139.702V30.4H136.958V42.132L133.794 30.4H129.93V50H132.702V35.804L136.538 50ZM145.156 34.908C145.156 33.508 145.772 32.976 146.752 32.976C147.732 32.976 148.348 33.508 148.348 34.908V45.492C148.348 46.892 147.732 47.424 146.752 47.424C145.772 47.424 145.156 46.892 145.156 45.492V34.908ZM142.076 45.296C142.076 48.432 143.728 50.224 146.752 50.224C149.776 50.224 151.428 48.432 151.428 45.296V35.104C151.428 31.968 149.776 30.176 146.752 30.176C143.728 30.176 142.076 31.968 142.076 35.104V45.296ZM152.953 33.2H156.173V50H159.253V33.2H162.473V30.4H152.953V33.2ZM172.097 33.2H177.165V30.4H169.017V50H172.097V41.908H176.073V39.108H172.097V33.2ZM179.062 50H182.142V30.4H179.062V50ZM191.394 50H194.558V30.4H191.814V42.132L188.65 30.4H184.786V50H187.558V35.804L191.394 50ZM197.184 50H202.056C205.136 50 206.648 48.292 206.648 45.156V35.244C206.648 32.108 205.136 30.4 202.056 30.4H197.184V50ZM202 33.2C202.98 33.2 203.568 33.704 203.568 35.104V45.296C203.568 46.696 202.98 47.2 202 47.2H200.264V33.2H202ZM221.753 50H225.841L228.025 30.4H225.337L223.741 45.968L222.201 30.4H219.233L217.749 45.856L216.097 30.4H213.101L215.285 50H219.513L220.633 39.556L221.753 50ZM233.078 41.6H236.578V50H239.714V30.4H236.578V38.8H233.078V30.4H229.998V50H233.078V41.6ZM249.199 30.4H244.691L241.555 50H244.383L244.915 46.444H248.695L249.227 50H252.335L249.199 30.4ZM246.791 33.872L248.275 43.784H245.307L246.791 33.872ZM252.227 33.2H255.447V50H258.527V33.2H261.747V30.4H252.227V33.2ZM271.175 50H274.255V43.504L278.147 30.4H275.207L272.855 39.332L270.503 30.4H267.283L271.175 43.504V50ZM282.231 34.908C282.231 33.508 282.847 32.976 283.827 32.976C284.807 32.976 285.423 33.508 285.423 34.908V45.492C285.423 46.892 284.807 47.424 283.827 47.424C282.847 47.424 282.231 46.892 282.231 45.492V34.908ZM279.151 45.296C279.151 48.432 280.803 50.224 283.827 50.224C286.851 50.224 288.503 48.432 288.503 45.296V35.104C288.503 31.968 286.851 30.176 283.827 30.176C280.803 30.176 279.151 31.968 279.151 35.104V45.296ZM290.784 30.4V45.324C290.784 48.46 292.352 50.252 295.376 50.252C298.4 50.252 299.968 48.46 299.968 45.324V30.4H297.056V45.52C297.056 46.92 296.44 47.424 295.46 47.424C294.48 47.424 293.864 46.92 293.864 45.52V30.4H290.784ZM118.755 78H122.843L125.027 58.4H122.339L120.743 73.968L119.203 58.4H116.235L114.751 73.856L113.099 58.4H110.103L112.287 78H116.515L117.635 67.556L118.755 78ZM130.08 61.2H135.4V58.4H127V78H135.4V75.2H130.08V69.46H134.308V66.66H130.08V61.2ZM147.305 78C146.997 77.272 146.969 76.572 146.969 75.62V72.596C146.969 70.552 146.465 69.068 144.925 68.424C146.297 67.78 146.941 66.464 146.941 64.448V62.908C146.941 59.884 145.569 58.4 142.377 58.4H137.729V78H140.809V70.02H141.873C143.273 70.02 143.889 70.692 143.889 72.512V75.592C143.889 77.188 144.001 77.496 144.169 78H147.305ZM142.293 61.2C143.385 61.2 143.861 61.816 143.861 63.216V65.148C143.861 66.716 143.161 67.22 142.013 67.22H140.809V61.2H142.293ZM152.495 61.2H157.815V58.4H149.415V78H157.815V75.2H152.495V69.46H156.723V66.66H152.495V61.2ZM164.911 78H173.059V75.2H167.991V58.4H164.911V78ZM177.647 62.908C177.647 61.508 178.263 60.976 179.243 60.976C180.223 60.976 180.839 61.508 180.839 62.908V73.492C180.839 74.892 180.223 75.424 179.243 75.424C178.263 75.424 177.647 74.892 177.647 73.492V62.908ZM174.567 73.296C174.567 76.432 176.219 78.224 179.243 78.224C182.267 78.224 183.919 76.432 183.919 73.296V63.104C183.919 59.968 182.267 58.176 179.243 58.176C176.219 58.176 174.567 59.968 174.567 63.104V73.296ZM189.169 62.908C189.169 61.508 189.785 60.976 190.765 60.976C191.745 60.976 192.361 61.508 192.361 62.908V73.492C192.361 74.892 191.745 75.424 190.765 75.424C189.785 75.424 189.169 74.892 189.169 73.492V62.908ZM186.089 73.296C186.089 76.432 187.741 78.224 190.765 78.224C193.789 78.224 195.441 76.432 195.441 73.296V63.104C195.441 59.968 193.789 58.176 190.765 58.176C187.741 58.176 186.089 59.968 186.089 63.104V73.296ZM204.89 78H208.054L203.77 67.136L208.054 58.4H204.974L200.942 66.94V58.4H197.862V78H200.942V71.98L201.894 70.188L204.89 78ZM209.876 78H212.956V58.4H209.876V78ZM222.208 78H225.372V58.4H222.628V70.132L219.464 58.4H215.6V78H218.372V63.804L222.208 78ZM232.617 69.88H234.017V73.492C234.017 74.892 233.401 75.396 232.421 75.396C231.441 75.396 230.825 74.892 230.825 73.492V62.908C230.825 61.508 231.441 60.976 232.421 60.976C233.401 60.976 234.017 61.508 234.017 62.908V65.008H236.929V63.104C236.929 59.968 235.361 58.176 232.337 58.176C229.313 58.176 227.745 59.968 227.745 63.104V73.296C227.745 76.432 229.313 78.224 232.337 78.224C235.361 78.224 236.929 76.432 236.929 73.296V67.08H232.617V69.88ZM247.175 61.2H252.243V58.4H244.095V78H247.175V69.908H251.151V67.108H247.175V61.2ZM256.968 62.908C256.968 61.508 257.584 60.976 258.564 60.976C259.544 60.976 260.16 61.508 260.16 62.908V73.492C260.16 74.892 259.544 75.424 258.564 75.424C257.584 75.424 256.968 74.892 256.968 73.492V62.908ZM253.888 73.296C253.888 76.432 255.54 78.224 258.564 78.224C261.588 78.224 263.24 76.432 263.24 73.296V63.104C263.24 59.968 261.588 58.176 258.564 58.176C255.54 58.176 253.888 59.968 253.888 63.104V73.296ZM275.238 78C274.93 77.272 274.902 76.572 274.902 75.62V72.596C274.902 70.552 274.398 69.068 272.858 68.424C274.23 67.78 274.874 66.464 274.874 64.448V62.908C274.874 59.884 273.502 58.4 270.31 58.4H265.662V78H268.742V70.02H269.806C271.206 70.02 271.822 70.692 271.822 72.512V75.592C271.822 77.188 271.934 77.496 272.102 78H275.238ZM270.226 61.2C271.318 61.2 271.794 61.816 271.794 63.216V65.148C271.794 66.716 271.094 67.22 269.946 67.22H268.742V61.2H270.226ZM282.331 73.66C282.247 73.296 282.219 72.932 282.219 72.568C282.219 68.984 285.859 68.2 285.859 63.104C285.859 59.968 284.319 58.176 281.323 58.176C278.327 58.176 276.787 59.968 276.787 63.104V65.036H279.699V62.908C279.699 61.508 280.259 60.976 281.239 60.976C282.219 60.976 282.779 61.508 282.779 62.908C282.779 67.78 279.419 68.172 279.419 72.456C279.419 72.96 279.475 73.324 279.587 73.66H282.331ZM279.447 75.032V78H282.415V75.032H279.447Z" fill="#F2994A"/>
<path d="M434.16 44.648V47.848C434.16 49.448 433.456 50.024 432.336 50.024C431.216 50.024 430.512 49.448 430.512 47.848V35.752C430.512 34.152 431.216 33.544 432.336 33.544C433.456 33.544 434.16 34.152 434.16 35.752V38.152H437.488V35.976C437.488 32.392 435.696 30.344 432.24 30.344C428.784 30.344 426.992 32.392 426.992 35.976V47.624C426.992 51.208 428.784 53.256 432.24 53.256C435.696 53.256 437.488 51.208 437.488 47.624V44.648H434.16ZM443.336 35.752C443.336 34.152 444.04 33.544 445.16 33.544C446.28 33.544 446.984 34.152 446.984 35.752V47.848C446.984 49.448 446.28 50.056 445.16 50.056C444.04 50.056 443.336 49.448 443.336 47.848V35.752ZM439.816 47.624C439.816 51.208 441.704 53.256 445.16 53.256C448.616 53.256 450.504 51.208 450.504 47.624V35.976C450.504 32.392 448.616 30.344 445.16 30.344C441.704 30.344 439.816 32.392 439.816 35.976V47.624ZM460.791 53H464.407V30.6H461.271V44.008L457.655 30.6H453.239V53H456.407V36.776L460.791 53ZM466.383 33.8H470.063V53H473.583V33.8H477.263V30.6H466.383V33.8ZM485.883 30.6H480.731L477.147 53H480.379L480.987 48.936H485.307L485.915 53H489.467L485.883 30.6ZM483.131 34.568L484.827 45.896H481.435L483.131 34.568ZM498.435 44.648V47.848C498.435 49.448 497.731 50.024 496.611 50.024C495.491 50.024 494.787 49.448 494.787 47.848V35.752C494.787 34.152 495.491 33.544 496.611 33.544C497.731 33.544 498.435 34.152 498.435 35.752V38.152H501.763V35.976C501.763 32.392 499.971 30.344 496.515 30.344C493.059 30.344 491.267 32.392 491.267 35.976V47.624C491.267 51.208 493.059 53.256 496.515 53.256C499.971 53.256 501.763 51.208 501.763 47.624V44.648H498.435ZM503.355 33.8H507.035V53H510.555V33.8H514.235V30.6H503.355V33.8ZM521.554 30.6V47.656C521.554 51.24 523.346 53.288 526.802 53.288C530.258 53.288 532.05 51.24 532.05 47.656V30.6H528.722V47.88C528.722 49.48 528.018 50.056 526.898 50.056C525.778 50.056 525.074 49.48 525.074 47.88V30.6H521.554ZM534.496 35.976C534.496 42.376 541.376 43.24 541.376 47.848C541.376 49.448 540.672 50.024 539.552 50.024C538.432 50.024 537.728 49.448 537.728 47.848V46.248H534.4V47.624C534.4 51.208 536.192 53.256 539.648 53.256C543.104 53.256 544.896 51.208 544.896 47.624C544.896 41.224 538.016 40.36 538.016 35.752C538.016 34.152 538.656 33.544 539.776 33.544C540.896 33.544 541.536 34.152 541.536 35.752V36.68H544.864V35.976C544.864 32.392 543.104 30.344 539.68 30.344C536.256 30.344 534.496 32.392 534.496 35.976ZM560.649 30.6H555.497L551.913 53H555.145L555.753 48.936H560.073L560.681 53H564.233L560.649 30.6ZM557.897 34.568L559.593 45.896H556.201L557.897 34.568ZM573.872 53H577.488V30.6H574.352V44.008L570.736 30.6H566.32V53H569.488V36.776L573.872 53ZM580.489 53H586.057C589.577 53 591.305 51.048 591.305 47.464V36.136C591.305 32.552 589.577 30.6 586.057 30.6H580.489V53ZM585.993 33.8C587.113 33.8 587.785 34.376 587.785 35.976V47.624C587.785 49.224 587.113 49.8 585.993 49.8H584.009V33.8H585.993ZM604.76 43.72H606.36V47.848C606.36 49.448 605.656 50.024 604.536 50.024C603.416 50.024 602.712 49.448 602.712 47.848V35.752C602.712 34.152 603.416 33.544 604.536 33.544C605.656 33.544 606.36 34.152 606.36 35.752V38.152H609.688V35.976C609.688 32.392 607.896 30.344 604.44 30.344C600.984 30.344 599.192 32.392 599.192 35.976V47.624C599.192 51.208 600.984 53.256 604.44 53.256C607.896 53.256 609.688 51.208 609.688 47.624V40.52H604.76V43.72ZM615.949 33.8H622.029V30.6H612.429V53H622.029V49.8H615.949V43.24H620.781V40.04H615.949V33.8ZM623.666 33.8H627.346V53H630.866V33.8H634.546V30.6H623.666V33.8ZM641.001 33.8H644.681V53H648.201V33.8H651.881V30.6H641.001V33.8ZM657.431 43.4H661.431V53H665.015V30.6H661.431V40.2H657.431V30.6H653.911V53H657.431V43.4ZM671.568 33.8H677.648V30.6H668.048V53H677.648V49.8H671.568V43.24H676.4V40.04H671.568V33.8ZM690.942 30.6H685.758V53H689.278V44.584H690.942C694.462 44.584 696.19 42.632 696.19 39.048V36.136C696.19 32.552 694.462 30.6 690.942 30.6ZM690.942 33.8C692.062 33.8 692.67 34.312 692.67 35.912V39.272C692.67 40.872 692.062 41.384 690.942 41.384H689.278V33.8H690.942ZM701.82 33.8H707.9V30.6H698.3V53H707.9V49.8H701.82V43.24H706.652V40.04H701.82V33.8ZM721.505 53C721.153 52.168 721.121 51.368 721.121 50.28V46.824C721.121 44.488 720.545 42.792 718.785 42.056C720.353 41.32 721.089 39.816 721.089 37.512V35.752C721.089 32.296 719.521 30.6 715.873 30.6H710.561V53H714.081V43.88H715.297C716.897 43.88 717.601 44.648 717.601 46.728V50.248C717.601 52.072 717.729 52.424 717.921 53H721.505ZM715.777 33.8C717.025 33.8 717.569 34.504 717.569 36.104V38.312C717.569 40.104 716.769 40.68 715.457 40.68H714.081V33.8H715.777ZM727.436 33.8H733.228V30.6H723.916V53H727.436V43.752H731.98V40.552H727.436V33.8ZM738.916 33.8H744.996V30.6H735.396V53H744.996V49.8H738.916V43.24H743.748V40.04H738.916V33.8ZM754.538 44.648V47.848C754.538 49.448 753.834 50.024 752.714 50.024C751.594 50.024 750.89 49.448 750.89 47.848V35.752C750.89 34.152 751.594 33.544 752.714 33.544C753.834 33.544 754.538 34.152 754.538 35.752V38.152H757.866V35.976C757.866 32.392 756.074 30.344 752.618 30.344C749.162 30.344 747.37 32.392 747.37 35.976V47.624C747.37 51.208 749.162 53.256 752.618 53.256C756.074 53.256 757.866 51.208 757.866 47.624V44.648H754.538ZM759.457 33.8H763.137V53H766.657V33.8H770.337V30.6H759.457V33.8ZM783 30.6H777.816V53H781.336V44.584H783C786.52 44.584 788.248 42.632 788.248 39.048V36.136C788.248 32.552 786.52 30.6 783 30.6ZM783 33.8C784.12 33.8 784.728 34.312 784.728 35.912V39.272C784.728 40.872 784.12 41.384 783 41.384H781.336V33.8H783ZM801.303 53C800.951 52.168 800.919 51.368 800.919 50.28V46.824C800.919 44.488 800.343 42.792 798.583 42.056C800.151 41.32 800.887 39.816 800.887 37.512V35.752C800.887 32.296 799.319 30.6 795.671 30.6H790.359V53H793.879V43.88H795.095C796.695 43.88 797.399 44.648 797.399 46.728V50.248C797.399 52.072 797.527 52.424 797.719 53H801.303ZM795.575 33.8C796.823 33.8 797.367 34.504 797.367 36.104V38.312C797.367 40.104 796.567 40.68 795.255 40.68H793.879V33.8H795.575ZM803.714 53H807.234V30.6H803.714V53ZM817.808 53H821.424V30.6H818.288V44.008L814.672 30.6H810.256V53H813.424V36.776L817.808 53ZM823.4 33.8H827.08V53H830.6V33.8H834.28V30.6H823.4V33.8ZM846.623 30.6H841.727V53H844.799V37.16L847.423 53H850.751L853.183 36.936V53H856.511V30.6H851.615L849.215 46.504L846.623 30.6ZM867.359 30.6H862.207L858.623 53H861.855L862.463 48.936H866.783L867.391 53H870.943L867.359 30.6ZM864.607 34.568L866.303 45.896H862.911L864.607 34.568ZM873.063 53H878.631C882.151 53 883.879 51.048 883.879 47.464V36.136C883.879 32.552 882.151 30.6 878.631 30.6H873.063V53ZM878.567 33.8C879.687 33.8 880.359 34.376 880.359 35.976V47.624C880.359 49.224 879.687 49.8 878.567 49.8H876.583V33.8H878.567ZM890.125 33.8H896.205V30.6H886.605V53H896.205V49.8H890.125V43.24H894.957V40.04H890.125V33.8ZM907.835 33.8H913.627V30.6H904.315V53H907.835V43.752H912.379V40.552H907.835V33.8ZM919.027 35.752C919.027 34.152 919.731 33.544 920.851 33.544C921.971 33.544 922.675 34.152 922.675 35.752V47.848C922.675 49.448 921.971 50.056 920.851 50.056C919.731 50.056 919.027 49.448 919.027 47.848V35.752ZM915.507 47.624C915.507 51.208 917.395 53.256 920.851 53.256C924.307 53.256 926.195 51.208 926.195 47.624V35.976C926.195 32.392 924.307 30.344 920.851 30.344C917.395 30.344 915.507 32.392 915.507 35.976V47.624ZM939.906 53C939.554 52.168 939.522 51.368 939.522 50.28V46.824C939.522 44.488 938.946 42.792 937.186 42.056C938.754 41.32 939.49 39.816 939.49 37.512V35.752C939.49 32.296 937.922 30.6 934.274 30.6H928.962V53H932.482V43.88H933.698C935.298 43.88 936.002 44.648 936.002 46.728V50.248C936.002 52.072 936.13 52.424 936.322 53H939.906ZM934.178 33.8C935.426 33.8 935.97 34.504 935.97 36.104V38.312C935.97 40.104 935.17 40.68 933.858 40.68H932.482V33.8H934.178ZM951.062 53H954.582V45.576L959.03 30.6H955.67L952.982 40.808L950.294 30.6H946.614L951.062 45.576V53ZM963.697 35.752C963.697 34.152 964.401 33.544 965.521 33.544C966.641 33.544 967.345 34.152 967.345 35.752V47.848C967.345 49.448 966.641 50.056 965.521 50.056C964.401 50.056 963.697 49.448 963.697 47.848V35.752ZM960.177 47.624C960.177 51.208 962.065 53.256 965.521 53.256C968.977 53.256 970.865 51.208 970.865 47.624V35.976C970.865 32.392 968.977 30.344 965.521 30.344C962.065 30.344 960.177 32.392 960.177 35.976V47.624ZM973.472 30.6V47.656C973.472 51.24 975.264 53.288 978.72 53.288C982.176 53.288 983.968 51.24 983.968 47.656V30.6H980.64V47.88C980.64 49.48 979.936 50.056 978.816 50.056C977.696 50.056 976.992 49.48 976.992 47.88V30.6H973.472Z" fill="white"/>
<path d="M432.44 69.586C432.393 69.6653 432.344 69.7237 432.293 69.761C432.242 69.7983 432.176 69.817 432.097 69.817C432.013 69.817 431.917 69.7797 431.81 69.705C431.703 69.6257 431.567 69.5393 431.404 69.446C431.245 69.348 431.054 69.2617 430.83 69.187C430.606 69.1077 430.338 69.068 430.025 69.068C429.731 69.068 429.472 69.1077 429.248 69.187C429.029 69.2617 428.844 69.3667 428.695 69.502C428.546 69.6327 428.431 69.789 428.352 69.971C428.277 70.1483 428.24 70.342 428.24 70.552C428.24 70.8227 428.308 71.0467 428.443 71.224C428.583 71.4013 428.765 71.553 428.989 71.679C429.213 71.805 429.467 71.9147 429.752 72.008C430.037 72.1013 430.328 72.1993 430.627 72.302C430.926 72.4 431.217 72.5143 431.502 72.645C431.787 72.7757 432.041 72.9413 432.265 73.142C432.489 73.338 432.669 73.5807 432.804 73.87C432.944 74.1547 433.014 74.5047 433.014 74.92C433.014 75.3633 432.937 75.7787 432.783 76.166C432.634 76.5533 432.414 76.8917 432.125 77.181C431.836 77.4703 431.479 77.699 431.054 77.867C430.634 78.0303 430.156 78.112 429.619 78.112C429.297 78.112 428.984 78.0793 428.681 78.014C428.378 77.9533 428.091 77.867 427.82 77.755C427.549 77.6383 427.295 77.5007 427.057 77.342C426.824 77.1787 426.614 76.9967 426.427 76.796L426.854 76.082C426.896 76.026 426.945 75.9793 427.001 75.942C427.062 75.9047 427.129 75.886 427.204 75.886C427.302 75.886 427.414 75.9373 427.54 76.04C427.671 76.1427 427.829 76.257 428.016 76.383C428.207 76.5043 428.434 76.6163 428.695 76.719C428.961 76.8217 429.283 76.873 429.661 76.873C429.969 76.873 430.244 76.8333 430.487 76.754C430.73 76.67 430.933 76.5533 431.096 76.404C431.264 76.25 431.392 76.0657 431.481 75.851C431.57 75.6363 431.614 75.3983 431.614 75.137C431.614 74.843 431.546 74.6027 431.411 74.416C431.276 74.2293 431.096 74.073 430.872 73.947C430.648 73.821 430.394 73.7137 430.109 73.625C429.824 73.5363 429.533 73.4453 429.234 73.352C428.935 73.254 428.644 73.142 428.359 73.016C428.074 72.89 427.82 72.7267 427.596 72.526C427.372 72.3207 427.192 72.0663 427.057 71.763C426.922 71.455 426.854 71.077 426.854 70.629C426.854 70.2697 426.924 69.922 427.064 69.586C427.204 69.25 427.407 68.9537 427.673 68.697C427.944 68.4357 428.275 68.228 428.667 68.074C429.059 67.9153 429.507 67.836 430.011 67.836C430.576 67.836 431.094 67.927 431.565 68.109C432.041 68.2863 432.454 68.543 432.804 68.879L432.44 69.586ZM436.026 71.791C436.325 71.4877 436.654 71.2427 437.013 71.056C437.377 70.8693 437.795 70.776 438.266 70.776C438.658 70.776 439.001 70.8413 439.295 70.972C439.594 71.1027 439.844 71.287 440.044 71.525C440.245 71.7583 440.397 72.0407 440.499 72.372C440.602 72.7033 440.653 73.0697 440.653 73.471V78H439.281V73.471C439.281 72.9623 439.165 72.568 438.931 72.288C438.698 72.0033 438.341 71.861 437.86 71.861C437.51 71.861 437.181 71.945 436.873 72.113C436.57 72.2763 436.288 72.5003 436.026 72.785V78H434.661V67.668H436.026V71.791ZM446.527 74.843C445.972 74.8617 445.501 74.906 445.113 74.976C444.726 75.0413 444.411 75.13 444.168 75.242C443.926 75.354 443.751 75.487 443.643 75.641C443.536 75.7903 443.482 75.9583 443.482 76.145C443.482 76.3223 443.51 76.4763 443.566 76.607C443.627 76.733 443.706 76.838 443.804 76.922C443.907 77.0013 444.026 77.0597 444.161 77.097C444.297 77.1343 444.444 77.153 444.602 77.153C444.812 77.153 445.004 77.132 445.176 77.09C445.354 77.048 445.519 76.9897 445.673 76.915C445.827 76.8357 445.974 76.74 446.114 76.628C446.254 76.516 446.392 76.3877 446.527 76.243V74.843ZM442.523 71.882C442.92 71.504 443.349 71.2217 443.811 71.035C444.278 70.8483 444.789 70.755 445.344 70.755C445.75 70.755 446.11 70.8227 446.422 70.958C446.735 71.0887 446.999 71.273 447.213 71.511C447.428 71.749 447.589 72.0337 447.696 72.365C447.808 72.6963 447.864 73.0627 447.864 73.464V78H447.255C447.12 78 447.017 77.979 446.947 77.937C446.877 77.8903 446.821 77.8063 446.779 77.685L446.632 77.062C446.45 77.23 446.271 77.3793 446.093 77.51C445.916 77.636 445.729 77.7457 445.533 77.839C445.342 77.9277 445.137 77.9953 444.917 78.042C444.698 78.0887 444.455 78.112 444.189 78.112C443.909 78.112 443.646 78.0747 443.398 78C443.156 77.9207 442.943 77.8017 442.761 77.643C442.579 77.4843 442.435 77.286 442.327 77.048C442.225 76.81 442.173 76.5323 442.173 76.215C442.173 75.935 442.248 75.6667 442.397 75.41C442.551 75.1487 442.799 74.9153 443.139 74.71C443.485 74.5047 443.933 74.3367 444.483 74.206C445.039 74.0753 445.72 74.0007 446.527 73.982V73.464C446.527 72.9273 446.413 72.526 446.184 72.26C445.956 71.994 445.62 71.861 445.176 71.861C444.878 71.861 444.626 71.8983 444.42 71.973C444.22 72.0477 444.045 72.1317 443.895 72.225C443.751 72.3137 443.622 72.3953 443.51 72.47C443.403 72.5447 443.291 72.582 443.174 72.582C443.081 72.582 442.999 72.5563 442.929 72.505C442.864 72.4537 442.81 72.393 442.768 72.323L442.523 71.882ZM451.189 72.253C451.418 71.7863 451.693 71.42 452.015 71.154C452.337 70.888 452.725 70.755 453.177 70.755C453.331 70.755 453.476 70.7737 453.611 70.811C453.751 70.8437 453.873 70.895 453.975 70.965L453.884 71.994C453.852 72.12 453.775 72.183 453.653 72.183C453.588 72.183 453.49 72.1713 453.359 72.148C453.229 72.12 453.089 72.106 452.939 72.106C452.72 72.106 452.526 72.1387 452.358 72.204C452.19 72.2647 452.039 72.358 451.903 72.484C451.773 72.6053 451.656 72.757 451.553 72.939C451.451 73.1163 451.355 73.3193 451.266 73.548V78H449.901V70.888H450.685C450.835 70.888 450.935 70.916 450.986 70.972C451.042 71.0233 451.082 71.1167 451.105 71.252L451.189 72.253ZM459.69 73.653C459.69 73.3823 459.65 73.1327 459.571 72.904C459.496 72.6753 459.384 72.477 459.235 72.309C459.085 72.141 458.903 72.0103 458.689 71.917C458.474 71.8237 458.227 71.777 457.947 71.777C457.373 71.777 456.92 71.9427 456.589 72.274C456.262 72.6053 456.054 73.065 455.966 73.653H459.69ZM460.817 76.985C460.649 77.181 460.455 77.3513 460.236 77.496C460.016 77.636 459.783 77.7503 459.536 77.839C459.288 77.9277 459.032 77.993 458.766 78.035C458.504 78.077 458.245 78.098 457.989 78.098C457.499 78.098 457.044 78.0163 456.624 77.853C456.208 77.685 455.847 77.4423 455.539 77.125C455.235 76.803 454.997 76.4063 454.825 75.935C454.657 75.459 454.573 74.913 454.573 74.297C454.573 73.8023 454.65 73.3427 454.804 72.918C454.958 72.4887 455.177 72.1153 455.462 71.798C455.751 71.4807 456.103 71.231 456.519 71.049C456.934 70.867 457.401 70.776 457.919 70.776C458.353 70.776 458.752 70.8483 459.116 70.993C459.484 71.133 459.802 71.3383 460.068 71.609C460.334 71.8797 460.541 72.2133 460.691 72.61C460.845 73.0067 460.922 73.4593 460.922 73.968C460.922 74.178 460.898 74.3203 460.852 74.395C460.805 74.465 460.719 74.5 460.593 74.5H455.931C455.945 74.9247 456.005 75.2957 456.113 75.613C456.22 75.9257 456.367 76.187 456.554 76.397C456.745 76.607 456.971 76.7633 457.233 76.866C457.494 76.9687 457.786 77.02 458.108 77.02C458.411 77.02 458.672 76.985 458.892 76.915C459.116 76.845 459.307 76.7703 459.466 76.691C459.629 76.607 459.764 76.53 459.872 76.46C459.984 76.39 460.082 76.355 460.166 76.355C460.278 76.355 460.364 76.397 460.425 76.481L460.817 76.985ZM472.21 70.888L468.262 80.065C468.22 80.1677 468.164 80.247 468.094 80.303C468.024 80.359 467.922 80.387 467.786 80.387H466.771L468.073 77.552L465.154 70.888H466.344C466.461 70.888 466.552 70.916 466.617 70.972C466.683 71.028 466.729 71.091 466.757 71.161L468.563 75.431C468.601 75.5383 468.636 75.648 468.668 75.76C468.706 75.8673 468.736 75.9747 468.759 76.082C468.792 75.97 468.827 75.8603 468.864 75.753C468.902 75.641 468.941 75.5313 468.983 75.424L470.726 71.161C470.759 71.0817 470.81 71.0163 470.88 70.965C470.95 70.9137 471.03 70.888 471.118 70.888H472.21ZM476.29 70.776C476.813 70.776 477.284 70.8623 477.704 71.035C478.129 71.203 478.488 71.448 478.782 71.77C479.081 72.0873 479.309 72.4723 479.468 72.925C479.627 73.373 479.706 73.877 479.706 74.437C479.706 74.997 479.627 75.5033 479.468 75.956C479.309 76.4087 479.081 76.7937 478.782 77.111C478.488 77.4283 478.129 77.6733 477.704 77.846C477.284 78.014 476.813 78.098 476.29 78.098C475.763 78.098 475.287 78.014 474.862 77.846C474.442 77.6733 474.083 77.4283 473.784 77.111C473.485 76.7937 473.254 76.4087 473.091 75.956C472.932 75.5033 472.853 74.997 472.853 74.437C472.853 73.877 472.932 73.373 473.091 72.925C473.254 72.4723 473.485 72.0873 473.784 71.77C474.083 71.448 474.442 71.203 474.862 71.035C475.287 70.8623 475.763 70.776 476.29 70.776ZM476.29 77.034C476.962 77.034 477.464 76.8077 477.795 76.355C478.126 75.9023 478.292 75.2653 478.292 74.444C478.292 73.6227 478.126 72.9857 477.795 72.533C477.464 72.0757 476.962 71.847 476.29 71.847C475.609 71.847 475.1 72.0757 474.764 72.533C474.433 72.9857 474.267 73.6227 474.267 74.444C474.267 75.2653 474.433 75.9023 474.764 76.355C475.1 76.8077 475.609 77.034 476.29 77.034ZM487.355 70.888V78H486.536C486.349 78 486.228 77.909 486.172 77.727L486.074 77.013C485.92 77.1763 485.759 77.3257 485.591 77.461C485.423 77.5963 485.243 77.713 485.052 77.811C484.86 77.9043 484.657 77.9767 484.443 78.028C484.228 78.084 483.997 78.112 483.75 78.112C483.358 78.112 483.012 78.0467 482.714 77.916C482.42 77.7853 482.172 77.6033 481.972 77.37C481.771 77.132 481.619 76.8473 481.517 76.516C481.414 76.1847 481.363 75.8183 481.363 75.417V70.888H482.735V75.417C482.735 75.9257 482.851 76.3223 483.085 76.607C483.318 76.887 483.675 77.027 484.156 77.027C484.506 77.027 484.832 76.9453 485.136 76.782C485.439 76.614 485.724 76.3853 485.99 76.096V70.888H487.355ZM490.758 72.253C490.987 71.7863 491.262 71.42 491.584 71.154C491.906 70.888 492.293 70.755 492.746 70.755C492.9 70.755 493.045 70.7737 493.18 70.811C493.32 70.8437 493.441 70.895 493.544 70.965L493.453 71.994C493.42 72.12 493.343 72.183 493.222 72.183C493.157 72.183 493.059 72.1713 492.928 72.148C492.797 72.12 492.657 72.106 492.508 72.106C492.289 72.106 492.095 72.1387 491.927 72.204C491.759 72.2647 491.607 72.358 491.472 72.484C491.341 72.6053 491.225 72.757 491.122 72.939C491.019 73.1163 490.924 73.3193 490.835 73.548V78H489.47V70.888H490.254C490.403 70.888 490.504 70.916 490.555 70.972C490.611 71.0233 490.651 71.1167 490.674 71.252L490.758 72.253ZM502.842 72.61C502.618 72.316 502.376 72.1107 502.114 71.994C501.858 71.8773 501.568 71.819 501.246 71.819C500.621 71.819 500.136 72.0453 499.79 72.498C499.45 72.946 499.279 73.6017 499.279 74.465C499.279 74.9177 499.317 75.305 499.391 75.627C499.471 75.9443 499.583 76.2057 499.727 76.411C499.877 76.6117 500.059 76.761 500.273 76.859C500.488 76.9523 500.731 76.999 501.001 76.999C501.398 76.999 501.741 76.9103 502.03 76.733C502.32 76.5557 502.59 76.306 502.842 75.984V72.61ZM504.214 67.668V78H503.388C503.197 78 503.078 77.909 503.031 77.727L502.912 76.908C502.609 77.2673 502.264 77.5567 501.876 77.776C501.494 77.9907 501.05 78.098 500.546 78.098C500.14 78.098 499.772 78.0187 499.44 77.86C499.114 77.7013 498.834 77.4703 498.6 77.167C498.367 76.859 498.187 76.4787 498.061 76.026C497.935 75.5733 497.872 75.053 497.872 74.465C497.872 73.9377 497.942 73.4477 498.082 72.995C498.222 72.5423 498.425 72.1503 498.691 71.819C498.957 71.4877 499.279 71.2287 499.657 71.042C500.035 70.8507 500.462 70.755 500.938 70.755C501.368 70.755 501.732 70.825 502.03 70.965C502.334 71.105 502.604 71.3033 502.842 71.56V67.668H504.214ZM511.04 73.653C511.04 73.3823 511 73.1327 510.921 72.904C510.846 72.6753 510.734 72.477 510.585 72.309C510.435 72.141 510.253 72.0103 510.039 71.917C509.824 71.8237 509.577 71.777 509.297 71.777C508.723 71.777 508.27 71.9427 507.939 72.274C507.612 72.6053 507.404 73.065 507.316 73.653H511.04ZM512.167 76.985C511.999 77.181 511.805 77.3513 511.586 77.496C511.366 77.636 511.133 77.7503 510.886 77.839C510.638 77.9277 510.382 77.993 510.116 78.035C509.854 78.077 509.595 78.098 509.339 78.098C508.849 78.098 508.394 78.0163 507.974 77.853C507.558 77.685 507.197 77.4423 506.889 77.125C506.585 76.803 506.347 76.4063 506.175 75.935C506.007 75.459 505.923 74.913 505.923 74.297C505.923 73.8023 506 73.3427 506.154 72.918C506.308 72.4887 506.527 72.1153 506.812 71.798C507.101 71.4807 507.453 71.231 507.869 71.049C508.284 70.867 508.751 70.776 509.269 70.776C509.703 70.776 510.102 70.8483 510.466 70.993C510.834 71.133 511.152 71.3383 511.418 71.609C511.684 71.8797 511.891 72.2133 512.041 72.61C512.195 73.0067 512.272 73.4593 512.272 73.968C512.272 74.178 512.248 74.3203 512.202 74.395C512.155 74.465 512.069 74.5 511.943 74.5H507.281C507.295 74.9247 507.355 75.2957 507.463 75.613C507.57 75.9257 507.717 76.187 507.904 76.397C508.095 76.607 508.321 76.7633 508.583 76.866C508.844 76.9687 509.136 77.02 509.458 77.02C509.761 77.02 510.022 76.985 510.242 76.915C510.466 76.845 510.657 76.7703 510.816 76.691C510.979 76.607 511.114 76.53 511.222 76.46C511.334 76.39 511.432 76.355 511.516 76.355C511.628 76.355 511.714 76.397 511.775 76.481L512.167 76.985ZM518.142 72.113C518.104 72.1737 518.065 72.218 518.023 72.246C517.981 72.2693 517.927 72.281 517.862 72.281C517.787 72.281 517.703 72.2553 517.61 72.204C517.521 72.1527 517.411 72.0967 517.281 72.036C517.155 71.9753 517.005 71.9193 516.833 71.868C516.66 71.8167 516.455 71.791 516.217 71.791C516.021 71.791 515.841 71.8167 515.678 71.868C515.519 71.9147 515.384 71.9823 515.272 72.071C515.16 72.155 515.073 72.2577 515.013 72.379C514.952 72.4957 514.922 72.6217 514.922 72.757C514.922 72.9343 514.973 73.0813 515.076 73.198C515.183 73.3147 515.321 73.415 515.489 73.499C515.661 73.583 515.855 73.66 516.07 73.73C516.289 73.7953 516.511 73.8653 516.735 73.94C516.963 74.0147 517.185 74.101 517.4 74.199C517.619 74.2923 517.813 74.4113 517.981 74.556C518.153 74.696 518.291 74.8663 518.394 75.067C518.501 75.2677 518.555 75.5127 518.555 75.802C518.555 76.1333 518.494 76.4413 518.373 76.726C518.256 77.006 518.081 77.2487 517.848 77.454C517.619 77.6593 517.334 77.8203 516.994 77.937C516.653 78.0537 516.263 78.112 515.825 78.112C515.335 78.112 514.882 78.0303 514.467 77.867C514.051 77.7037 513.704 77.496 513.424 77.244L513.746 76.719C513.783 76.6537 513.83 76.6047 513.886 76.572C513.942 76.5347 514.016 76.516 514.11 76.516C514.198 76.516 514.289 76.5487 514.383 76.614C514.476 76.6793 514.588 76.7517 514.719 76.831C514.849 76.9057 515.008 76.9757 515.195 77.041C515.381 77.1017 515.615 77.132 515.895 77.132C516.128 77.132 516.331 77.104 516.504 77.048C516.676 76.9873 516.819 76.908 516.931 76.81C517.047 76.7073 517.134 76.5907 517.19 76.46C517.246 76.3293 517.274 76.1917 517.274 76.047C517.274 75.8603 517.22 75.7063 517.113 75.585C517.01 75.459 516.872 75.3517 516.7 75.263C516.532 75.1743 516.338 75.0973 516.119 75.032C515.899 74.9667 515.675 74.8967 515.447 74.822C515.218 74.7473 514.994 74.661 514.775 74.563C514.555 74.465 514.359 74.3413 514.187 74.192C514.019 74.0427 513.881 73.8607 513.774 73.646C513.671 73.4313 513.62 73.17 513.62 72.862C513.62 72.5867 513.676 72.323 513.788 72.071C513.904 71.819 514.07 71.5973 514.285 71.406C514.504 71.2147 514.772 71.063 515.09 70.951C515.412 70.8343 515.778 70.776 516.189 70.776C516.66 70.776 517.085 70.8507 517.463 71C517.845 71.1493 518.172 71.3547 518.443 71.616L518.142 72.113ZM521.671 70.888V78H520.306V70.888H521.671ZM521.93 68.69C521.93 68.816 521.904 68.9373 521.853 69.054C521.801 69.166 521.731 69.2663 521.643 69.355C521.559 69.439 521.458 69.5067 521.342 69.558C521.225 69.6047 521.104 69.628 520.978 69.628C520.852 69.628 520.733 69.6047 520.621 69.558C520.509 69.5067 520.408 69.439 520.32 69.355C520.236 69.2663 520.168 69.166 520.117 69.054C520.07 68.9373 520.047 68.816 520.047 68.69C520.047 68.5593 520.07 68.438 520.117 68.326C520.168 68.2093 520.236 68.109 520.32 68.025C520.408 67.9363 520.509 67.8687 520.621 67.822C520.733 67.7707 520.852 67.745 520.978 67.745C521.104 67.745 521.225 67.7707 521.342 67.822C521.458 67.8687 521.559 67.9363 521.643 68.025C521.731 68.109 521.801 68.2093 521.853 68.326C521.904 68.438 521.93 68.5593 521.93 68.69ZM526.356 74.451C526.599 74.451 526.811 74.4183 526.993 74.353C527.18 74.2877 527.334 74.1967 527.455 74.08C527.581 73.9587 527.674 73.814 527.735 73.646C527.8 73.478 527.833 73.2937 527.833 73.093C527.833 72.6823 527.707 72.3557 527.455 72.113C527.208 71.8657 526.841 71.742 526.356 71.742C525.875 71.742 525.509 71.8657 525.257 72.113C525.01 72.3557 524.886 72.6823 524.886 73.093C524.886 73.2937 524.916 73.478 524.977 73.646C525.042 73.8093 525.136 73.9517 525.257 74.073C525.383 74.1897 525.537 74.283 525.719 74.353C525.906 74.4183 526.118 74.451 526.356 74.451ZM528.533 78.371C528.533 78.203 528.486 78.07 528.393 77.972C528.3 77.8693 528.171 77.79 528.008 77.734C527.849 77.6733 527.663 77.6313 527.448 77.608C527.233 77.58 527.007 77.559 526.769 77.545C526.536 77.531 526.295 77.5193 526.048 77.51C525.801 77.496 525.563 77.4727 525.334 77.44C525.091 77.5613 524.891 77.7083 524.732 77.881C524.578 78.0537 524.501 78.2567 524.501 78.49C524.501 78.6393 524.538 78.7793 524.613 78.91C524.692 79.0407 524.811 79.1527 524.97 79.246C525.133 79.344 525.336 79.4187 525.579 79.47C525.826 79.526 526.12 79.554 526.461 79.554C526.797 79.554 527.093 79.5237 527.35 79.463C527.607 79.407 527.821 79.3253 527.994 79.218C528.171 79.1153 528.304 78.9917 528.393 78.847C528.486 78.7023 528.533 78.5437 528.533 78.371ZM529.919 71.154V71.665C529.919 71.833 529.814 71.938 529.604 71.98L528.841 72.092C528.906 72.2367 528.958 72.3907 528.995 72.554C529.032 72.7127 529.051 72.8807 529.051 73.058C529.051 73.408 528.983 73.7253 528.848 74.01C528.713 74.29 528.526 74.5303 528.288 74.731C528.05 74.9317 527.765 75.0857 527.434 75.193C527.107 75.3003 526.748 75.354 526.356 75.354C526.034 75.354 525.733 75.319 525.453 75.249C525.313 75.333 525.206 75.4263 525.131 75.529C525.061 75.627 525.026 75.725 525.026 75.823C525.026 75.9863 525.094 76.1077 525.229 76.187C525.369 76.2663 525.549 76.3247 525.768 76.362C525.992 76.3947 526.246 76.4157 526.531 76.425C526.82 76.4343 527.112 76.4507 527.406 76.474C527.705 76.4927 527.996 76.53 528.281 76.586C528.57 76.6373 528.825 76.7237 529.044 76.845C529.268 76.9617 529.448 77.125 529.583 77.335C529.723 77.5403 529.793 77.8087 529.793 78.14C529.793 78.448 529.716 78.7467 529.562 79.036C529.413 79.3253 529.193 79.582 528.904 79.806C528.615 80.03 528.262 80.2097 527.847 80.345C527.432 80.4803 526.96 80.548 526.433 80.548C525.906 80.548 525.446 80.4967 525.054 80.394C524.667 80.2913 524.342 80.1537 524.081 79.981C523.824 79.8083 523.631 79.6077 523.5 79.379C523.374 79.1503 523.311 78.9123 523.311 78.665C523.311 78.3197 523.418 78.028 523.633 77.79C523.848 77.5473 524.144 77.3583 524.522 77.223C524.317 77.1297 524.153 77.0037 524.032 76.845C523.911 76.6817 523.85 76.467 523.85 76.201C523.85 76.0983 523.869 75.9933 523.906 75.886C523.943 75.774 523.999 75.6643 524.074 75.557C524.153 75.445 524.249 75.34 524.361 75.242C524.478 75.144 524.611 75.0553 524.76 74.976C524.41 74.78 524.135 74.521 523.934 74.199C523.733 73.8723 523.633 73.492 523.633 73.058C523.633 72.708 523.701 72.393 523.836 72.113C523.971 71.833 524.158 71.5927 524.396 71.392C524.639 71.1913 524.926 71.0373 525.257 70.93C525.593 70.8227 525.959 70.769 526.356 70.769C526.972 70.769 527.502 70.8973 527.945 71.154H529.919ZM532.663 71.875C532.817 71.7117 532.978 71.5623 533.146 71.427C533.314 71.2917 533.491 71.1773 533.678 71.084C533.869 70.986 534.072 70.9113 534.287 70.86C534.506 70.804 534.739 70.776 534.987 70.776C535.379 70.776 535.722 70.8413 536.016 70.972C536.314 71.1027 536.564 71.287 536.765 71.525C536.965 71.7583 537.117 72.0407 537.22 72.372C537.322 72.7033 537.374 73.0697 537.374 73.471V78H536.002V73.471C536.002 72.9623 535.885 72.568 535.652 72.288C535.418 72.0033 535.061 71.861 534.581 71.861C534.231 71.861 533.902 71.945 533.594 72.113C533.29 72.2763 533.008 72.5003 532.747 72.785V78H531.382V70.888H532.201C532.392 70.888 532.511 70.979 532.558 71.161L532.663 71.875ZM546.207 70.776C546.73 70.776 547.201 70.8623 547.621 71.035C548.046 71.203 548.405 71.448 548.699 71.77C548.998 72.0873 549.227 72.4723 549.385 72.925C549.544 73.373 549.623 73.877 549.623 74.437C549.623 74.997 549.544 75.5033 549.385 75.956C549.227 76.4087 548.998 76.7937 548.699 77.111C548.405 77.4283 548.046 77.6733 547.621 77.846C547.201 78.014 546.73 78.098 546.207 78.098C545.68 78.098 545.204 78.014 544.779 77.846C544.359 77.6733 544 77.4283 543.701 77.111C543.403 76.7937 543.172 76.4087 543.008 75.956C542.85 75.5033 542.77 74.997 542.77 74.437C542.77 73.877 542.85 73.373 543.008 72.925C543.172 72.4723 543.403 72.0873 543.701 71.77C544 71.448 544.359 71.203 544.779 71.035C545.204 70.8623 545.68 70.776 546.207 70.776ZM546.207 77.034C546.879 77.034 547.381 76.8077 547.712 76.355C548.044 75.9023 548.209 75.2653 548.209 74.444C548.209 73.6227 548.044 72.9857 547.712 72.533C547.381 72.0757 546.879 71.847 546.207 71.847C545.526 71.847 545.017 72.0757 544.681 72.533C544.35 72.9857 544.184 73.6227 544.184 74.444C544.184 75.2653 544.35 75.9023 544.681 76.355C545.017 76.8077 545.526 77.034 546.207 77.034ZM552.645 72.253C552.874 71.7863 553.149 71.42 553.471 71.154C553.793 70.888 554.181 70.755 554.633 70.755C554.787 70.755 554.932 70.7737 555.067 70.811C555.207 70.8437 555.329 70.895 555.431 70.965L555.34 71.994C555.308 72.12 555.231 72.183 555.109 72.183C555.044 72.183 554.946 72.1713 554.815 72.148C554.685 72.12 554.545 72.106 554.395 72.106C554.176 72.106 553.982 72.1387 553.814 72.204C553.646 72.2647 553.495 72.358 553.359 72.484C553.229 72.6053 553.112 72.757 553.009 72.939C552.907 73.1163 552.811 73.3193 552.722 73.548V78H551.357V70.888H552.141C552.291 70.888 552.391 70.916 552.442 70.972C552.498 71.0233 552.538 71.1167 552.561 71.252L552.645 72.253ZM564.337 72.113C564.3 72.1737 564.26 72.218 564.218 72.246C564.176 72.2693 564.123 72.281 564.057 72.281C563.983 72.281 563.899 72.2553 563.805 72.204C563.717 72.1527 563.607 72.0967 563.476 72.036C563.35 71.9753 563.201 71.9193 563.028 71.868C562.856 71.8167 562.65 71.791 562.412 71.791C562.216 71.791 562.037 71.8167 561.873 71.868C561.715 71.9147 561.579 71.9823 561.467 72.071C561.355 72.155 561.269 72.2577 561.208 72.379C561.148 72.4957 561.117 72.6217 561.117 72.757C561.117 72.9343 561.169 73.0813 561.271 73.198C561.379 73.3147 561.516 73.415 561.684 73.499C561.857 73.583 562.051 73.66 562.265 73.73C562.485 73.7953 562.706 73.8653 562.93 73.94C563.159 74.0147 563.381 74.101 563.595 74.199C563.815 74.2923 564.008 74.4113 564.176 74.556C564.349 74.696 564.487 74.8663 564.589 75.067C564.697 75.2677 564.75 75.5127 564.75 75.802C564.75 76.1333 564.69 76.4413 564.568 76.726C564.452 77.006 564.277 77.2487 564.043 77.454C563.815 77.6593 563.53 77.8203 563.189 77.937C562.849 78.0537 562.459 78.112 562.02 78.112C561.53 78.112 561.078 78.0303 560.662 77.867C560.247 77.7037 559.899 77.496 559.619 77.244L559.941 76.719C559.979 76.6537 560.025 76.6047 560.081 76.572C560.137 76.5347 560.212 76.516 560.305 76.516C560.394 76.516 560.485 76.5487 560.578 76.614C560.672 76.6793 560.784 76.7517 560.914 76.831C561.045 76.9057 561.204 76.9757 561.39 77.041C561.577 77.1017 561.81 77.132 562.09 77.132C562.324 77.132 562.527 77.104 562.699 77.048C562.872 76.9873 563.014 76.908 563.126 76.81C563.243 76.7073 563.329 76.5907 563.385 76.46C563.441 76.3293 563.469 76.1917 563.469 76.047C563.469 75.8603 563.416 75.7063 563.308 75.585C563.206 75.459 563.068 75.3517 562.895 75.263C562.727 75.1743 562.534 75.0973 562.314 75.032C562.095 74.9667 561.871 74.8967 561.642 74.822C561.414 74.7473 561.19 74.661 560.97 74.563C560.751 74.465 560.555 74.3413 560.382 74.192C560.214 74.0427 560.077 73.8607 559.969 73.646C559.867 73.4313 559.815 73.17 559.815 72.862C559.815 72.5867 559.871 72.323 559.983 72.071C560.1 71.819 560.266 71.5973 560.48 71.406C560.7 71.2147 560.968 71.063 561.285 70.951C561.607 70.8343 561.974 70.776 562.384 70.776C562.856 70.776 563.28 70.8507 563.658 71C564.041 71.1493 564.368 71.3547 564.638 71.616L564.337 72.113ZM567.838 67.668V78H566.466V67.668H567.838ZM573.029 70.776C573.552 70.776 574.023 70.8623 574.443 71.035C574.868 71.203 575.227 71.448 575.521 71.77C575.82 72.0873 576.048 72.4723 576.207 72.925C576.366 73.373 576.445 73.877 576.445 74.437C576.445 74.997 576.366 75.5033 576.207 75.956C576.048 76.4087 575.82 76.7937 575.521 77.111C575.227 77.4283 574.868 77.6733 574.443 77.846C574.023 78.014 573.552 78.098 573.029 78.098C572.502 78.098 572.026 78.014 571.601 77.846C571.181 77.6733 570.822 77.4283 570.523 77.111C570.224 76.7937 569.993 76.4087 569.83 75.956C569.671 75.5033 569.592 74.997 569.592 74.437C569.592 73.877 569.671 73.373 569.83 72.925C569.993 72.4723 570.224 72.0873 570.523 71.77C570.822 71.448 571.181 71.203 571.601 71.035C572.026 70.8623 572.502 70.776 573.029 70.776ZM573.029 77.034C573.701 77.034 574.203 76.8077 574.534 76.355C574.865 75.9023 575.031 75.2653 575.031 74.444C575.031 73.6227 574.865 72.9857 574.534 72.533C574.203 72.0757 573.701 71.847 573.029 71.847C572.348 71.847 571.839 72.0757 571.503 72.533C571.172 72.9857 571.006 73.6227 571.006 74.444C571.006 75.2653 571.172 75.9023 571.503 76.355C571.839 76.8077 572.348 77.034 573.029 77.034ZM580.637 74.451C580.879 74.451 581.092 74.4183 581.274 74.353C581.46 74.2877 581.614 74.1967 581.736 74.08C581.862 73.9587 581.955 73.814 582.016 73.646C582.081 73.478 582.114 73.2937 582.114 73.093C582.114 72.6823 581.988 72.3557 581.736 72.113C581.488 71.8657 581.122 71.742 580.637 71.742C580.156 71.742 579.79 71.8657 579.538 72.113C579.29 72.3557 579.167 72.6823 579.167 73.093C579.167 73.2937 579.197 73.478 579.258 73.646C579.323 73.8093 579.416 73.9517 579.538 74.073C579.664 74.1897 579.818 74.283 580 74.353C580.186 74.4183 580.399 74.451 580.637 74.451ZM582.814 78.371C582.814 78.203 582.767 78.07 582.674 77.972C582.58 77.8693 582.452 77.79 582.289 77.734C582.13 77.6733 581.943 77.6313 581.729 77.608C581.514 77.58 581.288 77.559 581.05 77.545C580.816 77.531 580.576 77.5193 580.329 77.51C580.081 77.496 579.843 77.4727 579.615 77.44C579.372 77.5613 579.171 77.7083 579.013 77.881C578.859 78.0537 578.782 78.2567 578.782 78.49C578.782 78.6393 578.819 78.7793 578.894 78.91C578.973 79.0407 579.092 79.1527 579.251 79.246C579.414 79.344 579.617 79.4187 579.86 79.47C580.107 79.526 580.401 79.554 580.742 79.554C581.078 79.554 581.374 79.5237 581.631 79.463C581.887 79.407 582.102 79.3253 582.275 79.218C582.452 79.1153 582.585 78.9917 582.674 78.847C582.767 78.7023 582.814 78.5437 582.814 78.371ZM584.2 71.154V71.665C584.2 71.833 584.095 71.938 583.885 71.98L583.122 72.092C583.187 72.2367 583.238 72.3907 583.276 72.554C583.313 72.7127 583.332 72.8807 583.332 73.058C583.332 73.408 583.264 73.7253 583.129 74.01C582.993 74.29 582.807 74.5303 582.569 74.731C582.331 74.9317 582.046 75.0857 581.715 75.193C581.388 75.3003 581.029 75.354 580.637 75.354C580.315 75.354 580.014 75.319 579.734 75.249C579.594 75.333 579.486 75.4263 579.412 75.529C579.342 75.627 579.307 75.725 579.307 75.823C579.307 75.9863 579.374 76.1077 579.51 76.187C579.65 76.2663 579.829 76.3247 580.049 76.362C580.273 76.3947 580.527 76.4157 580.812 76.425C581.101 76.4343 581.393 76.4507 581.687 76.474C581.985 76.4927 582.277 76.53 582.562 76.586C582.851 76.6373 583.105 76.7237 583.325 76.845C583.549 76.9617 583.728 77.125 583.864 77.335C584.004 77.5403 584.074 77.8087 584.074 78.14C584.074 78.448 583.997 78.7467 583.843 79.036C583.693 79.3253 583.474 79.582 583.185 79.806C582.895 80.03 582.543 80.2097 582.128 80.345C581.712 80.4803 581.241 80.548 580.714 80.548C580.186 80.548 579.727 80.4967 579.335 80.394C578.947 80.2913 578.623 80.1537 578.362 79.981C578.105 79.8083 577.911 79.6077 577.781 79.379C577.655 79.1503 577.592 78.9123 577.592 78.665C577.592 78.3197 577.699 78.028 577.914 77.79C578.128 77.5473 578.425 77.3583 578.803 77.223C578.597 77.1297 578.434 77.0037 578.313 76.845C578.191 76.6817 578.131 76.467 578.131 76.201C578.131 76.0983 578.149 75.9933 578.187 75.886C578.224 75.774 578.28 75.6643 578.355 75.557C578.434 75.445 578.53 75.34 578.642 75.242C578.758 75.144 578.891 75.0553 579.041 74.976C578.691 74.78 578.415 74.521 578.215 74.199C578.014 73.8723 577.914 73.492 577.914 73.058C577.914 72.708 577.981 72.393 578.117 72.113C578.252 71.833 578.439 71.5927 578.677 71.392C578.919 71.1913 579.206 71.0373 579.538 70.93C579.874 70.8227 580.24 70.769 580.637 70.769C581.253 70.769 581.782 70.8973 582.226 71.154H584.2ZM589.484 74.843C588.929 74.8617 588.457 74.906 588.07 74.976C587.683 75.0413 587.368 75.13 587.125 75.242C586.882 75.354 586.707 75.487 586.6 75.641C586.493 75.7903 586.439 75.9583 586.439 76.145C586.439 76.3223 586.467 76.4763 586.523 76.607C586.584 76.733 586.663 76.838 586.761 76.922C586.864 77.0013 586.983 77.0597 587.118 77.097C587.253 77.1343 587.4 77.153 587.559 77.153C587.769 77.153 587.96 77.132 588.133 77.09C588.31 77.048 588.476 76.9897 588.63 76.915C588.784 76.8357 588.931 76.74 589.071 76.628C589.211 76.516 589.349 76.3877 589.484 76.243V74.843ZM585.48 71.882C585.877 71.504 586.306 71.2217 586.768 71.035C587.235 70.8483 587.746 70.755 588.301 70.755C588.707 70.755 589.066 70.8227 589.379 70.958C589.692 71.0887 589.955 71.273 590.17 71.511C590.385 71.749 590.546 72.0337 590.653 72.365C590.765 72.6963 590.821 73.0627 590.821 73.464V78H590.212C590.077 78 589.974 77.979 589.904 77.937C589.834 77.8903 589.778 77.8063 589.736 77.685L589.589 77.062C589.407 77.23 589.227 77.3793 589.05 77.51C588.873 77.636 588.686 77.7457 588.49 77.839C588.299 77.9277 588.093 77.9953 587.874 78.042C587.655 78.0887 587.412 78.112 587.146 78.112C586.866 78.112 586.602 78.0747 586.355 78C586.112 77.9207 585.9 77.8017 585.718 77.643C585.536 77.4843 585.391 77.286 585.284 77.048C585.181 76.81 585.13 76.5323 585.13 76.215C585.13 75.935 585.205 75.6667 585.354 75.41C585.508 75.1487 585.755 74.9153 586.096 74.71C586.441 74.5047 586.889 74.3367 587.44 74.206C587.995 74.0753 588.677 74.0007 589.484 73.982V73.464C589.484 72.9273 589.37 72.526 589.141 72.26C588.912 71.994 588.576 71.861 588.133 71.861C587.834 71.861 587.582 71.8983 587.377 71.973C587.176 72.0477 587.001 72.1317 586.852 72.225C586.707 72.3137 586.579 72.3953 586.467 72.47C586.36 72.5447 586.248 72.582 586.131 72.582C586.038 72.582 585.956 72.5563 585.886 72.505C585.821 72.4537 585.767 72.393 585.725 72.323L585.48 71.882ZM594.139 71.875C594.293 71.7117 594.454 71.5623 594.622 71.427C594.79 71.2917 594.968 71.1773 595.154 71.084C595.346 70.986 595.549 70.9113 595.763 70.86C595.983 70.804 596.216 70.776 596.463 70.776C596.855 70.776 597.198 70.8413 597.492 70.972C597.791 71.1027 598.041 71.287 598.241 71.525C598.442 71.7583 598.594 72.0407 598.696 72.372C598.799 72.7033 598.85 73.0697 598.85 73.471V78H597.478V73.471C597.478 72.9623 597.362 72.568 597.128 72.288C596.895 72.0033 596.538 71.861 596.057 71.861C595.707 71.861 595.378 71.945 595.07 72.113C594.767 72.2763 594.485 72.5003 594.223 72.785V78H592.858V70.888H593.677C593.869 70.888 593.988 70.979 594.034 71.161L594.139 71.875ZM614.257 70.888L611.968 78H610.876C610.746 78 610.657 77.9137 610.61 77.741L609.112 73.107C609.075 72.9903 609.042 72.876 609.014 72.764C608.986 72.6473 608.961 72.5307 608.937 72.414C608.895 72.6567 608.837 72.8923 608.762 73.121L607.243 77.741C607.197 77.9137 607.096 78 606.942 78H605.906L603.61 70.888H604.688C604.796 70.888 604.884 70.9137 604.954 70.965C605.029 71.0163 605.078 71.0817 605.101 71.161L606.382 75.529C606.424 75.7063 606.462 75.879 606.494 76.047C606.527 76.215 606.557 76.383 606.585 76.551C606.627 76.383 606.672 76.215 606.718 76.047C606.77 75.879 606.821 75.7063 606.872 75.529L608.293 71.133C608.317 71.0537 608.361 70.9907 608.426 70.944C608.492 70.8927 608.571 70.867 608.664 70.867H609.259C609.362 70.867 609.446 70.8927 609.511 70.944C609.581 70.9907 609.628 71.0537 609.651 71.133L611.037 75.529C611.089 75.7063 611.138 75.8813 611.184 76.054C611.231 76.222 611.273 76.3923 611.31 76.565C611.338 76.397 611.371 76.229 611.408 76.061C611.446 75.8883 611.488 75.711 611.534 75.529L612.836 71.161C612.86 71.0817 612.906 71.0163 612.976 70.965C613.051 70.9137 613.135 70.888 613.228 70.888H614.257ZM617.051 70.888V78H615.686V70.888H617.051ZM617.31 68.69C617.31 68.816 617.285 68.9373 617.233 69.054C617.182 69.166 617.112 69.2663 617.023 69.355C616.939 69.439 616.839 69.5067 616.722 69.558C616.606 69.6047 616.484 69.628 616.358 69.628C616.232 69.628 616.113 69.6047 616.001 69.558C615.889 69.5067 615.789 69.439 615.7 69.355C615.616 69.2663 615.549 69.166 615.497 69.054C615.451 68.9373 615.427 68.816 615.427 68.69C615.427 68.5593 615.451 68.438 615.497 68.326C615.549 68.2093 615.616 68.109 615.7 68.025C615.789 67.9363 615.889 67.8687 616.001 67.822C616.113 67.7707 616.232 67.745 616.358 67.745C616.484 67.745 616.606 67.7707 616.722 67.822C616.839 67.8687 616.939 67.9363 617.023 68.025C617.112 68.109 617.182 68.2093 617.233 68.326C617.285 68.438 617.31 68.5593 617.31 68.69ZM621.464 78.112C620.89 78.112 620.446 77.951 620.134 77.629C619.826 77.307 619.672 76.8473 619.672 76.25V71.994H618.846C618.766 71.994 618.699 71.9707 618.643 71.924C618.591 71.8727 618.566 71.798 618.566 71.7V71.147L619.721 70.986L620.029 68.865C620.047 68.7857 620.082 68.725 620.134 68.683C620.19 68.6363 620.26 68.613 620.344 68.613H621.037V71H623.053V71.994H621.037V76.159C621.037 76.439 621.104 76.649 621.24 76.789C621.38 76.9243 621.557 76.992 621.772 76.992C621.898 76.992 622.005 76.9757 622.094 76.943C622.187 76.9103 622.266 76.8753 622.332 76.838C622.397 76.796 622.453 76.7587 622.5 76.726C622.546 76.6933 622.588 76.677 622.626 76.677C622.672 76.677 622.707 76.6887 622.731 76.712C622.759 76.7307 622.787 76.7633 622.815 76.81L623.221 77.468C622.997 77.6733 622.731 77.832 622.423 77.944C622.115 78.056 621.795 78.112 621.464 78.112ZM625.885 71.791C626.183 71.4877 626.512 71.2427 626.872 71.056C627.236 70.8693 627.653 70.776 628.125 70.776C628.517 70.776 628.86 70.8413 629.154 70.972C629.452 71.1027 629.702 71.287 629.903 71.525C630.103 71.7583 630.255 72.0407 630.358 72.372C630.46 72.7033 630.512 73.0697 630.512 73.471V78H629.14V73.471C629.14 72.9623 629.023 72.568 628.79 72.288C628.556 72.0033 628.199 71.861 627.719 71.861C627.369 71.861 627.04 71.945 626.732 72.113C626.428 72.2763 626.146 72.5003 625.885 72.785V78H624.52V67.668H625.885V71.791ZM642.23 70.888V78H641.411C641.224 78 641.103 77.909 641.047 77.727L640.949 77.013C640.795 77.1763 640.634 77.3257 640.466 77.461C640.298 77.5963 640.118 77.713 639.927 77.811C639.735 77.9043 639.532 77.9767 639.318 78.028C639.103 78.084 638.872 78.112 638.625 78.112C638.233 78.112 637.887 78.0467 637.589 77.916C637.295 77.7853 637.047 77.6033 636.847 77.37C636.646 77.132 636.494 76.8473 636.392 76.516C636.289 76.1847 636.238 75.8183 636.238 75.417V70.888H637.61V75.417C637.61 75.9257 637.726 76.3223 637.96 76.607C638.193 76.887 638.55 77.027 639.031 77.027C639.381 77.027 639.707 76.9453 640.011 76.782C640.314 76.614 640.599 76.3853 640.865 76.096V70.888H642.23ZM648.538 72.113C648.501 72.1737 648.461 72.218 648.419 72.246C648.377 72.2693 648.323 72.281 648.258 72.281C648.183 72.281 648.099 72.2553 648.006 72.204C647.917 72.1527 647.808 72.0967 647.677 72.036C647.551 71.9753 647.402 71.9193 647.229 71.868C647.056 71.8167 646.851 71.791 646.613 71.791C646.417 71.791 646.237 71.8167 646.074 71.868C645.915 71.9147 645.78 71.9823 645.668 72.071C645.556 72.155 645.47 72.2577 645.409 72.379C645.348 72.4957 645.318 72.6217 645.318 72.757C645.318 72.9343 645.369 73.0813 645.472 73.198C645.579 73.3147 645.717 73.415 645.885 73.499C646.058 73.583 646.251 73.66 646.466 73.73C646.685 73.7953 646.907 73.8653 647.131 73.94C647.36 74.0147 647.581 74.101 647.796 74.199C648.015 74.2923 648.209 74.4113 648.377 74.556C648.55 74.696 648.687 74.8663 648.79 75.067C648.897 75.2677 648.951 75.5127 648.951 75.802C648.951 76.1333 648.89 76.4413 648.769 76.726C648.652 77.006 648.477 77.2487 648.244 77.454C648.015 77.6593 647.731 77.8203 647.39 77.937C647.049 78.0537 646.66 78.112 646.221 78.112C645.731 78.112 645.278 78.0303 644.863 77.867C644.448 77.7037 644.1 77.496 643.82 77.244L644.142 76.719C644.179 76.6537 644.226 76.6047 644.282 76.572C644.338 76.5347 644.413 76.516 644.506 76.516C644.595 76.516 644.686 76.5487 644.779 76.614C644.872 76.6793 644.984 76.7517 645.115 76.831C645.246 76.9057 645.404 76.9757 645.591 77.041C645.778 77.1017 646.011 77.132 646.291 77.132C646.524 77.132 646.727 77.104 646.9 77.048C647.073 76.9873 647.215 76.908 647.327 76.81C647.444 76.7073 647.53 76.5907 647.586 76.46C647.642 76.3293 647.67 76.1917 647.67 76.047C647.67 75.8603 647.616 75.7063 647.509 75.585C647.406 75.459 647.269 75.3517 647.096 75.263C646.928 75.1743 646.734 75.0973 646.515 75.032C646.296 74.9667 646.072 74.8967 645.843 74.822C645.614 74.7473 645.39 74.661 645.171 74.563C644.952 74.465 644.756 74.3413 644.583 74.192C644.415 74.0427 644.277 73.8607 644.17 73.646C644.067 73.4313 644.016 73.17 644.016 72.862C644.016 72.5867 644.072 72.323 644.184 72.071C644.301 71.819 644.466 71.5973 644.681 71.406C644.9 71.2147 645.169 71.063 645.486 70.951C645.808 70.8343 646.174 70.776 646.585 70.776C647.056 70.776 647.481 70.8507 647.859 71C648.242 71.1493 648.568 71.3547 648.839 71.616L648.538 72.113ZM651.255 78C651.129 78 651.012 77.9767 650.905 77.93C650.802 77.8833 650.711 77.8203 650.632 77.741C650.557 77.657 650.499 77.559 650.457 77.447C650.415 77.335 650.394 77.2137 650.394 77.083C650.394 76.971 650.415 76.866 650.457 76.768C650.499 76.6653 650.557 76.5767 650.632 76.502C650.711 76.4273 650.805 76.369 650.912 76.327C651.019 76.2803 651.138 76.257 651.269 76.257C651.418 76.257 651.549 76.285 651.661 76.341C651.778 76.3923 651.873 76.467 651.948 76.565C652.027 76.6583 652.086 76.768 652.123 76.894C652.16 77.02 652.179 77.1553 652.179 77.3C652.179 77.51 652.149 77.7317 652.088 77.965C652.027 78.1983 651.939 78.4293 651.822 78.658C651.705 78.8867 651.561 79.1083 651.388 79.323C651.215 79.5377 651.019 79.736 650.8 79.918L650.569 79.701C650.499 79.6357 650.464 79.5633 650.464 79.484C650.464 79.4513 650.473 79.4163 650.492 79.379C650.515 79.3463 650.543 79.3137 650.576 79.281C650.623 79.2297 650.683 79.162 650.758 79.078C650.833 78.994 650.905 78.896 650.975 78.784C651.05 78.6767 651.117 78.5553 651.178 78.42C651.243 78.2893 651.29 78.1493 651.318 78H651.255ZM661.621 74.843C661.066 74.8617 660.595 74.906 660.207 74.976C659.82 75.0413 659.505 75.13 659.262 75.242C659.02 75.354 658.845 75.487 658.737 75.641C658.63 75.7903 658.576 75.9583 658.576 76.145C658.576 76.3223 658.604 76.4763 658.66 76.607C658.721 76.733 658.8 76.838 658.898 76.922C659.001 77.0013 659.12 77.0597 659.255 77.097C659.391 77.1343 659.538 77.153 659.696 77.153C659.906 77.153 660.098 77.132 660.27 77.09C660.448 77.048 660.613 76.9897 660.767 76.915C660.921 76.8357 661.068 76.74 661.208 76.628C661.348 76.516 661.486 76.3877 661.621 76.243V74.843ZM657.617 71.882C658.014 71.504 658.443 71.2217 658.905 71.035C659.372 70.8483 659.883 70.755 660.438 70.755C660.844 70.755 661.204 70.8227 661.516 70.958C661.829 71.0887 662.093 71.273 662.307 71.511C662.522 71.749 662.683 72.0337 662.79 72.365C662.902 72.6963 662.958 73.0627 662.958 73.464V78H662.349C662.214 78 662.111 77.979 662.041 77.937C661.971 77.8903 661.915 77.8063 661.873 77.685L661.726 77.062C661.544 77.23 661.365 77.3793 661.187 77.51C661.01 77.636 660.823 77.7457 660.627 77.839C660.436 77.9277 660.231 77.9953 660.011 78.042C659.792 78.0887 659.549 78.112 659.283 78.112C659.003 78.112 658.74 78.0747 658.492 78C658.25 77.9207 658.037 77.8017 657.855 77.643C657.673 77.4843 657.529 77.286 657.421 77.048C657.319 76.81 657.267 76.5323 657.267 76.215C657.267 75.935 657.342 75.6667 657.491 75.41C657.645 75.1487 657.893 74.9153 658.233 74.71C658.579 74.5047 659.027 74.3367 659.577 74.206C660.133 74.0753 660.814 74.0007 661.621 73.982V73.464C661.621 72.9273 661.507 72.526 661.278 72.26C661.05 71.994 660.714 71.861 660.27 71.861C659.972 71.861 659.72 71.8983 659.514 71.973C659.314 72.0477 659.139 72.1317 658.989 72.225C658.845 72.3137 658.716 72.3953 658.604 72.47C658.497 72.5447 658.385 72.582 658.268 72.582C658.175 72.582 658.093 72.5563 658.023 72.505C657.958 72.4537 657.904 72.393 657.862 72.323L657.617 71.882ZM666.277 71.875C666.431 71.7117 666.592 71.5623 666.76 71.427C666.928 71.2917 667.105 71.1773 667.292 71.084C667.483 70.986 667.686 70.9113 667.901 70.86C668.12 70.804 668.353 70.776 668.601 70.776C668.993 70.776 669.336 70.8413 669.63 70.972C669.928 71.1027 670.178 71.287 670.379 71.525C670.579 71.7583 670.731 72.0407 670.834 72.372C670.936 72.7033 670.988 73.0697 670.988 73.471V78H669.616V73.471C669.616 72.9623 669.499 72.568 669.266 72.288C669.032 72.0033 668.675 71.861 668.195 71.861C667.845 71.861 667.516 71.945 667.208 72.113C666.904 72.2763 666.622 72.5003 666.361 72.785V78H664.996V70.888H665.815C666.006 70.888 666.125 70.979 666.172 71.161L666.277 71.875ZM677.625 72.61C677.401 72.316 677.158 72.1107 676.897 71.994C676.64 71.8773 676.351 71.819 676.029 71.819C675.403 71.819 674.918 72.0453 674.573 72.498C674.232 72.946 674.062 73.6017 674.062 74.465C674.062 74.9177 674.099 75.305 674.174 75.627C674.253 75.9443 674.365 76.2057 674.51 76.411C674.659 76.6117 674.841 76.761 675.056 76.859C675.27 76.9523 675.513 76.999 675.784 76.999C676.18 76.999 676.523 76.9103 676.813 76.733C677.102 76.5557 677.373 76.306 677.625 75.984V72.61ZM678.997 67.668V78H678.171C677.979 78 677.86 77.909 677.814 77.727L677.695 76.908C677.391 77.2673 677.046 77.5567 676.659 77.776C676.276 77.9907 675.833 78.098 675.329 78.098C674.923 78.098 674.554 78.0187 674.223 77.86C673.896 77.7013 673.616 77.4703 673.383 77.167C673.149 76.859 672.97 76.4787 672.844 76.026C672.718 75.5733 672.655 75.053 672.655 74.465C672.655 73.9377 672.725 73.4477 672.865 72.995C673.005 72.5423 673.208 72.1503 673.474 71.819C673.74 71.4877 674.062 71.2287 674.44 71.042C674.818 70.8507 675.245 70.755 675.721 70.755C676.15 70.755 676.514 70.825 676.813 70.965C677.116 71.105 677.387 71.3033 677.625 71.56V67.668H678.997ZM687.893 70.776C688.416 70.776 688.887 70.8623 689.307 71.035C689.732 71.203 690.091 71.448 690.385 71.77C690.684 72.0873 690.912 72.4723 691.071 72.925C691.23 73.373 691.309 73.877 691.309 74.437C691.309 74.997 691.23 75.5033 691.071 75.956C690.912 76.4087 690.684 76.7937 690.385 77.111C690.091 77.4283 689.732 77.6733 689.307 77.846C688.887 78.014 688.416 78.098 687.893 78.098C687.366 78.098 686.89 78.014 686.465 77.846C686.045 77.6733 685.686 77.4283 685.387 77.111C685.088 76.7937 684.857 76.4087 684.694 75.956C684.535 75.5033 684.456 74.997 684.456 74.437C684.456 73.877 684.535 73.373 684.694 72.925C684.857 72.4723 685.088 72.0873 685.387 71.77C685.686 71.448 686.045 71.203 686.465 71.035C686.89 70.8623 687.366 70.776 687.893 70.776ZM687.893 77.034C688.565 77.034 689.067 76.8077 689.398 76.355C689.729 75.9023 689.895 75.2653 689.895 74.444C689.895 73.6227 689.729 72.9857 689.398 72.533C689.067 72.0757 688.565 71.847 687.893 71.847C687.212 71.847 686.703 72.0757 686.367 72.533C686.036 72.9857 685.87 73.6227 685.87 74.444C685.87 75.2653 686.036 75.9023 686.367 76.355C686.703 76.8077 687.212 77.034 687.893 77.034ZM698.958 70.888V78H698.139C697.952 78 697.831 77.909 697.775 77.727L697.677 77.013C697.523 77.1763 697.362 77.3257 697.194 77.461C697.026 77.5963 696.846 77.713 696.655 77.811C696.463 77.9043 696.26 77.9767 696.046 78.028C695.831 78.084 695.6 78.112 695.353 78.112C694.961 78.112 694.615 78.0467 694.317 77.916C694.023 77.7853 693.775 77.6033 693.575 77.37C693.374 77.132 693.222 76.8473 693.12 76.516C693.017 76.1847 692.966 75.8183 692.966 75.417V70.888H694.338V75.417C694.338 75.9257 694.454 76.3223 694.688 76.607C694.921 76.887 695.278 77.027 695.759 77.027C696.109 77.027 696.435 76.9453 696.739 76.782C697.042 76.614 697.327 76.3853 697.593 76.096V70.888H698.958ZM702.361 72.253C702.59 71.7863 702.865 71.42 703.187 71.154C703.509 70.888 703.896 70.755 704.349 70.755C704.503 70.755 704.648 70.7737 704.783 70.811C704.923 70.8437 705.044 70.895 705.147 70.965L705.056 71.994C705.023 72.12 704.946 72.183 704.825 72.183C704.76 72.183 704.662 72.1713 704.531 72.148C704.4 72.12 704.26 72.106 704.111 72.106C703.892 72.106 703.698 72.1387 703.53 72.204C703.362 72.2647 703.21 72.358 703.075 72.484C702.944 72.6053 702.828 72.757 702.725 72.939C702.622 73.1163 702.527 73.3193 702.438 73.548V78H701.073V70.888H701.857C702.006 70.888 702.107 70.916 702.158 70.972C702.214 71.0233 702.254 71.1167 702.277 71.252L702.361 72.253ZM714.445 72.61C714.221 72.316 713.979 72.1107 713.717 71.994C713.461 71.8773 713.171 71.819 712.849 71.819C712.224 71.819 711.739 72.0453 711.393 72.498C711.053 72.946 710.882 73.6017 710.882 74.465C710.882 74.9177 710.92 75.305 710.994 75.627C711.074 75.9443 711.186 76.2057 711.33 76.411C711.48 76.6117 711.662 76.761 711.876 76.859C712.091 76.9523 712.334 76.999 712.604 76.999C713.001 76.999 713.344 76.9103 713.633 76.733C713.923 76.5557 714.193 76.306 714.445 75.984V72.61ZM715.817 67.668V78H714.991C714.8 78 714.681 77.909 714.634 77.727L714.515 76.908C714.212 77.2673 713.867 77.5567 713.479 77.776C713.097 77.9907 712.653 78.098 712.149 78.098C711.743 78.098 711.375 78.0187 711.043 77.86C710.717 77.7013 710.437 77.4703 710.203 77.167C709.97 76.859 709.79 76.4787 709.664 76.026C709.538 75.5733 709.475 75.053 709.475 74.465C709.475 73.9377 709.545 73.4477 709.685 72.995C709.825 72.5423 710.028 72.1503 710.294 71.819C710.56 71.4877 710.882 71.2287 711.26 71.042C711.638 70.8507 712.065 70.755 712.541 70.755C712.971 70.755 713.335 70.825 713.633 70.965C713.937 71.105 714.207 71.3033 714.445 71.56V67.668H715.817ZM722.643 73.653C722.643 73.3823 722.603 73.1327 722.524 72.904C722.449 72.6753 722.337 72.477 722.188 72.309C722.038 72.141 721.856 72.0103 721.642 71.917C721.427 71.8237 721.18 71.777 720.9 71.777C720.326 71.777 719.873 71.9427 719.542 72.274C719.215 72.6053 719.007 73.065 718.919 73.653H722.643ZM723.77 76.985C723.602 77.181 723.408 77.3513 723.189 77.496C722.969 77.636 722.736 77.7503 722.489 77.839C722.241 77.9277 721.985 77.993 721.719 78.035C721.457 78.077 721.198 78.098 720.942 78.098C720.452 78.098 719.997 78.0163 719.577 77.853C719.161 77.685 718.8 77.4423 718.492 77.125C718.188 76.803 717.95 76.4063 717.778 75.935C717.61 75.459 717.526 74.913 717.526 74.297C717.526 73.8023 717.603 73.3427 717.757 72.918C717.911 72.4887 718.13 72.1153 718.415 71.798C718.704 71.4807 719.056 71.231 719.472 71.049C719.887 70.867 720.354 70.776 720.872 70.776C721.306 70.776 721.705 70.8483 722.069 70.993C722.437 71.133 722.755 71.3383 723.021 71.609C723.287 71.8797 723.494 72.2133 723.644 72.61C723.798 73.0067 723.875 73.4593 723.875 73.968C723.875 74.178 723.851 74.3203 723.805 74.395C723.758 74.465 723.672 74.5 723.546 74.5H718.884C718.898 74.9247 718.958 75.2957 719.066 75.613C719.173 75.9257 719.32 76.187 719.507 76.397C719.698 76.607 719.924 76.7633 720.186 76.866C720.447 76.9687 720.739 77.02 721.061 77.02C721.364 77.02 721.625 76.985 721.845 76.915C722.069 76.845 722.26 76.7703 722.419 76.691C722.582 76.607 722.717 76.53 722.825 76.46C722.937 76.39 723.035 76.355 723.119 76.355C723.231 76.355 723.317 76.397 723.378 76.481L723.77 76.985ZM729.745 72.113C729.707 72.1737 729.668 72.218 729.626 72.246C729.584 72.2693 729.53 72.281 729.465 72.281C729.39 72.281 729.306 72.2553 729.213 72.204C729.124 72.1527 729.014 72.0967 728.884 72.036C728.758 71.9753 728.608 71.9193 728.436 71.868C728.263 71.8167 728.058 71.791 727.82 71.791C727.624 71.791 727.444 71.8167 727.281 71.868C727.122 71.9147 726.987 71.9823 726.875 72.071C726.763 72.155 726.676 72.2577 726.616 72.379C726.555 72.4957 726.525 72.6217 726.525 72.757C726.525 72.9343 726.576 73.0813 726.679 73.198C726.786 73.3147 726.924 73.415 727.092 73.499C727.264 73.583 727.458 73.66 727.673 73.73C727.892 73.7953 728.114 73.8653 728.338 73.94C728.566 74.0147 728.788 74.101 729.003 74.199C729.222 74.2923 729.416 74.4113 729.584 74.556C729.756 74.696 729.894 74.8663 729.997 75.067C730.104 75.2677 730.158 75.5127 730.158 75.802C730.158 76.1333 730.097 76.4413 729.976 76.726C729.859 77.006 729.684 77.2487 729.451 77.454C729.222 77.6593 728.937 77.8203 728.597 77.937C728.256 78.0537 727.866 78.112 727.428 78.112C726.938 78.112 726.485 78.0303 726.07 77.867C725.654 77.7037 725.307 77.496 725.027 77.244L725.349 76.719C725.386 76.6537 725.433 76.6047 725.489 76.572C725.545 76.5347 725.619 76.516 725.713 76.516C725.801 76.516 725.892 76.5487 725.986 76.614C726.079 76.6793 726.191 76.7517 726.322 76.831C726.452 76.9057 726.611 76.9757 726.798 77.041C726.984 77.1017 727.218 77.132 727.498 77.132C727.731 77.132 727.934 77.104 728.107 77.048C728.279 76.9873 728.422 76.908 728.534 76.81C728.65 76.7073 728.737 76.5907 728.793 76.46C728.849 76.3293 728.877 76.1917 728.877 76.047C728.877 75.8603 728.823 75.7063 728.716 75.585C728.613 75.459 728.475 75.3517 728.303 75.263C728.135 75.1743 727.941 75.0973 727.722 75.032C727.502 74.9667 727.278 74.8967 727.05 74.822C726.821 74.7473 726.597 74.661 726.378 74.563C726.158 74.465 725.962 74.3413 725.79 74.192C725.622 74.0427 725.484 73.8607 725.377 73.646C725.274 73.4313 725.223 73.17 725.223 72.862C725.223 72.5867 725.279 72.323 725.391 72.071C725.507 71.819 725.673 71.5973 725.888 71.406C726.107 71.2147 726.375 71.063 726.693 70.951C727.015 70.8343 727.381 70.776 727.792 70.776C728.263 70.776 728.688 70.8507 729.066 71C729.448 71.1493 729.775 71.3547 730.046 71.616L729.745 72.113ZM733.274 70.888V78H731.909V70.888H733.274ZM733.533 68.69C733.533 68.816 733.507 68.9373 733.456 69.054C733.404 69.166 733.334 69.2663 733.246 69.355C733.162 69.439 733.061 69.5067 732.945 69.558C732.828 69.6047 732.707 69.628 732.581 69.628C732.455 69.628 732.336 69.6047 732.224 69.558C732.112 69.5067 732.011 69.439 731.923 69.355C731.839 69.2663 731.771 69.166 731.72 69.054C731.673 68.9373 731.65 68.816 731.65 68.69C731.65 68.5593 731.673 68.438 731.72 68.326C731.771 68.2093 731.839 68.109 731.923 68.025C732.011 67.9363 732.112 67.8687 732.224 67.822C732.336 67.7707 732.455 67.745 732.581 67.745C732.707 67.745 732.828 67.7707 732.945 67.822C733.061 67.8687 733.162 67.9363 733.246 68.025C733.334 68.109 733.404 68.2093 733.456 68.326C733.507 68.438 733.533 68.5593 733.533 68.69ZM737.959 74.451C738.202 74.451 738.414 74.4183 738.596 74.353C738.783 74.2877 738.937 74.1967 739.058 74.08C739.184 73.9587 739.277 73.814 739.338 73.646C739.403 73.478 739.436 73.2937 739.436 73.093C739.436 72.6823 739.31 72.3557 739.058 72.113C738.811 71.8657 738.444 71.742 737.959 71.742C737.478 71.742 737.112 71.8657 736.86 72.113C736.613 72.3557 736.489 72.6823 736.489 73.093C736.489 73.2937 736.519 73.478 736.58 73.646C736.645 73.8093 736.739 73.9517 736.86 74.073C736.986 74.1897 737.14 74.283 737.322 74.353C737.509 74.4183 737.721 74.451 737.959 74.451ZM740.136 78.371C740.136 78.203 740.089 78.07 739.996 77.972C739.903 77.8693 739.774 77.79 739.611 77.734C739.452 77.6733 739.266 77.6313 739.051 77.608C738.836 77.58 738.61 77.559 738.372 77.545C738.139 77.531 737.898 77.5193 737.651 77.51C737.404 77.496 737.166 77.4727 736.937 77.44C736.694 77.5613 736.494 77.7083 736.335 77.881C736.181 78.0537 736.104 78.2567 736.104 78.49C736.104 78.6393 736.141 78.7793 736.216 78.91C736.295 79.0407 736.414 79.1527 736.573 79.246C736.736 79.344 736.939 79.4187 737.182 79.47C737.429 79.526 737.723 79.554 738.064 79.554C738.4 79.554 738.696 79.5237 738.953 79.463C739.21 79.407 739.424 79.3253 739.597 79.218C739.774 79.1153 739.907 78.9917 739.996 78.847C740.089 78.7023 740.136 78.5437 740.136 78.371ZM741.522 71.154V71.665C741.522 71.833 741.417 71.938 741.207 71.98L740.444 72.092C740.509 72.2367 740.561 72.3907 740.598 72.554C740.635 72.7127 740.654 72.8807 740.654 73.058C740.654 73.408 740.586 73.7253 740.451 74.01C740.316 74.29 740.129 74.5303 739.891 74.731C739.653 74.9317 739.368 75.0857 739.037 75.193C738.71 75.3003 738.351 75.354 737.959 75.354C737.637 75.354 737.336 75.319 737.056 75.249C736.916 75.333 736.809 75.4263 736.734 75.529C736.664 75.627 736.629 75.725 736.629 75.823C736.629 75.9863 736.697 76.1077 736.832 76.187C736.972 76.2663 737.152 76.3247 737.371 76.362C737.595 76.3947 737.849 76.4157 738.134 76.425C738.423 76.4343 738.715 76.4507 739.009 76.474C739.308 76.4927 739.599 76.53 739.884 76.586C740.173 76.6373 740.428 76.7237 740.647 76.845C740.871 76.9617 741.051 77.125 741.186 77.335C741.326 77.5403 741.396 77.8087 741.396 78.14C741.396 78.448 741.319 78.7467 741.165 79.036C741.016 79.3253 740.796 79.582 740.507 79.806C740.218 80.03 739.865 80.2097 739.45 80.345C739.035 80.4803 738.563 80.548 738.036 80.548C737.509 80.548 737.049 80.4967 736.657 80.394C736.27 80.2913 735.945 80.1537 735.684 79.981C735.427 79.8083 735.234 79.6077 735.103 79.379C734.977 79.1503 734.914 78.9123 734.914 78.665C734.914 78.3197 735.021 78.028 735.236 77.79C735.451 77.5473 735.747 77.3583 736.125 77.223C735.92 77.1297 735.756 77.0037 735.635 76.845C735.514 76.6817 735.453 76.467 735.453 76.201C735.453 76.0983 735.472 75.9933 735.509 75.886C735.546 75.774 735.602 75.6643 735.677 75.557C735.756 75.445 735.852 75.34 735.964 75.242C736.081 75.144 736.214 75.0553 736.363 74.976C736.013 74.78 735.738 74.521 735.537 74.199C735.336 73.8723 735.236 73.492 735.236 73.058C735.236 72.708 735.304 72.393 735.439 72.113C735.574 71.833 735.761 71.5927 735.999 71.392C736.242 71.1913 736.529 71.0373 736.86 70.93C737.196 70.8227 737.562 70.769 737.959 70.769C738.575 70.769 739.105 70.8973 739.548 71.154H741.522ZM744.265 71.875C744.419 71.7117 744.58 71.5623 744.748 71.427C744.916 71.2917 745.094 71.1773 745.28 71.084C745.472 70.986 745.675 70.9113 745.889 70.86C746.109 70.804 746.342 70.776 746.589 70.776C746.981 70.776 747.324 70.8413 747.618 70.972C747.917 71.1027 748.167 71.287 748.367 71.525C748.568 71.7583 748.72 72.0407 748.822 72.372C748.925 72.7033 748.976 73.0697 748.976 73.471V78H747.604V73.471C747.604 72.9623 747.488 72.568 747.254 72.288C747.021 72.0033 746.664 71.861 746.183 71.861C745.833 71.861 745.504 71.945 745.196 72.113C744.893 72.2763 744.611 72.5003 744.349 72.785V78H742.984V70.888H743.803C743.995 70.888 744.114 70.979 744.16 71.161L744.265 71.875ZM755.739 73.653C755.739 73.3823 755.7 73.1327 755.62 72.904C755.546 72.6753 755.434 72.477 755.284 72.309C755.135 72.141 754.953 72.0103 754.738 71.917C754.524 71.8237 754.276 71.777 753.996 71.777C753.422 71.777 752.97 71.9427 752.638 72.274C752.312 72.6053 752.104 73.065 752.015 73.653H755.739ZM756.866 76.985C756.698 77.181 756.505 77.3513 756.285 77.496C756.066 77.636 755.833 77.7503 755.585 77.839C755.338 77.9277 755.081 77.993 754.815 78.035C754.554 78.077 754.295 78.098 754.038 78.098C753.548 78.098 753.093 78.0163 752.673 77.853C752.258 77.685 751.896 77.4423 751.588 77.125C751.285 76.803 751.047 76.4063 750.874 75.935C750.706 75.459 750.622 74.913 750.622 74.297C750.622 73.8023 750.699 73.3427 750.853 72.918C751.007 72.4887 751.227 72.1153 751.511 71.798C751.801 71.4807 752.153 71.231 752.568 71.049C752.984 70.867 753.45 70.776 753.968 70.776C754.402 70.776 754.801 70.8483 755.165 70.993C755.534 71.133 755.851 71.3383 756.117 71.609C756.383 71.8797 756.591 72.2133 756.74 72.61C756.894 73.0067 756.971 73.4593 756.971 73.968C756.971 74.178 756.948 74.3203 756.901 74.395C756.855 74.465 756.768 74.5 756.642 74.5H751.98C751.994 74.9247 752.055 75.2957 752.162 75.613C752.27 75.9257 752.417 76.187 752.603 76.397C752.795 76.607 753.021 76.7633 753.282 76.866C753.544 76.9687 753.835 77.02 754.157 77.02C754.461 77.02 754.722 76.985 754.941 76.915C755.165 76.845 755.357 76.7703 755.515 76.691C755.679 76.607 755.814 76.53 755.921 76.46C756.033 76.39 756.131 76.355 756.215 76.355C756.327 76.355 756.414 76.397 756.474 76.481L756.866 76.985ZM759.937 72.253C760.165 71.7863 760.441 71.42 760.763 71.154C761.085 70.888 761.472 70.755 761.925 70.755C762.079 70.755 762.223 70.7737 762.359 70.811C762.499 70.8437 762.62 70.895 762.723 70.965L762.632 71.994C762.599 72.12 762.522 72.183 762.401 72.183C762.335 72.183 762.237 72.1713 762.107 72.148C761.976 72.12 761.836 72.106 761.687 72.106C761.467 72.106 761.274 72.1387 761.106 72.204C760.938 72.2647 760.786 72.358 760.651 72.484C760.52 72.6053 760.403 72.757 760.301 72.939C760.198 73.1163 760.102 73.3193 760.014 73.548V78H758.649V70.888H759.433C759.582 70.888 759.682 70.916 759.734 70.972C759.79 71.0233 759.829 71.1167 759.853 71.252L759.937 72.253ZM768.137 72.113C768.1 72.1737 768.06 72.218 768.018 72.246C767.976 72.2693 767.923 72.281 767.857 72.281C767.783 72.281 767.699 72.2553 767.605 72.204C767.517 72.1527 767.407 72.0967 767.276 72.036C767.15 71.9753 767.001 71.9193 766.828 71.868C766.656 71.8167 766.45 71.791 766.212 71.791C766.016 71.791 765.837 71.8167 765.673 71.868C765.515 71.9147 765.379 71.9823 765.267 72.071C765.155 72.155 765.069 72.2577 765.008 72.379C764.948 72.4957 764.917 72.6217 764.917 72.757C764.917 72.9343 764.969 73.0813 765.071 73.198C765.179 73.3147 765.316 73.415 765.484 73.499C765.657 73.583 765.851 73.66 766.065 73.73C766.285 73.7953 766.506 73.8653 766.73 73.94C766.959 74.0147 767.181 74.101 767.395 74.199C767.615 74.2923 767.808 74.4113 767.976 74.556C768.149 74.696 768.287 74.8663 768.389 75.067C768.497 75.2677 768.55 75.5127 768.55 75.802C768.55 76.1333 768.49 76.4413 768.368 76.726C768.252 77.006 768.077 77.2487 767.843 77.454C767.615 77.6593 767.33 77.8203 766.989 77.937C766.649 78.0537 766.259 78.112 765.82 78.112C765.33 78.112 764.878 78.0303 764.462 77.867C764.047 77.7037 763.699 77.496 763.419 77.244L763.741 76.719C763.779 76.6537 763.825 76.6047 763.881 76.572C763.937 76.5347 764.012 76.516 764.105 76.516C764.194 76.516 764.285 76.5487 764.378 76.614C764.472 76.6793 764.584 76.7517 764.714 76.831C764.845 76.9057 765.004 76.9757 765.19 77.041C765.377 77.1017 765.61 77.132 765.89 77.132C766.124 77.132 766.327 77.104 766.499 77.048C766.672 76.9873 766.814 76.908 766.926 76.81C767.043 76.7073 767.129 76.5907 767.185 76.46C767.241 76.3293 767.269 76.1917 767.269 76.047C767.269 75.8603 767.216 75.7063 767.108 75.585C767.006 75.459 766.868 75.3517 766.695 75.263C766.527 75.1743 766.334 75.0973 766.114 75.032C765.895 74.9667 765.671 74.8967 765.442 74.822C765.214 74.7473 764.99 74.661 764.77 74.563C764.551 74.465 764.355 74.3413 764.182 74.192C764.014 74.0427 763.877 73.8607 763.769 73.646C763.667 73.4313 763.615 73.17 763.615 72.862C763.615 72.5867 763.671 72.323 763.783 72.071C763.9 71.819 764.066 71.5973 764.28 71.406C764.5 71.2147 764.768 71.063 765.085 70.951C765.407 70.8343 765.774 70.776 766.184 70.776C766.656 70.776 767.08 70.8507 767.458 71C767.841 71.1493 768.168 71.3547 768.438 71.616L768.137 72.113ZM783.593 70.888L781.304 78H780.212C780.082 78 779.993 77.9137 779.946 77.741L778.448 73.107C778.411 72.9903 778.378 72.876 778.35 72.764C778.322 72.6473 778.297 72.5307 778.273 72.414C778.231 72.6567 778.173 72.8923 778.098 73.121L776.579 77.741C776.533 77.9137 776.432 78 776.278 78H775.242L772.946 70.888H774.024C774.132 70.888 774.22 70.9137 774.29 70.965C774.365 71.0163 774.414 71.0817 774.437 71.161L775.718 75.529C775.76 75.7063 775.798 75.879 775.83 76.047C775.863 76.215 775.893 76.383 775.921 76.551C775.963 76.383 776.008 76.215 776.054 76.047C776.106 75.879 776.157 75.7063 776.208 75.529L777.629 71.133C777.653 71.0537 777.697 70.9907 777.762 70.944C777.828 70.8927 777.907 70.867 778 70.867H778.595C778.698 70.867 778.782 70.8927 778.847 70.944C778.917 70.9907 778.964 71.0537 778.987 71.133L780.373 75.529C780.425 75.7063 780.474 75.8813 780.52 76.054C780.567 76.222 780.609 76.3923 780.646 76.565C780.674 76.397 780.707 76.229 780.744 76.061C780.782 75.8883 780.824 75.711 780.87 75.529L782.172 71.161C782.196 71.0817 782.242 71.0163 782.312 70.965C782.387 70.9137 782.471 70.888 782.564 70.888H783.593ZM786.387 70.888V78H785.022V70.888H786.387ZM786.646 68.69C786.646 68.816 786.621 68.9373 786.569 69.054C786.518 69.166 786.448 69.2663 786.359 69.355C786.275 69.439 786.175 69.5067 786.058 69.558C785.942 69.6047 785.82 69.628 785.694 69.628C785.568 69.628 785.449 69.6047 785.337 69.558C785.225 69.5067 785.125 69.439 785.036 69.355C784.952 69.2663 784.885 69.166 784.833 69.054C784.787 68.9373 784.763 68.816 784.763 68.69C784.763 68.5593 784.787 68.438 784.833 68.326C784.885 68.2093 784.952 68.109 785.036 68.025C785.125 67.9363 785.225 67.8687 785.337 67.822C785.449 67.7707 785.568 67.745 785.694 67.745C785.82 67.745 785.942 67.7707 786.058 67.822C786.175 67.8687 786.275 67.9363 786.359 68.025C786.448 68.109 786.518 68.2093 786.569 68.326C786.621 68.438 786.646 68.5593 786.646 68.69ZM789.974 67.668V78H788.602V67.668H789.974ZM793.533 67.668V78H792.161V67.668H793.533ZM804.428 72.218C804.386 72.2693 804.344 72.3113 804.302 72.344C804.264 72.372 804.208 72.386 804.134 72.386C804.059 72.386 803.98 72.358 803.896 72.302C803.816 72.2413 803.714 72.1783 803.588 72.113C803.466 72.043 803.317 71.98 803.14 71.924C802.967 71.8633 802.752 71.833 802.496 71.833C802.16 71.833 801.863 71.8937 801.607 72.015C801.35 72.1363 801.135 72.309 800.963 72.533C800.795 72.757 800.666 73.03 800.578 73.352C800.489 73.674 800.445 74.0357 800.445 74.437C800.445 74.8523 800.491 75.2233 800.585 75.55C800.678 75.872 800.811 76.145 800.984 76.369C801.156 76.5883 801.366 76.7563 801.614 76.873C801.861 76.985 802.136 77.041 802.44 77.041C802.734 77.041 802.976 77.006 803.168 76.936C803.359 76.8613 803.518 76.782 803.644 76.698C803.77 76.614 803.875 76.537 803.959 76.467C804.043 76.3923 804.129 76.355 804.218 76.355C804.33 76.355 804.416 76.397 804.477 76.481L804.869 76.985C804.705 77.1857 804.521 77.356 804.316 77.496C804.115 77.636 803.9 77.7503 803.672 77.839C803.443 77.9277 803.203 77.993 802.951 78.035C802.703 78.077 802.451 78.098 802.195 78.098C801.751 78.098 801.336 78.0163 800.949 77.853C800.566 77.6897 800.232 77.4517 799.948 77.139C799.668 76.8263 799.446 76.4437 799.283 75.991C799.119 75.5337 799.038 75.0157 799.038 74.437C799.038 73.9097 799.11 73.422 799.255 72.974C799.404 72.526 799.621 72.141 799.906 71.819C800.195 71.4923 800.55 71.238 800.97 71.056C801.39 70.8693 801.87 70.776 802.412 70.776C802.92 70.776 803.368 70.8577 803.756 71.021C804.143 71.1843 804.488 71.4153 804.792 71.714L804.428 72.218ZM807.641 72.253C807.87 71.7863 808.145 71.42 808.467 71.154C808.789 70.888 809.176 70.755 809.629 70.755C809.783 70.755 809.928 70.7737 810.063 70.811C810.203 70.8437 810.324 70.895 810.427 70.965L810.336 71.994C810.303 72.12 810.226 72.183 810.105 72.183C810.04 72.183 809.942 72.1713 809.811 72.148C809.68 72.12 809.54 72.106 809.391 72.106C809.172 72.106 808.978 72.1387 808.81 72.204C808.642 72.2647 808.49 72.358 808.355 72.484C808.224 72.6053 808.108 72.757 808.005 72.939C807.902 73.1163 807.807 73.3193 807.718 73.548V78H806.353V70.888H807.137C807.286 70.888 807.387 70.916 807.438 70.972C807.494 71.0233 807.534 71.1167 807.557 71.252L807.641 72.253ZM816.141 73.653C816.141 73.3823 816.101 73.1327 816.022 72.904C815.947 72.6753 815.835 72.477 815.686 72.309C815.537 72.141 815.355 72.0103 815.14 71.917C814.925 71.8237 814.678 71.777 814.398 71.777C813.824 71.777 813.371 71.9427 813.04 72.274C812.713 72.6053 812.506 73.065 812.417 73.653H816.141ZM817.268 76.985C817.1 77.181 816.906 77.3513 816.687 77.496C816.468 77.636 816.234 77.7503 815.987 77.839C815.74 77.9277 815.483 77.993 815.217 78.035C814.956 78.077 814.697 78.098 814.44 78.098C813.95 78.098 813.495 78.0163 813.075 77.853C812.66 77.685 812.298 77.4423 811.99 77.125C811.687 76.803 811.449 76.4063 811.276 75.935C811.108 75.459 811.024 74.913 811.024 74.297C811.024 73.8023 811.101 73.3427 811.255 72.918C811.409 72.4887 811.628 72.1153 811.913 71.798C812.202 71.4807 812.555 71.231 812.97 71.049C813.385 70.867 813.852 70.776 814.37 70.776C814.804 70.776 815.203 70.8483 815.567 70.993C815.936 71.133 816.253 71.3383 816.519 71.609C816.785 71.8797 816.993 72.2133 817.142 72.61C817.296 73.0067 817.373 73.4593 817.373 73.968C817.373 74.178 817.35 74.3203 817.303 74.395C817.256 74.465 817.17 74.5 817.044 74.5H812.382C812.396 74.9247 812.457 75.2957 812.564 75.613C812.671 75.9257 812.818 76.187 813.005 76.397C813.196 76.607 813.423 76.7633 813.684 76.866C813.945 76.9687 814.237 77.02 814.559 77.02C814.862 77.02 815.124 76.985 815.343 76.915C815.567 76.845 815.758 76.7703 815.917 76.691C816.08 76.607 816.216 76.53 816.323 76.46C816.435 76.39 816.533 76.355 816.617 76.355C816.729 76.355 816.815 76.397 816.876 76.481L817.268 76.985ZM822.872 74.843C822.317 74.8617 821.846 74.906 821.458 74.976C821.071 75.0413 820.756 75.13 820.513 75.242C820.271 75.354 820.096 75.487 819.988 75.641C819.881 75.7903 819.827 75.9583 819.827 76.145C819.827 76.3223 819.855 76.4763 819.911 76.607C819.972 76.733 820.051 76.838 820.149 76.922C820.252 77.0013 820.371 77.0597 820.506 77.097C820.642 77.1343 820.789 77.153 820.947 77.153C821.157 77.153 821.349 77.132 821.521 77.09C821.699 77.048 821.864 76.9897 822.018 76.915C822.172 76.8357 822.319 76.74 822.459 76.628C822.599 76.516 822.737 76.3877 822.872 76.243V74.843ZM818.868 71.882C819.265 71.504 819.694 71.2217 820.156 71.035C820.623 70.8483 821.134 70.755 821.689 70.755C822.095 70.755 822.455 70.8227 822.767 70.958C823.08 71.0887 823.344 71.273 823.558 71.511C823.773 71.749 823.934 72.0337 824.041 72.365C824.153 72.6963 824.209 73.0627 824.209 73.464V78H823.6C823.465 78 823.362 77.979 823.292 77.937C823.222 77.8903 823.166 77.8063 823.124 77.685L822.977 77.062C822.795 77.23 822.616 77.3793 822.438 77.51C822.261 77.636 822.074 77.7457 821.878 77.839C821.687 77.9277 821.482 77.9953 821.262 78.042C821.043 78.0887 820.8 78.112 820.534 78.112C820.254 78.112 819.991 78.0747 819.743 78C819.501 77.9207 819.288 77.8017 819.106 77.643C818.924 77.4843 818.78 77.286 818.672 77.048C818.57 76.81 818.518 76.5323 818.518 76.215C818.518 75.935 818.593 75.6667 818.742 75.41C818.896 75.1487 819.144 74.9153 819.484 74.71C819.83 74.5047 820.278 74.3367 820.828 74.206C821.384 74.0753 822.065 74.0007 822.872 73.982V73.464C822.872 72.9273 822.758 72.526 822.529 72.26C822.301 71.994 821.965 71.861 821.521 71.861C821.223 71.861 820.971 71.8983 820.765 71.973C820.565 72.0477 820.39 72.1317 820.24 72.225C820.096 72.3137 819.967 72.3953 819.855 72.47C819.748 72.5447 819.636 72.582 819.519 72.582C819.426 72.582 819.344 72.5563 819.274 72.505C819.209 72.4537 819.155 72.393 819.113 72.323L818.868 71.882ZM828.377 78.112C827.803 78.112 827.36 77.951 827.047 77.629C826.739 77.307 826.585 76.8473 826.585 76.25V71.994H825.759C825.68 71.994 825.612 71.9707 825.556 71.924C825.505 71.8727 825.479 71.798 825.479 71.7V71.147L826.634 70.986L826.942 68.865C826.961 68.7857 826.996 68.725 827.047 68.683C827.103 68.6363 827.173 68.613 827.257 68.613H827.95V71H829.966V71.994H827.95V76.159C827.95 76.439 828.018 76.649 828.153 76.789C828.293 76.9243 828.47 76.992 828.685 76.992C828.811 76.992 828.918 76.9757 829.007 76.943C829.1 76.9103 829.18 76.8753 829.245 76.838C829.31 76.796 829.366 76.7587 829.413 76.726C829.46 76.6933 829.502 76.677 829.539 76.677C829.586 76.677 829.621 76.6887 829.644 76.712C829.672 76.7307 829.7 76.7633 829.728 76.81L830.134 77.468C829.91 77.6733 829.644 77.832 829.336 77.944C829.028 78.056 828.708 78.112 828.377 78.112ZM836.103 73.653C836.103 73.3823 836.064 73.1327 835.984 72.904C835.91 72.6753 835.798 72.477 835.648 72.309C835.499 72.141 835.317 72.0103 835.102 71.917C834.888 71.8237 834.64 71.777 834.36 71.777C833.786 71.777 833.334 71.9427 833.002 72.274C832.676 72.6053 832.468 73.065 832.379 73.653H836.103ZM837.23 76.985C837.062 77.181 836.869 77.3513 836.649 77.496C836.43 77.636 836.197 77.7503 835.949 77.839C835.702 77.9277 835.445 77.993 835.179 78.035C834.918 78.077 834.659 78.098 834.402 78.098C833.912 78.098 833.457 78.0163 833.037 77.853C832.622 77.685 832.26 77.4423 831.952 77.125C831.649 76.803 831.411 76.4063 831.238 75.935C831.07 75.459 830.986 74.913 830.986 74.297C830.986 73.8023 831.063 73.3427 831.217 72.918C831.371 72.4887 831.591 72.1153 831.875 71.798C832.165 71.4807 832.517 71.231 832.932 71.049C833.348 70.867 833.814 70.776 834.332 70.776C834.766 70.776 835.165 70.8483 835.529 70.993C835.898 71.133 836.215 71.3383 836.481 71.609C836.747 71.8797 836.955 72.2133 837.104 72.61C837.258 73.0067 837.335 73.4593 837.335 73.968C837.335 74.178 837.312 74.3203 837.265 74.395C837.219 74.465 837.132 74.5 837.006 74.5H832.344C832.358 74.9247 832.419 75.2957 832.526 75.613C832.634 75.9257 832.781 76.187 832.967 76.397C833.159 76.607 833.385 76.7633 833.646 76.866C833.908 76.9687 834.199 77.02 834.521 77.02C834.825 77.02 835.086 76.985 835.305 76.915C835.529 76.845 835.721 76.7703 835.879 76.691C836.043 76.607 836.178 76.53 836.285 76.46C836.397 76.39 836.495 76.355 836.579 76.355C836.691 76.355 836.778 76.397 836.838 76.481L837.23 76.985ZM845.794 70.776C846.317 70.776 846.788 70.8623 847.208 71.035C847.633 71.203 847.992 71.448 848.286 71.77C848.585 72.0873 848.814 72.4723 848.972 72.925C849.131 73.373 849.21 73.877 849.21 74.437C849.21 74.997 849.131 75.5033 848.972 75.956C848.814 76.4087 848.585 76.7937 848.286 77.111C847.992 77.4283 847.633 77.6733 847.208 77.846C846.788 78.014 846.317 78.098 845.794 78.098C845.267 78.098 844.791 78.014 844.366 77.846C843.946 77.6733 843.587 77.4283 843.288 77.111C842.99 76.7937 842.759 76.4087 842.595 75.956C842.437 75.5033 842.357 74.997 842.357 74.437C842.357 73.877 842.437 73.373 842.595 72.925C842.759 72.4723 842.99 72.0873 843.288 71.77C843.587 71.448 843.946 71.203 844.366 71.035C844.791 70.8623 845.267 70.776 845.794 70.776ZM845.794 77.034C846.466 77.034 846.968 76.8077 847.299 76.355C847.631 75.9023 847.796 75.2653 847.796 74.444C847.796 73.6227 847.631 72.9857 847.299 72.533C846.968 72.0757 846.466 71.847 845.794 71.847C845.113 71.847 844.604 72.0757 844.268 72.533C843.937 72.9857 843.771 73.6227 843.771 74.444C843.771 75.2653 843.937 75.9023 844.268 76.355C844.604 76.8077 845.113 77.034 845.794 77.034ZM852.225 71.875C852.379 71.7117 852.54 71.5623 852.708 71.427C852.876 71.2917 853.053 71.1773 853.24 71.084C853.431 70.986 853.634 70.9113 853.849 70.86C854.068 70.804 854.302 70.776 854.549 70.776C854.941 70.776 855.284 70.8413 855.578 70.972C855.877 71.1027 856.126 71.287 856.327 71.525C856.528 71.7583 856.679 72.0407 856.782 72.372C856.885 72.7033 856.936 73.0697 856.936 73.471V78H855.564V73.471C855.564 72.9623 855.447 72.568 855.214 72.288C854.981 72.0033 854.624 71.861 854.143 71.861C853.793 71.861 853.464 71.945 853.156 72.113C852.853 72.2763 852.57 72.5003 852.309 72.785V78H850.944V70.888H851.763C851.954 70.888 852.073 70.979 852.12 71.161L852.225 71.875ZM863.699 73.653C863.699 73.3823 863.659 73.1327 863.58 72.904C863.505 72.6753 863.393 72.477 863.244 72.309C863.095 72.141 862.913 72.0103 862.698 71.917C862.483 71.8237 862.236 71.777 861.956 71.777C861.382 71.777 860.929 71.9427 860.598 72.274C860.271 72.6053 860.064 73.065 859.975 73.653H863.699ZM864.826 76.985C864.658 77.181 864.464 77.3513 864.245 77.496C864.026 77.636 863.792 77.7503 863.545 77.839C863.298 77.9277 863.041 77.993 862.775 78.035C862.514 78.077 862.255 78.098 861.998 78.098C861.508 78.098 861.053 78.0163 860.633 77.853C860.218 77.685 859.856 77.4423 859.548 77.125C859.245 76.803 859.007 76.4063 858.834 75.935C858.666 75.459 858.582 74.913 858.582 74.297C858.582 73.8023 858.659 73.3427 858.813 72.918C858.967 72.4887 859.186 72.1153 859.471 71.798C859.76 71.4807 860.113 71.231 860.528 71.049C860.943 70.867 861.41 70.776 861.928 70.776C862.362 70.776 862.761 70.8483 863.125 70.993C863.494 71.133 863.811 71.3383 864.077 71.609C864.343 71.8797 864.551 72.2133 864.7 72.61C864.854 73.0067 864.931 73.4593 864.931 73.968C864.931 74.178 864.908 74.3203 864.861 74.395C864.814 74.465 864.728 74.5 864.602 74.5H859.94C859.954 74.9247 860.015 75.2957 860.122 75.613C860.229 75.9257 860.376 76.187 860.563 76.397C860.754 76.607 860.981 76.7633 861.242 76.866C861.503 76.9687 861.795 77.02 862.117 77.02C862.42 77.02 862.682 76.985 862.901 76.915C863.125 76.845 863.316 76.7703 863.475 76.691C863.638 76.607 863.774 76.53 863.881 76.46C863.993 76.39 864.091 76.355 864.175 76.355C864.287 76.355 864.373 76.397 864.434 76.481L864.826 76.985ZM870.828 78V72.008L870.086 71.917C869.979 71.8937 869.89 71.8563 869.82 71.805C869.755 71.749 869.722 71.6697 869.722 71.567V71H870.828V70.356C870.828 69.95 870.887 69.5883 871.003 69.271C871.12 68.9537 871.286 68.6853 871.5 68.466C871.72 68.242 871.981 68.074 872.284 67.962C872.592 67.8453 872.938 67.787 873.32 67.787C873.642 67.787 873.939 67.8337 874.209 67.927L874.181 68.613C874.177 68.6737 874.158 68.7203 874.125 68.753C874.093 68.781 874.048 68.802 873.992 68.816C873.941 68.83 873.876 68.8393 873.796 68.844C873.722 68.844 873.64 68.844 873.551 68.844C873.341 68.844 873.15 68.8697 872.977 68.921C872.805 68.9723 872.658 69.0587 872.536 69.18C872.415 69.3013 872.322 69.4623 872.256 69.663C872.191 69.859 872.158 70.104 872.158 70.398V71H874.153V71.994H872.2V78H870.828ZM878.317 70.776C878.84 70.776 879.311 70.8623 879.731 71.035C880.156 71.203 880.515 71.448 880.809 71.77C881.108 72.0873 881.336 72.4723 881.495 72.925C881.654 73.373 881.733 73.877 881.733 74.437C881.733 74.997 881.654 75.5033 881.495 75.956C881.336 76.4087 881.108 76.7937 880.809 77.111C880.515 77.4283 880.156 77.6733 879.731 77.846C879.311 78.014 878.84 78.098 878.317 78.098C877.79 78.098 877.314 78.014 876.889 77.846C876.469 77.6733 876.11 77.4283 875.811 77.111C875.512 76.7937 875.281 76.4087 875.118 75.956C874.959 75.5033 874.88 74.997 874.88 74.437C874.88 73.877 874.959 73.373 875.118 72.925C875.281 72.4723 875.512 72.0873 875.811 71.77C876.11 71.448 876.469 71.203 876.889 71.035C877.314 70.8623 877.79 70.776 878.317 70.776ZM878.317 77.034C878.989 77.034 879.491 76.8077 879.822 76.355C880.153 75.9023 880.319 75.2653 880.319 74.444C880.319 73.6227 880.153 72.9857 879.822 72.533C879.491 72.0757 878.989 71.847 878.317 71.847C877.636 71.847 877.127 72.0757 876.791 72.533C876.46 72.9857 876.294 73.6227 876.294 74.444C876.294 75.2653 876.46 75.9023 876.791 76.355C877.127 76.8077 877.636 77.034 878.317 77.034ZM884.755 72.253C884.983 71.7863 885.259 71.42 885.581 71.154C885.903 70.888 886.29 70.755 886.743 70.755C886.897 70.755 887.041 70.7737 887.177 70.811C887.317 70.8437 887.438 70.895 887.541 70.965L887.45 71.994C887.417 72.12 887.34 72.183 887.219 72.183C887.153 72.183 887.055 72.1713 886.925 72.148C886.794 72.12 886.654 72.106 886.505 72.106C886.285 72.106 886.092 72.1387 885.924 72.204C885.756 72.2647 885.604 72.358 885.469 72.484C885.338 72.6053 885.221 72.757 885.119 72.939C885.016 73.1163 884.92 73.3193 884.832 73.548V78H883.467V70.888H884.251C884.4 70.888 884.5 70.916 884.552 70.972C884.608 71.0233 884.647 71.1167 884.671 71.252L884.755 72.253ZM898.114 70.888L894.166 80.065C894.124 80.1677 894.068 80.247 893.998 80.303C893.928 80.359 893.826 80.387 893.69 80.387H892.675L893.977 77.552L891.058 70.888H892.248C892.365 70.888 892.456 70.916 892.521 70.972C892.587 71.028 892.633 71.091 892.661 71.161L894.467 75.431C894.505 75.5383 894.54 75.648 894.572 75.76C894.61 75.8673 894.64 75.9747 894.663 76.082C894.696 75.97 894.731 75.8603 894.768 75.753C894.806 75.641 894.845 75.5313 894.887 75.424L896.63 71.161C896.663 71.0817 896.714 71.0163 896.784 70.965C896.854 70.9137 896.934 70.888 897.022 70.888H898.114ZM902.194 70.776C902.717 70.776 903.188 70.8623 903.608 71.035C904.033 71.203 904.392 71.448 904.686 71.77C904.985 72.0873 905.213 72.4723 905.372 72.925C905.531 73.373 905.61 73.877 905.61 74.437C905.61 74.997 905.531 75.5033 905.372 75.956C905.213 76.4087 904.985 76.7937 904.686 77.111C904.392 77.4283 904.033 77.6733 903.608 77.846C903.188 78.014 902.717 78.098 902.194 78.098C901.667 78.098 901.191 78.014 900.766 77.846C900.346 77.6733 899.987 77.4283 899.688 77.111C899.389 76.7937 899.158 76.4087 898.995 75.956C898.836 75.5033 898.757 74.997 898.757 74.437C898.757 73.877 898.836 73.373 898.995 72.925C899.158 72.4723 899.389 72.0873 899.688 71.77C899.987 71.448 900.346 71.203 900.766 71.035C901.191 70.8623 901.667 70.776 902.194 70.776ZM902.194 77.034C902.866 77.034 903.368 76.8077 903.699 76.355C904.03 75.9023 904.196 75.2653 904.196 74.444C904.196 73.6227 904.03 72.9857 903.699 72.533C903.368 72.0757 902.866 71.847 902.194 71.847C901.513 71.847 901.004 72.0757 900.668 72.533C900.337 72.9857 900.171 73.6227 900.171 74.444C900.171 75.2653 900.337 75.9023 900.668 76.355C901.004 76.8077 901.513 77.034 902.194 77.034ZM913.259 70.888V78H912.44C912.253 78 912.132 77.909 912.076 77.727L911.978 77.013C911.824 77.1763 911.663 77.3257 911.495 77.461C911.327 77.5963 911.147 77.713 910.956 77.811C910.765 77.9043 910.562 77.9767 910.347 78.028C910.132 78.084 909.901 78.112 909.654 78.112C909.262 78.112 908.917 78.0467 908.618 77.916C908.324 77.7853 908.077 77.6033 907.876 77.37C907.675 77.132 907.524 76.8473 907.421 76.516C907.318 76.1847 907.267 75.8183 907.267 75.417V70.888H908.639V75.417C908.639 75.9257 908.756 76.3223 908.989 76.607C909.222 76.887 909.579 77.027 910.06 77.027C910.41 77.027 910.737 76.9453 911.04 76.782C911.343 76.614 911.628 76.3853 911.894 76.096V70.888H913.259ZM916.977 67.948V71.952C916.977 72.162 916.972 72.3673 916.963 72.568C916.954 72.7687 916.94 72.9717 916.921 73.177C916.907 73.3777 916.888 73.5853 916.865 73.8C916.842 74.0147 916.816 74.241 916.788 74.479H915.864C915.836 74.241 915.81 74.0147 915.787 73.8C915.764 73.5853 915.743 73.3777 915.724 73.177C915.71 72.9717 915.698 72.7687 915.689 72.568C915.68 72.3673 915.675 72.162 915.675 71.952V67.948H916.977ZM915.381 77.181C915.381 77.055 915.404 76.936 915.451 76.824C915.498 76.712 915.563 76.614 915.647 76.53C915.731 76.446 915.829 76.3807 915.941 76.334C916.053 76.2827 916.174 76.257 916.305 76.257C916.431 76.257 916.55 76.2827 916.662 76.334C916.774 76.3807 916.872 76.446 916.956 76.53C917.04 76.614 917.105 76.712 917.152 76.824C917.203 76.936 917.229 77.055 917.229 77.181C917.229 77.3117 917.203 77.433 917.152 77.545C917.105 77.657 917.04 77.755 916.956 77.839C916.872 77.923 916.774 77.9883 916.662 78.035C916.55 78.0817 916.431 78.105 916.305 78.105C916.174 78.105 916.053 78.0817 915.941 78.035C915.829 77.9883 915.731 77.923 915.647 77.839C915.563 77.755 915.498 77.657 915.451 77.545C915.404 77.433 915.381 77.3117 915.381 77.181Z" fill="white"/>
</svg>
