<svg width="345" height="62" viewBox="0 0 345 62" fill="none" xmlns="http://www.w3.org/2000/svg">
<rect opacity="0.25" width="345" height="62" fill="#F2994A"/>
<path d="M47.7693 18.736L47.3553 20.176H50.3613L49.9473 18.736C49.7553 18.112 49.5693 17.47 49.3893 16.81C49.2213 16.15 49.0533 15.496 48.8853 14.848H48.8133C48.6453 15.508 48.4773 16.168 48.3093 16.828C48.1413 17.476 47.9613 18.112 47.7693 18.736ZM43.8273 25L47.6613 13.228H50.1093L53.9433 25H51.7473L50.8293 21.814H46.8693L45.9513 25H43.8273ZM57.2304 25.216C56.4864 25.216 55.9644 24.994 55.6644 24.55C55.3644 24.106 55.2144 23.5 55.2144 22.732V12.292H57.2844V22.84C57.2844 23.092 57.3324 23.272 57.4284 23.38C57.5244 23.476 57.6264 23.524 57.7344 23.524C57.7824 23.524 57.8244 23.524 57.8604 23.524C57.9084 23.524 57.9744 23.512 58.0584 23.488L58.3284 25.036C58.0524 25.156 57.6864 25.216 57.2304 25.216ZM62.5671 25.216C61.9551 25.216 61.3491 25.102 60.7491 24.874C60.1611 24.634 59.6511 24.34 59.2191 23.992L60.1911 22.66C60.5871 22.972 60.9771 23.218 61.3611 23.398C61.7571 23.566 62.1831 23.65 62.6391 23.65C63.1191 23.65 63.4731 23.554 63.7011 23.362C63.9291 23.158 64.0431 22.9 64.0431 22.588C64.0431 22.408 63.9891 22.252 63.8811 22.12C63.7731 21.976 63.6291 21.85 63.4491 21.742C63.2691 21.634 63.0651 21.538 62.8371 21.454C62.6091 21.358 62.3811 21.262 62.1531 21.166C61.8651 21.058 61.5711 20.932 61.2711 20.788C60.9711 20.644 60.7011 20.47 60.4611 20.266C60.2331 20.062 60.0411 19.828 59.8851 19.564C59.7411 19.288 59.6691 18.964 59.6691 18.592C59.6691 17.812 59.9571 17.176 60.5331 16.684C61.1091 16.192 61.8951 15.946 62.8911 15.946C63.5031 15.946 64.0551 16.054 64.5471 16.27C65.0391 16.486 65.4651 16.732 65.8251 17.008L64.8711 18.268C64.5591 18.04 64.2411 17.86 63.9171 17.728C63.6051 17.584 63.2751 17.512 62.9271 17.512C62.4831 17.512 62.1531 17.608 61.9371 17.8C61.7331 17.98 61.6311 18.208 61.6311 18.484C61.6311 18.664 61.6791 18.82 61.7751 18.952C61.8831 19.072 62.0211 19.18 62.1891 19.276C62.3571 19.372 62.5491 19.462 62.7651 19.546C62.9931 19.63 63.2271 19.714 63.4671 19.798C63.7671 19.906 64.0671 20.032 64.3671 20.176C64.6671 20.308 64.9371 20.476 65.1771 20.68C65.4291 20.884 65.6271 21.136 65.7711 21.436C65.9271 21.724 66.0051 22.072 66.0051 22.48C66.0051 22.864 65.9271 23.224 65.7711 23.56C65.6271 23.884 65.4111 24.172 65.1231 24.424C64.8351 24.664 64.4751 24.856 64.0431 25C63.6111 25.144 63.1191 25.216 62.5671 25.216ZM71.4711 25.216C70.9191 25.216 70.3911 25.114 69.8871 24.91C69.3831 24.706 68.9331 24.406 68.5371 24.01C68.1531 23.614 67.8471 23.128 67.6191 22.552C67.3911 21.976 67.2771 21.322 67.2771 20.59C67.2771 19.858 67.3911 19.204 67.6191 18.628C67.8471 18.052 68.1531 17.566 68.5371 17.17C68.9331 16.774 69.3831 16.474 69.8871 16.27C70.3911 16.054 70.9191 15.946 71.4711 15.946C72.0231 15.946 72.5511 16.054 73.0551 16.27C73.5711 16.474 74.0211 16.774 74.4051 17.17C74.7891 17.566 75.0951 18.052 75.3231 18.628C75.5631 19.204 75.6831 19.858 75.6831 20.59C75.6831 21.322 75.5631 21.976 75.3231 22.552C75.0951 23.128 74.7891 23.614 74.4051 24.01C74.0211 24.406 73.5711 24.706 73.0551 24.91C72.5511 25.114 72.0231 25.216 71.4711 25.216ZM71.4711 23.524C72.1191 23.524 72.6291 23.26 73.0011 22.732C73.3731 22.192 73.5591 21.478 73.5591 20.59C73.5591 19.69 73.3731 18.976 73.0011 18.448C72.6291 17.908 72.1191 17.638 71.4711 17.638C70.8231 17.638 70.3131 17.908 69.9411 18.448C69.5811 18.976 69.4011 19.69 69.4011 20.59C69.4011 21.478 69.5811 22.192 69.9411 22.732C70.3131 23.26 70.8231 23.524 71.4711 23.524ZM83.4775 25.216C82.6975 25.216 82.0675 24.982 81.5875 24.514C81.1075 24.034 80.8675 23.404 80.8675 22.624C80.8675 22.156 80.9635 21.742 81.1555 21.382C81.3595 21.01 81.6715 20.692 82.0915 20.428C82.5235 20.164 83.0635 19.942 83.7115 19.762C84.3715 19.582 85.1575 19.444 86.0695 19.348C86.0575 19.12 86.0215 18.904 85.9615 18.7C85.9135 18.484 85.8235 18.298 85.6915 18.142C85.5715 17.974 85.4095 17.848 85.2055 17.764C85.0015 17.668 84.7495 17.62 84.4495 17.62C84.0175 17.62 83.5915 17.704 83.1715 17.872C82.7635 18.04 82.3615 18.244 81.9655 18.484L81.2095 17.098C81.7015 16.786 82.2535 16.516 82.8655 16.288C83.4775 16.06 84.1375 15.946 84.8455 15.946C85.9495 15.946 86.7715 16.276 87.3115 16.936C87.8635 17.584 88.1395 18.526 88.1395 19.762V25H86.4295L86.2855 24.028H86.2135C85.8175 24.364 85.3915 24.646 84.9355 24.874C84.4915 25.102 84.0055 25.216 83.4775 25.216ZM84.1435 23.596C84.5035 23.596 84.8275 23.512 85.1155 23.344C85.4155 23.176 85.7335 22.936 86.0695 22.624V20.644C85.4695 20.716 84.9655 20.812 84.5575 20.932C84.1495 21.052 83.8195 21.19 83.5675 21.346C83.3155 21.49 83.1355 21.658 83.0275 21.85C82.9195 22.042 82.8655 22.246 82.8655 22.462C82.8655 22.858 82.9855 23.146 83.2255 23.326C83.4655 23.506 83.7715 23.596 84.1435 23.596ZM92.5967 25L89.5187 16.162H91.6247L93.0287 20.752C93.1487 21.184 93.2687 21.622 93.3887 22.066C93.5207 22.51 93.6467 22.96 93.7667 23.416H93.8387C93.9707 22.96 94.0967 22.51 94.2167 22.066C94.3367 21.622 94.4627 21.184 94.5947 20.752L95.9987 16.162H97.9967L94.9907 25H92.5967ZM101.319 25.216C100.539 25.216 99.9093 24.982 99.4293 24.514C98.9493 24.034 98.7093 23.404 98.7093 22.624C98.7093 22.156 98.8053 21.742 98.9973 21.382C99.2013 21.01 99.5133 20.692 99.9333 20.428C100.365 20.164 100.905 19.942 101.553 19.762C102.213 19.582 102.999 19.444 103.911 19.348C103.899 19.12 103.863 18.904 103.803 18.7C103.755 18.484 103.665 18.298 103.533 18.142C103.413 17.974 103.251 17.848 103.047 17.764C102.843 17.668 102.591 17.62 102.291 17.62C101.859 17.62 101.433 17.704 101.013 17.872C100.605 18.04 100.203 18.244 99.8073 18.484L99.0513 17.098C99.5433 16.786 100.095 16.516 100.707 16.288C101.319 16.06 101.979 15.946 102.687 15.946C103.791 15.946 104.613 16.276 105.153 16.936C105.705 17.584 105.981 18.526 105.981 19.762V25H104.271L104.127 24.028H104.055C103.659 24.364 103.233 24.646 102.777 24.874C102.333 25.102 101.847 25.216 101.319 25.216ZM101.985 23.596C102.345 23.596 102.669 23.512 102.957 23.344C103.257 23.176 103.575 22.936 103.911 22.624V20.644C103.311 20.716 102.807 20.812 102.399 20.932C101.991 21.052 101.661 21.19 101.409 21.346C101.157 21.49 100.977 21.658 100.869 21.85C100.761 22.042 100.707 22.246 100.707 22.462C100.707 22.858 100.827 23.146 101.067 23.326C101.307 23.506 101.613 23.596 101.985 23.596ZM108.459 25V16.162H110.529V25H108.459ZM109.503 14.614C109.131 14.614 108.825 14.506 108.585 14.29C108.345 14.074 108.225 13.792 108.225 13.444C108.225 13.096 108.345 12.814 108.585 12.598C108.825 12.37 109.131 12.256 109.503 12.256C109.875 12.256 110.181 12.37 110.421 12.598C110.661 12.814 110.781 13.096 110.781 13.444C110.781 13.792 110.661 14.074 110.421 14.29C110.181 14.506 109.875 14.614 109.503 14.614ZM115.185 25.216C114.441 25.216 113.919 24.994 113.619 24.55C113.319 24.106 113.169 23.5 113.169 22.732V12.292H115.239V22.84C115.239 23.092 115.287 23.272 115.383 23.38C115.479 23.476 115.581 23.524 115.689 23.524C115.737 23.524 115.779 23.524 115.815 23.524C115.863 23.524 115.929 23.512 116.013 23.488L116.283 25.036C116.007 25.156 115.641 25.216 115.185 25.216ZM120.198 25.216C119.418 25.216 118.788 24.982 118.308 24.514C117.828 24.034 117.588 23.404 117.588 22.624C117.588 22.156 117.684 21.742 117.876 21.382C118.08 21.01 118.392 20.692 118.812 20.428C119.244 20.164 119.784 19.942 120.432 19.762C121.092 19.582 121.878 19.444 122.79 19.348C122.778 19.12 122.742 18.904 122.682 18.7C122.634 18.484 122.544 18.298 122.412 18.142C122.292 17.974 122.13 17.848 121.926 17.764C121.722 17.668 121.47 17.62 121.17 17.62C120.738 17.62 120.312 17.704 119.892 17.872C119.484 18.04 119.082 18.244 118.686 18.484L117.93 17.098C118.422 16.786 118.974 16.516 119.586 16.288C120.198 16.06 120.858 15.946 121.566 15.946C122.67 15.946 123.492 16.276 124.032 16.936C124.584 17.584 124.86 18.526 124.86 19.762V25H123.15L123.006 24.028H122.934C122.538 24.364 122.112 24.646 121.656 24.874C121.212 25.102 120.726 25.216 120.198 25.216ZM120.864 23.596C121.224 23.596 121.548 23.512 121.836 23.344C122.136 23.176 122.454 22.936 122.79 22.624V20.644C122.19 20.716 121.686 20.812 121.278 20.932C120.87 21.052 120.54 21.19 120.288 21.346C120.036 21.49 119.856 21.658 119.748 21.85C119.64 22.042 119.586 22.246 119.586 22.462C119.586 22.858 119.706 23.146 119.946 23.326C120.186 23.506 120.492 23.596 120.864 23.596ZM131.621 25.216C131.213 25.216 130.799 25.12 130.379 24.928C129.971 24.724 129.581 24.436 129.209 24.064H129.155L128.975 25H127.337V12.292H129.407V15.568L129.353 17.044C129.725 16.72 130.127 16.456 130.559 16.252C131.003 16.048 131.453 15.946 131.909 15.946C132.461 15.946 132.953 16.054 133.385 16.27C133.817 16.474 134.183 16.774 134.483 17.17C134.783 17.554 135.011 18.022 135.167 18.574C135.323 19.126 135.401 19.744 135.401 20.428C135.401 21.184 135.293 21.862 135.077 22.462C134.873 23.05 134.597 23.548 134.249 23.956C133.901 24.364 133.499 24.676 133.043 24.892C132.587 25.108 132.113 25.216 131.621 25.216ZM131.189 23.506C131.777 23.506 132.269 23.254 132.665 22.75C133.061 22.234 133.259 21.472 133.259 20.464C133.259 19.576 133.109 18.886 132.809 18.394C132.509 17.902 132.023 17.656 131.351 17.656C130.727 17.656 130.079 17.986 129.407 18.646V22.768C129.719 23.044 130.025 23.236 130.325 23.344C130.637 23.452 130.925 23.506 131.189 23.506ZM139.496 25.216C138.752 25.216 138.23 24.994 137.93 24.55C137.63 24.106 137.48 23.5 137.48 22.732V12.292H139.55V22.84C139.55 23.092 139.598 23.272 139.694 23.38C139.79 23.476 139.892 23.524 140 23.524C140.048 23.524 140.09 23.524 140.126 23.524C140.174 23.524 140.24 23.512 140.324 23.488L140.594 25.036C140.318 25.156 139.952 25.216 139.496 25.216ZM146.147 25.216C145.535 25.216 144.965 25.114 144.437 24.91C143.909 24.694 143.447 24.388 143.051 23.992C142.655 23.596 142.343 23.116 142.115 22.552C141.899 21.976 141.791 21.322 141.791 20.59C141.791 19.87 141.905 19.222 142.133 18.646C142.361 18.07 142.661 17.584 143.033 17.188C143.417 16.792 143.855 16.486 144.347 16.27C144.839 16.054 145.343 15.946 145.859 15.946C146.459 15.946 146.987 16.048 147.443 16.252C147.899 16.456 148.277 16.744 148.577 17.116C148.889 17.488 149.123 17.932 149.279 18.448C149.435 18.964 149.513 19.528 149.513 20.14C149.513 20.344 149.501 20.536 149.477 20.716C149.465 20.896 149.447 21.04 149.423 21.148H143.807C143.903 21.94 144.179 22.552 144.635 22.984C145.103 23.404 145.697 23.614 146.417 23.614C146.801 23.614 147.155 23.56 147.479 23.452C147.815 23.332 148.145 23.17 148.469 22.966L149.171 24.262C148.751 24.538 148.283 24.766 147.767 24.946C147.251 25.126 146.711 25.216 146.147 25.216ZM143.789 19.744H147.713C147.713 19.06 147.563 18.526 147.263 18.142C146.975 17.746 146.525 17.548 145.913 17.548C145.385 17.548 144.923 17.734 144.527 18.106C144.131 18.478 143.885 19.024 143.789 19.744ZM155.093 25V16.162H157.163V25H155.093ZM156.137 14.614C155.765 14.614 155.459 14.506 155.219 14.29C154.979 14.074 154.859 13.792 154.859 13.444C154.859 13.096 154.979 12.814 155.219 12.598C155.459 12.37 155.765 12.256 156.137 12.256C156.509 12.256 156.815 12.37 157.055 12.598C157.295 12.814 157.415 13.096 157.415 13.444C157.415 13.792 157.295 14.074 157.055 14.29C156.815 14.506 156.509 14.614 156.137 14.614ZM159.804 25V16.162H161.514L161.658 17.35H161.73C162.126 16.966 162.552 16.636 163.008 16.36C163.476 16.084 164.016 15.946 164.628 15.946C165.576 15.946 166.266 16.252 166.698 16.864C167.13 17.464 167.346 18.328 167.346 19.456V25H165.276V19.726C165.276 18.994 165.168 18.478 164.952 18.178C164.736 17.878 164.382 17.728 163.89 17.728C163.506 17.728 163.164 17.824 162.864 18.016C162.576 18.196 162.246 18.466 161.874 18.826V25H159.804ZM175.496 25.216C174.752 25.216 174.23 24.994 173.93 24.55C173.63 24.106 173.48 23.5 173.48 22.732V12.292H175.55V22.84C175.55 23.092 175.598 23.272 175.694 23.38C175.79 23.476 175.892 23.524 176 23.524C176.048 23.524 176.09 23.524 176.126 23.524C176.174 23.524 176.24 23.512 176.324 23.488L176.594 25.036C176.318 25.156 175.952 25.216 175.496 25.216ZM180.509 25.216C179.729 25.216 179.099 24.982 178.619 24.514C178.139 24.034 177.899 23.404 177.899 22.624C177.899 22.156 177.995 21.742 178.187 21.382C178.391 21.01 178.703 20.692 179.123 20.428C179.555 20.164 180.095 19.942 180.743 19.762C181.403 19.582 182.189 19.444 183.101 19.348C183.089 19.12 183.053 18.904 182.993 18.7C182.945 18.484 182.855 18.298 182.723 18.142C182.603 17.974 182.441 17.848 182.237 17.764C182.033 17.668 181.781 17.62 181.481 17.62C181.049 17.62 180.623 17.704 180.203 17.872C179.795 18.04 179.393 18.244 178.997 18.484L178.241 17.098C178.733 16.786 179.285 16.516 179.897 16.288C180.509 16.06 181.169 15.946 181.877 15.946C182.981 15.946 183.803 16.276 184.343 16.936C184.895 17.584 185.171 18.526 185.171 19.762V25H183.461L183.317 24.028H183.245C182.849 24.364 182.423 24.646 181.967 24.874C181.523 25.102 181.037 25.216 180.509 25.216ZM181.175 23.596C181.535 23.596 181.859 23.512 182.147 23.344C182.447 23.176 182.765 22.936 183.101 22.624V20.644C182.501 20.716 181.997 20.812 181.589 20.932C181.181 21.052 180.851 21.19 180.599 21.346C180.347 21.49 180.167 21.658 180.059 21.85C179.951 22.042 179.897 22.246 179.897 22.462C179.897 22.858 180.017 23.146 180.257 23.326C180.497 23.506 180.803 23.596 181.175 23.596ZM187.648 25V16.162H189.358L189.502 17.35H189.574C189.97 16.966 190.396 16.636 190.852 16.36C191.32 16.084 191.86 15.946 192.472 15.946C193.42 15.946 194.11 16.252 194.542 16.864C194.974 17.464 195.19 18.328 195.19 19.456V25H193.12V19.726C193.12 18.994 193.012 18.478 192.796 18.178C192.58 17.878 192.226 17.728 191.734 17.728C191.35 17.728 191.008 17.824 190.708 18.016C190.42 18.196 190.09 18.466 189.718 18.826V25H187.648ZM200.798 28.906C200.27 28.906 199.778 28.858 199.322 28.762C198.878 28.666 198.494 28.522 198.17 28.33C197.846 28.138 197.588 27.898 197.396 27.61C197.216 27.322 197.126 26.986 197.126 26.602C197.126 26.23 197.234 25.882 197.45 25.558C197.666 25.246 197.978 24.964 198.386 24.712V24.64C198.158 24.496 197.966 24.304 197.81 24.064C197.666 23.824 197.594 23.524 197.594 23.164C197.594 22.816 197.69 22.504 197.882 22.228C198.086 21.94 198.314 21.706 198.566 21.526V21.454C198.266 21.226 197.996 20.914 197.756 20.518C197.528 20.11 197.414 19.642 197.414 19.114C197.414 18.61 197.51 18.16 197.702 17.764C197.894 17.368 198.146 17.038 198.458 16.774C198.782 16.498 199.154 16.294 199.574 16.162C199.994 16.018 200.438 15.946 200.906 15.946C201.146 15.946 201.374 15.97 201.59 16.018C201.818 16.054 202.022 16.102 202.202 16.162H205.37V17.692H203.75C203.894 17.86 204.014 18.076 204.11 18.34C204.206 18.592 204.254 18.874 204.254 19.186C204.254 19.678 204.164 20.11 203.984 20.482C203.816 20.854 203.582 21.166 203.282 21.418C202.982 21.67 202.628 21.862 202.22 21.994C201.812 22.126 201.374 22.192 200.906 22.192C200.714 22.192 200.516 22.174 200.312 22.138C200.108 22.102 199.904 22.042 199.7 21.958C199.568 22.078 199.46 22.198 199.376 22.318C199.304 22.438 199.268 22.6 199.268 22.804C199.268 23.056 199.37 23.254 199.574 23.398C199.79 23.542 200.168 23.614 200.708 23.614H202.274C203.342 23.614 204.146 23.788 204.686 24.136C205.238 24.472 205.514 25.024 205.514 25.792C205.514 26.224 205.4 26.632 205.172 27.016C204.956 27.4 204.644 27.73 204.236 28.006C203.828 28.282 203.33 28.498 202.742 28.654C202.166 28.822 201.518 28.906 200.798 28.906ZM200.906 20.896C201.326 20.896 201.686 20.746 201.986 20.446C202.286 20.134 202.436 19.69 202.436 19.114C202.436 18.562 202.286 18.136 201.986 17.836C201.698 17.524 201.338 17.368 200.906 17.368C200.474 17.368 200.108 17.518 199.808 17.818C199.508 18.118 199.358 18.55 199.358 19.114C199.358 19.69 199.508 20.134 199.808 20.446C200.108 20.746 200.474 20.896 200.906 20.896ZM201.122 27.556C201.842 27.556 202.418 27.412 202.85 27.124C203.294 26.848 203.516 26.518 203.516 26.134C203.516 25.786 203.378 25.552 203.102 25.432C202.838 25.312 202.454 25.252 201.95 25.252H200.744C200.264 25.252 199.862 25.21 199.538 25.126C199.082 25.474 198.854 25.864 198.854 26.296C198.854 26.692 199.052 26.998 199.448 27.214C199.856 27.442 200.414 27.556 201.122 27.556ZM209.7 25.216C208.752 25.216 208.062 24.916 207.63 24.316C207.198 23.704 206.982 22.834 206.982 21.706V16.162H209.052V21.436C209.052 22.168 209.16 22.684 209.376 22.984C209.592 23.284 209.94 23.434 210.42 23.434C210.804 23.434 211.14 23.338 211.428 23.146C211.728 22.954 212.046 22.642 212.382 22.21V16.162H214.452V25H212.76L212.598 23.704H212.544C212.16 24.16 211.74 24.526 211.284 24.802C210.84 25.078 210.312 25.216 209.7 25.216ZM219.216 25.216C218.436 25.216 217.806 24.982 217.326 24.514C216.846 24.034 216.606 23.404 216.606 22.624C216.606 22.156 216.702 21.742 216.894 21.382C217.098 21.01 217.41 20.692 217.83 20.428C218.262 20.164 218.802 19.942 219.45 19.762C220.11 19.582 220.896 19.444 221.808 19.348C221.796 19.12 221.76 18.904 221.7 18.7C221.652 18.484 221.562 18.298 221.43 18.142C221.31 17.974 221.148 17.848 220.944 17.764C220.74 17.668 220.488 17.62 220.188 17.62C219.756 17.62 219.33 17.704 218.91 17.872C218.502 18.04 218.1 18.244 217.704 18.484L216.948 17.098C217.44 16.786 217.992 16.516 218.604 16.288C219.216 16.06 219.876 15.946 220.584 15.946C221.688 15.946 222.51 16.276 223.05 16.936C223.602 17.584 223.878 18.526 223.878 19.762V25H222.168L222.024 24.028H221.952C221.556 24.364 221.13 24.646 220.674 24.874C220.23 25.102 219.744 25.216 219.216 25.216ZM219.882 23.596C220.242 23.596 220.566 23.512 220.854 23.344C221.154 23.176 221.472 22.936 221.808 22.624V20.644C221.208 20.716 220.704 20.812 220.296 20.932C219.888 21.052 219.558 21.19 219.306 21.346C219.054 21.49 218.874 21.658 218.766 21.85C218.658 22.042 218.604 22.246 218.604 22.462C218.604 22.858 218.724 23.146 218.964 23.326C219.204 23.506 219.51 23.596 219.882 23.596ZM229.433 28.906C228.905 28.906 228.413 28.858 227.957 28.762C227.513 28.666 227.129 28.522 226.805 28.33C226.481 28.138 226.223 27.898 226.031 27.61C225.851 27.322 225.761 26.986 225.761 26.602C225.761 26.23 225.869 25.882 226.085 25.558C226.301 25.246 226.613 24.964 227.021 24.712V24.64C226.793 24.496 226.601 24.304 226.445 24.064C226.301 23.824 226.229 23.524 226.229 23.164C226.229 22.816 226.325 22.504 226.517 22.228C226.721 21.94 226.949 21.706 227.201 21.526V21.454C226.901 21.226 226.631 20.914 226.391 20.518C226.163 20.11 226.049 19.642 226.049 19.114C226.049 18.61 226.145 18.16 226.337 17.764C226.529 17.368 226.781 17.038 227.093 16.774C227.417 16.498 227.789 16.294 228.209 16.162C228.629 16.018 229.073 15.946 229.541 15.946C229.781 15.946 230.009 15.97 230.225 16.018C230.453 16.054 230.657 16.102 230.837 16.162H234.005V17.692H232.385C232.529 17.86 232.649 18.076 232.745 18.34C232.841 18.592 232.889 18.874 232.889 19.186C232.889 19.678 232.799 20.11 232.619 20.482C232.451 20.854 232.217 21.166 231.917 21.418C231.617 21.67 231.263 21.862 230.855 21.994C230.447 22.126 230.009 22.192 229.541 22.192C229.349 22.192 229.151 22.174 228.947 22.138C228.743 22.102 228.539 22.042 228.335 21.958C228.203 22.078 228.095 22.198 228.011 22.318C227.939 22.438 227.903 22.6 227.903 22.804C227.903 23.056 228.005 23.254 228.209 23.398C228.425 23.542 228.803 23.614 229.343 23.614H230.909C231.977 23.614 232.781 23.788 233.321 24.136C233.873 24.472 234.149 25.024 234.149 25.792C234.149 26.224 234.035 26.632 233.807 27.016C233.591 27.4 233.279 27.73 232.871 28.006C232.463 28.282 231.965 28.498 231.377 28.654C230.801 28.822 230.153 28.906 229.433 28.906ZM229.541 20.896C229.961 20.896 230.321 20.746 230.621 20.446C230.921 20.134 231.071 19.69 231.071 19.114C231.071 18.562 230.921 18.136 230.621 17.836C230.333 17.524 229.973 17.368 229.541 17.368C229.109 17.368 228.743 17.518 228.443 17.818C228.143 18.118 227.993 18.55 227.993 19.114C227.993 19.69 228.143 20.134 228.443 20.446C228.743 20.746 229.109 20.896 229.541 20.896ZM229.757 27.556C230.477 27.556 231.053 27.412 231.485 27.124C231.929 26.848 232.151 26.518 232.151 26.134C232.151 25.786 232.013 25.552 231.737 25.432C231.473 25.312 231.089 25.252 230.585 25.252H229.379C228.899 25.252 228.497 25.21 228.173 25.126C227.717 25.474 227.489 25.864 227.489 26.296C227.489 26.692 227.687 26.998 228.083 27.214C228.491 27.442 229.049 27.556 229.757 27.556ZM239.205 25.216C238.593 25.216 238.023 25.114 237.495 24.91C236.967 24.694 236.505 24.388 236.109 23.992C235.713 23.596 235.401 23.116 235.173 22.552C234.957 21.976 234.849 21.322 234.849 20.59C234.849 19.87 234.963 19.222 235.191 18.646C235.419 18.07 235.719 17.584 236.091 17.188C236.475 16.792 236.913 16.486 237.405 16.27C237.897 16.054 238.401 15.946 238.917 15.946C239.517 15.946 240.045 16.048 240.501 16.252C240.957 16.456 241.335 16.744 241.635 17.116C241.947 17.488 242.181 17.932 242.337 18.448C242.493 18.964 242.571 19.528 242.571 20.14C242.571 20.344 242.559 20.536 242.535 20.716C242.523 20.896 242.505 21.04 242.481 21.148H236.865C236.961 21.94 237.237 22.552 237.693 22.984C238.161 23.404 238.755 23.614 239.475 23.614C239.859 23.614 240.213 23.56 240.537 23.452C240.873 23.332 241.203 23.17 241.527 22.966L242.229 24.262C241.809 24.538 241.341 24.766 240.825 24.946C240.309 25.126 239.769 25.216 239.205 25.216ZM236.847 19.744H240.771C240.771 19.06 240.621 18.526 240.321 18.142C240.033 17.746 239.583 17.548 238.971 17.548C238.443 17.548 237.981 17.734 237.585 18.106C237.189 18.478 236.943 19.024 236.847 19.744ZM247.014 25.216C246.402 25.216 245.796 25.102 245.196 24.874C244.608 24.634 244.098 24.34 243.666 23.992L244.638 22.66C245.034 22.972 245.424 23.218 245.808 23.398C246.204 23.566 246.63 23.65 247.086 23.65C247.566 23.65 247.92 23.554 248.148 23.362C248.376 23.158 248.49 22.9 248.49 22.588C248.49 22.408 248.436 22.252 248.328 22.12C248.22 21.976 248.076 21.85 247.896 21.742C247.716 21.634 247.512 21.538 247.284 21.454C247.056 21.358 246.828 21.262 246.6 21.166C246.312 21.058 246.018 20.932 245.718 20.788C245.418 20.644 245.148 20.47 244.908 20.266C244.68 20.062 244.488 19.828 244.332 19.564C244.188 19.288 244.116 18.964 244.116 18.592C244.116 17.812 244.404 17.176 244.98 16.684C245.556 16.192 246.342 15.946 247.338 15.946C247.95 15.946 248.502 16.054 248.994 16.27C249.486 16.486 249.912 16.732 250.272 17.008L249.318 18.268C249.006 18.04 248.688 17.86 248.364 17.728C248.052 17.584 247.722 17.512 247.374 17.512C246.93 17.512 246.6 17.608 246.384 17.8C246.18 17.98 246.078 18.208 246.078 18.484C246.078 18.664 246.126 18.82 246.222 18.952C246.33 19.072 246.468 19.18 246.636 19.276C246.804 19.372 246.996 19.462 247.212 19.546C247.44 19.63 247.674 19.714 247.914 19.798C248.214 19.906 248.514 20.032 248.814 20.176C249.114 20.308 249.384 20.476 249.624 20.68C249.876 20.884 250.074 21.136 250.218 21.436C250.374 21.724 250.452 22.072 250.452 22.48C250.452 22.864 250.374 23.224 250.218 23.56C250.074 23.884 249.858 24.172 249.57 24.424C249.282 24.664 248.922 24.856 248.49 25C248.058 25.144 247.566 25.216 247.014 25.216ZM256.084 25V13.228H258.172V17.962H262.942V13.228H265.03V25H262.942V19.78H258.172V25H256.084ZM267.839 25V16.162H269.909V25H267.839ZM268.883 14.614C268.511 14.614 268.205 14.506 267.965 14.29C267.725 14.074 267.605 13.792 267.605 13.444C267.605 13.096 267.725 12.814 267.965 12.598C268.205 12.37 268.511 12.256 268.883 12.256C269.255 12.256 269.561 12.37 269.801 12.598C270.041 12.814 270.161 13.096 270.161 13.444C270.161 13.792 270.041 14.074 269.801 14.29C269.561 14.506 269.255 14.614 268.883 14.614ZM272.55 25V16.162H274.26L274.404 17.35H274.476C274.872 16.966 275.298 16.636 275.754 16.36C276.222 16.084 276.762 15.946 277.374 15.946C278.322 15.946 279.012 16.252 279.444 16.864C279.876 17.464 280.092 18.328 280.092 19.456V25H278.022V19.726C278.022 18.994 277.914 18.478 277.698 18.178C277.482 17.878 277.128 17.728 276.636 17.728C276.252 17.728 275.91 17.824 275.61 18.016C275.322 18.196 274.992 18.466 274.62 18.826V25H272.55ZM285.719 25.216C284.603 25.216 283.715 24.814 283.055 24.01C282.407 23.194 282.083 22.054 282.083 20.59C282.083 19.87 282.185 19.222 282.389 18.646C282.605 18.07 282.887 17.584 283.235 17.188C283.583 16.792 283.979 16.486 284.423 16.27C284.879 16.054 285.347 15.946 285.827 15.946C286.331 15.946 286.757 16.036 287.105 16.216C287.453 16.384 287.801 16.618 288.149 16.918L288.077 15.496V12.292H290.147V25H288.437L288.293 24.046H288.221C287.897 24.37 287.519 24.646 287.087 24.874C286.655 25.102 286.199 25.216 285.719 25.216ZM286.223 23.506C286.883 23.506 287.501 23.176 288.077 22.516V18.394C287.765 18.118 287.459 17.926 287.159 17.818C286.871 17.71 286.577 17.656 286.277 17.656C285.701 17.656 285.215 17.908 284.819 18.412C284.423 18.916 284.225 19.636 284.225 20.572C284.225 21.532 284.393 22.264 284.729 22.768C285.077 23.26 285.575 23.506 286.223 23.506ZM292.783 25V16.162H294.853V25H292.783ZM293.827 14.614C293.455 14.614 293.149 14.506 292.909 14.29C292.669 14.074 292.549 13.792 292.549 13.444C292.549 13.096 292.669 12.814 292.909 12.598C293.149 12.37 293.455 12.256 293.827 12.256C294.199 12.256 294.505 12.37 294.745 12.598C294.985 12.814 295.105 13.096 295.105 13.444C295.105 13.792 294.985 14.074 294.745 14.29C294.505 14.506 294.199 14.614 293.827 14.614ZM297.476 28.276L297.026 27.142C297.614 26.914 298.064 26.608 298.376 26.224C298.7 25.84 298.856 25.42 298.844 24.964H298.682C298.334 24.964 298.022 24.856 297.746 24.64C297.482 24.412 297.35 24.094 297.35 23.686C297.35 23.302 297.482 22.996 297.746 22.768C298.022 22.528 298.352 22.408 298.736 22.408C299.228 22.408 299.606 22.594 299.87 22.966C300.146 23.338 300.284 23.86 300.284 24.532C300.284 25.42 300.038 26.188 299.546 26.836C299.066 27.484 298.376 27.964 297.476 28.276ZM80.3905 48V36.228H82.4785V40.962H87.2485V36.228H89.3365V48H87.2485V42.78H82.4785V48H80.3905ZM92.146 48V39.162H94.216V48H92.146ZM93.19 37.614C92.818 37.614 92.512 37.506 92.272 37.29C92.032 37.074 91.912 36.792 91.912 36.444C91.912 36.096 92.032 35.814 92.272 35.598C92.512 35.37 92.818 35.256 93.19 35.256C93.562 35.256 93.868 35.37 94.108 35.598C94.348 35.814 94.468 36.096 94.468 36.444C94.468 36.792 94.348 37.074 94.108 37.29C93.868 37.506 93.562 37.614 93.19 37.614ZM96.857 48V39.162H98.567L98.711 40.35H98.783C99.179 39.966 99.605 39.636 100.061 39.36C100.529 39.084 101.069 38.946 101.681 38.946C102.629 38.946 103.319 39.252 103.751 39.864C104.183 40.464 104.399 41.328 104.399 42.456V48H102.329V42.726C102.329 41.994 102.221 41.478 102.005 41.178C101.789 40.878 101.435 40.728 100.943 40.728C100.559 40.728 100.217 40.824 99.917 41.016C99.629 41.196 99.299 41.466 98.927 41.826V48H96.857ZM110.025 48.216C108.909 48.216 108.021 47.814 107.361 47.01C106.713 46.194 106.389 45.054 106.389 43.59C106.389 42.87 106.491 42.222 106.695 41.646C106.911 41.07 107.193 40.584 107.541 40.188C107.889 39.792 108.285 39.486 108.729 39.27C109.185 39.054 109.653 38.946 110.133 38.946C110.637 38.946 111.063 39.036 111.411 39.216C111.759 39.384 112.107 39.618 112.455 39.918L112.383 38.496V35.292H114.453V48H112.743L112.599 47.046H112.527C112.203 47.37 111.825 47.646 111.393 47.874C110.961 48.102 110.505 48.216 110.025 48.216ZM110.529 46.506C111.189 46.506 111.807 46.176 112.383 45.516V41.394C112.071 41.118 111.765 40.926 111.465 40.818C111.177 40.71 110.883 40.656 110.583 40.656C110.007 40.656 109.521 40.908 109.125 41.412C108.729 41.916 108.531 42.636 108.531 43.572C108.531 44.532 108.699 45.264 109.035 45.768C109.383 46.26 109.881 46.506 110.529 46.506ZM117.089 48V39.162H119.159V48H117.089ZM118.133 37.614C117.761 37.614 117.455 37.506 117.215 37.29C116.975 37.074 116.855 36.792 116.855 36.444C116.855 36.096 116.975 35.814 117.215 35.598C117.455 35.37 117.761 35.256 118.133 35.256C118.505 35.256 118.811 35.37 119.051 35.598C119.291 35.814 119.411 36.096 119.411 36.444C119.411 36.792 119.291 37.074 119.051 37.29C118.811 37.506 118.505 37.614 118.133 37.614ZM121.242 44.22V42.708H125.526V44.22H121.242ZM127.781 48V36.228H134.873V37.992H129.869V40.998H134.099V42.762H129.869V46.236H135.053V48H127.781ZM137.287 48V39.162H138.997L139.141 40.35H139.213C139.609 39.966 140.035 39.636 140.491 39.36C140.959 39.084 141.499 38.946 142.111 38.946C143.059 38.946 143.749 39.252 144.181 39.864C144.613 40.464 144.829 41.328 144.829 42.456V48H142.759V42.726C142.759 41.994 142.651 41.478 142.435 41.178C142.219 40.878 141.865 40.728 141.373 40.728C140.989 40.728 140.647 40.824 140.347 41.016C140.059 41.196 139.729 41.466 139.357 41.826V48H137.287ZM150.437 51.906C149.909 51.906 149.417 51.858 148.961 51.762C148.517 51.666 148.133 51.522 147.809 51.33C147.485 51.138 147.227 50.898 147.035 50.61C146.855 50.322 146.765 49.986 146.765 49.602C146.765 49.23 146.873 48.882 147.089 48.558C147.305 48.246 147.617 47.964 148.025 47.712V47.64C147.797 47.496 147.605 47.304 147.449 47.064C147.305 46.824 147.233 46.524 147.233 46.164C147.233 45.816 147.329 45.504 147.521 45.228C147.725 44.94 147.953 44.706 148.205 44.526V44.454C147.905 44.226 147.635 43.914 147.395 43.518C147.167 43.11 147.053 42.642 147.053 42.114C147.053 41.61 147.149 41.16 147.341 40.764C147.533 40.368 147.785 40.038 148.097 39.774C148.421 39.498 148.793 39.294 149.213 39.162C149.633 39.018 150.077 38.946 150.545 38.946C150.785 38.946 151.013 38.97 151.229 39.018C151.457 39.054 151.661 39.102 151.841 39.162H155.009V40.692H153.389C153.533 40.86 153.653 41.076 153.749 41.34C153.845 41.592 153.893 41.874 153.893 42.186C153.893 42.678 153.803 43.11 153.623 43.482C153.455 43.854 153.221 44.166 152.921 44.418C152.621 44.67 152.267 44.862 151.859 44.994C151.451 45.126 151.013 45.192 150.545 45.192C150.353 45.192 150.155 45.174 149.951 45.138C149.747 45.102 149.543 45.042 149.339 44.958C149.207 45.078 149.099 45.198 149.015 45.318C148.943 45.438 148.907 45.6 148.907 45.804C148.907 46.056 149.009 46.254 149.213 46.398C149.429 46.542 149.807 46.614 150.347 46.614H151.913C152.981 46.614 153.785 46.788 154.325 47.136C154.877 47.472 155.153 48.024 155.153 48.792C155.153 49.224 155.039 49.632 154.811 50.016C154.595 50.4 154.283 50.73 153.875 51.006C153.467 51.282 152.969 51.498 152.381 51.654C151.805 51.822 151.157 51.906 150.437 51.906ZM150.545 43.896C150.965 43.896 151.325 43.746 151.625 43.446C151.925 43.134 152.075 42.69 152.075 42.114C152.075 41.562 151.925 41.136 151.625 40.836C151.337 40.524 150.977 40.368 150.545 40.368C150.113 40.368 149.747 40.518 149.447 40.818C149.147 41.118 148.997 41.55 148.997 42.114C148.997 42.69 149.147 43.134 149.447 43.446C149.747 43.746 150.113 43.896 150.545 43.896ZM150.761 50.556C151.481 50.556 152.057 50.412 152.489 50.124C152.933 49.848 153.155 49.518 153.155 49.134C153.155 48.786 153.017 48.552 152.741 48.432C152.477 48.312 152.093 48.252 151.589 48.252H150.383C149.903 48.252 149.501 48.21 149.177 48.126C148.721 48.474 148.493 48.864 148.493 49.296C148.493 49.692 148.691 49.998 149.087 50.214C149.495 50.442 150.053 50.556 150.761 50.556ZM158.726 48.216C157.982 48.216 157.46 47.994 157.16 47.55C156.86 47.106 156.71 46.5 156.71 45.732V35.292H158.78V45.84C158.78 46.092 158.828 46.272 158.924 46.38C159.02 46.476 159.122 46.524 159.23 46.524C159.278 46.524 159.32 46.524 159.356 46.524C159.404 46.524 159.47 46.512 159.554 46.488L159.824 48.036C159.548 48.156 159.182 48.216 158.726 48.216ZM161.597 48V39.162H163.667V48H161.597ZM162.641 37.614C162.269 37.614 161.963 37.506 161.723 37.29C161.483 37.074 161.363 36.792 161.363 36.444C161.363 36.096 161.483 35.814 161.723 35.598C161.963 35.37 162.269 35.256 162.641 35.256C163.013 35.256 163.319 35.37 163.559 35.598C163.799 35.814 163.919 36.096 163.919 36.444C163.919 36.792 163.799 37.074 163.559 37.29C163.319 37.506 163.013 37.614 162.641 37.614ZM168.774 48.216C168.162 48.216 167.556 48.102 166.956 47.874C166.368 47.634 165.858 47.34 165.426 46.992L166.398 45.66C166.794 45.972 167.184 46.218 167.568 46.398C167.964 46.566 168.39 46.65 168.846 46.65C169.326 46.65 169.68 46.554 169.908 46.362C170.136 46.158 170.25 45.9 170.25 45.588C170.25 45.408 170.196 45.252 170.088 45.12C169.98 44.976 169.836 44.85 169.656 44.742C169.476 44.634 169.272 44.538 169.044 44.454C168.816 44.358 168.588 44.262 168.36 44.166C168.072 44.058 167.778 43.932 167.478 43.788C167.178 43.644 166.908 43.47 166.668 43.266C166.44 43.062 166.248 42.828 166.092 42.564C165.948 42.288 165.876 41.964 165.876 41.592C165.876 40.812 166.164 40.176 166.74 39.684C167.316 39.192 168.102 38.946 169.098 38.946C169.71 38.946 170.262 39.054 170.754 39.27C171.246 39.486 171.672 39.732 172.032 40.008L171.078 41.268C170.766 41.04 170.448 40.86 170.124 40.728C169.812 40.584 169.482 40.512 169.134 40.512C168.69 40.512 168.36 40.608 168.144 40.8C167.94 40.98 167.838 41.208 167.838 41.484C167.838 41.664 167.886 41.82 167.982 41.952C168.09 42.072 168.228 42.18 168.396 42.276C168.564 42.372 168.756 42.462 168.972 42.546C169.2 42.63 169.434 42.714 169.674 42.798C169.974 42.906 170.274 43.032 170.574 43.176C170.874 43.308 171.144 43.476 171.384 43.68C171.636 43.884 171.834 44.136 171.978 44.436C172.134 44.724 172.212 45.072 172.212 45.48C172.212 45.864 172.134 46.224 171.978 46.56C171.834 46.884 171.618 47.172 171.33 47.424C171.042 47.664 170.682 47.856 170.25 48C169.818 48.144 169.326 48.216 168.774 48.216ZM174.06 48V35.292H176.13V38.568L176.058 40.278C176.43 39.93 176.838 39.624 177.282 39.36C177.738 39.084 178.272 38.946 178.884 38.946C179.832 38.946 180.522 39.252 180.954 39.864C181.386 40.464 181.602 41.328 181.602 42.456V48H179.532V42.726C179.532 41.994 179.424 41.478 179.208 41.178C178.992 40.878 178.638 40.728 178.146 40.728C177.762 40.728 177.42 40.824 177.12 41.016C176.832 41.196 176.502 41.466 176.13 41.826V48H174.06ZM184.079 51.276L183.629 50.142C184.217 49.914 184.667 49.608 184.979 49.224C185.303 48.84 185.459 48.42 185.447 47.964H185.285C184.937 47.964 184.625 47.856 184.349 47.64C184.085 47.412 183.953 47.094 183.953 46.686C183.953 46.302 184.085 45.996 184.349 45.768C184.625 45.528 184.955 45.408 185.339 45.408C185.831 45.408 186.209 45.594 186.473 45.966C186.749 46.338 186.887 46.86 186.887 47.532C186.887 48.42 186.641 49.188 186.149 49.836C185.669 50.484 184.979 50.964 184.079 51.276ZM192.838 48V36.228H195.196L197.284 41.988C197.416 42.36 197.542 42.744 197.662 43.14C197.782 43.524 197.908 43.908 198.04 44.292H198.112C198.244 43.908 198.364 43.524 198.472 43.14C198.592 42.744 198.718 42.36 198.85 41.988L200.884 36.228H203.26V48H201.334V42.618C201.334 42.342 201.34 42.042 201.352 41.718C201.376 41.394 201.4 41.07 201.424 40.746C201.448 40.41 201.478 40.086 201.514 39.774C201.55 39.45 201.58 39.15 201.604 38.874H201.532L200.578 41.61L198.652 46.902H197.41L195.466 41.61L194.53 38.874H194.458C194.482 39.15 194.506 39.45 194.53 39.774C194.566 40.086 194.596 40.41 194.62 40.746C194.656 41.07 194.68 41.394 194.692 41.718C194.716 42.042 194.728 42.342 194.728 42.618V48H192.838ZM208.212 48.216C207.432 48.216 206.802 47.982 206.322 47.514C205.842 47.034 205.602 46.404 205.602 45.624C205.602 45.156 205.698 44.742 205.89 44.382C206.094 44.01 206.406 43.692 206.826 43.428C207.258 43.164 207.798 42.942 208.446 42.762C209.106 42.582 209.892 42.444 210.804 42.348C210.792 42.12 210.756 41.904 210.696 41.7C210.648 41.484 210.558 41.298 210.426 41.142C210.306 40.974 210.144 40.848 209.94 40.764C209.736 40.668 209.484 40.62 209.184 40.62C208.752 40.62 208.326 40.704 207.906 40.872C207.498 41.04 207.096 41.244 206.7 41.484L205.944 40.098C206.436 39.786 206.988 39.516 207.6 39.288C208.212 39.06 208.872 38.946 209.58 38.946C210.684 38.946 211.506 39.276 212.046 39.936C212.598 40.584 212.874 41.526 212.874 42.762V48H211.164L211.02 47.028H210.948C210.552 47.364 210.126 47.646 209.67 47.874C209.226 48.102 208.74 48.216 208.212 48.216ZM208.878 46.596C209.238 46.596 209.562 46.512 209.85 46.344C210.15 46.176 210.468 45.936 210.804 45.624V43.644C210.204 43.716 209.7 43.812 209.292 43.932C208.884 44.052 208.554 44.19 208.302 44.346C208.05 44.49 207.87 44.658 207.762 44.85C207.654 45.042 207.6 45.246 207.6 45.462C207.6 45.858 207.72 46.146 207.96 46.326C208.2 46.506 208.506 46.596 208.878 46.596ZM217.367 48.216C216.623 48.216 216.101 47.994 215.801 47.55C215.501 47.106 215.351 46.5 215.351 45.732V35.292H217.421V45.84C217.421 46.092 217.469 46.272 217.565 46.38C217.661 46.476 217.763 46.524 217.871 46.524C217.919 46.524 217.961 46.524 217.997 46.524C218.045 46.524 218.111 46.512 218.195 46.488L218.465 48.036C218.189 48.156 217.823 48.216 217.367 48.216ZM220.832 51.636C220.592 51.636 220.382 51.618 220.202 51.582C220.022 51.558 219.848 51.516 219.68 51.456L220.058 49.836C220.142 49.86 220.238 49.884 220.346 49.908C220.466 49.944 220.58 49.962 220.688 49.962C221.156 49.962 221.528 49.818 221.804 49.53C222.092 49.254 222.308 48.894 222.452 48.45L222.614 47.892L219.14 39.162H221.246L222.776 43.5C222.908 43.884 223.034 44.292 223.154 44.724C223.286 45.144 223.418 45.564 223.55 45.984H223.622C223.73 45.576 223.838 45.162 223.946 44.742C224.066 44.31 224.18 43.896 224.288 43.5L225.62 39.162H227.618L224.414 48.396C224.234 48.9 224.036 49.35 223.82 49.746C223.604 50.142 223.352 50.478 223.064 50.754C222.788 51.042 222.464 51.258 222.092 51.402C221.732 51.558 221.312 51.636 220.832 51.636ZM230.94 48.216C230.16 48.216 229.53 47.982 229.05 47.514C228.57 47.034 228.33 46.404 228.33 45.624C228.33 45.156 228.426 44.742 228.618 44.382C228.822 44.01 229.134 43.692 229.554 43.428C229.986 43.164 230.526 42.942 231.174 42.762C231.834 42.582 232.62 42.444 233.532 42.348C233.52 42.12 233.484 41.904 233.424 41.7C233.376 41.484 233.286 41.298 233.154 41.142C233.034 40.974 232.872 40.848 232.668 40.764C232.464 40.668 232.212 40.62 231.912 40.62C231.48 40.62 231.054 40.704 230.634 40.872C230.226 41.04 229.824 41.244 229.428 41.484L228.672 40.098C229.164 39.786 229.716 39.516 230.328 39.288C230.94 39.06 231.6 38.946 232.308 38.946C233.412 38.946 234.234 39.276 234.774 39.936C235.326 40.584 235.602 41.526 235.602 42.762V48H233.892L233.748 47.028H233.676C233.28 47.364 232.854 47.646 232.398 47.874C231.954 48.102 231.468 48.216 230.94 48.216ZM231.606 46.596C231.966 46.596 232.29 46.512 232.578 46.344C232.878 46.176 233.196 45.936 233.532 45.624V43.644C232.932 43.716 232.428 43.812 232.02 43.932C231.612 44.052 231.282 44.19 231.03 44.346C230.778 44.49 230.598 44.658 230.49 44.85C230.382 45.042 230.328 45.246 230.328 45.462C230.328 45.858 230.448 46.146 230.688 46.326C230.928 46.506 231.234 46.596 231.606 46.596ZM240.096 48.216C239.352 48.216 238.83 47.994 238.53 47.55C238.23 47.106 238.08 46.5 238.08 45.732V35.292H240.15V45.84C240.15 46.092 240.198 46.272 240.294 46.38C240.39 46.476 240.492 46.524 240.6 46.524C240.648 46.524 240.69 46.524 240.726 46.524C240.774 46.524 240.84 46.512 240.924 46.488L241.194 48.036C240.918 48.156 240.552 48.216 240.096 48.216ZM245.108 48.216C244.328 48.216 243.698 47.982 243.218 47.514C242.738 47.034 242.498 46.404 242.498 45.624C242.498 45.156 242.594 44.742 242.786 44.382C242.99 44.01 243.302 43.692 243.722 43.428C244.154 43.164 244.694 42.942 245.342 42.762C246.002 42.582 246.788 42.444 247.7 42.348C247.688 42.12 247.652 41.904 247.592 41.7C247.544 41.484 247.454 41.298 247.322 41.142C247.202 40.974 247.04 40.848 246.836 40.764C246.632 40.668 246.38 40.62 246.08 40.62C245.648 40.62 245.222 40.704 244.802 40.872C244.394 41.04 243.992 41.244 243.596 41.484L242.84 40.098C243.332 39.786 243.884 39.516 244.496 39.288C245.108 39.06 245.768 38.946 246.476 38.946C247.58 38.946 248.402 39.276 248.942 39.936C249.494 40.584 249.77 41.526 249.77 42.762V48H248.06L247.916 47.028H247.844C247.448 47.364 247.022 47.646 246.566 47.874C246.122 48.102 245.636 48.216 245.108 48.216ZM245.774 46.596C246.134 46.596 246.458 46.512 246.746 46.344C247.046 46.176 247.364 45.936 247.7 45.624V43.644C247.1 43.716 246.596 43.812 246.188 43.932C245.78 44.052 245.45 44.19 245.198 44.346C244.946 44.49 244.766 44.658 244.658 44.85C244.55 45.042 244.496 45.246 244.496 45.462C244.496 45.858 244.616 46.146 244.856 46.326C245.096 46.506 245.402 46.596 245.774 46.596ZM252.248 48V39.162H253.958L254.102 40.368H254.174C254.546 39.972 254.948 39.636 255.38 39.36C255.824 39.084 256.322 38.946 256.874 38.946C257.522 38.946 258.038 39.084 258.422 39.36C258.818 39.636 259.118 40.026 259.322 40.53C259.742 40.074 260.18 39.696 260.636 39.396C261.092 39.096 261.602 38.946 262.166 38.946C263.102 38.946 263.792 39.252 264.236 39.864C264.68 40.464 264.902 41.328 264.902 42.456V48H262.814V42.726C262.814 41.994 262.7 41.478 262.472 41.178C262.256 40.878 261.92 40.728 261.464 40.728C260.912 40.728 260.294 41.094 259.61 41.826V48H257.54V42.726C257.54 41.994 257.426 41.478 257.198 41.178C256.982 40.878 256.64 40.728 256.172 40.728C255.62 40.728 255.002 41.094 254.318 41.826V48H252.248Z" fill="#003459"/>
<path d="M254.59 26.8H296.185V27.7H254.59V26.8ZM78.8965 49.8H182.79V50.7H78.8965V49.8ZM191.344 49.8H266.108V50.7H191.344V49.8Z" fill="#003459"/>
</svg>
