<svg width="269" height="221" viewBox="0 0 269 221" fill="none" xmlns="http://www.w3.org/2000/svg">
<rect width="269" height="221" rx="6" fill="black"/>
<path d="M25.86 111C26.508 111.072 27.048 111.072 27.768 111.072C30.756 111.072 33.456 109.776 33.456 104.736V85.8H29.496V105.024C29.496 106.968 28.488 107.436 27.228 107.436C26.796 107.436 26.292 107.436 25.86 107.4V111ZM39.7869 91.596C39.7869 89.796 40.5789 89.112 41.8389 89.112C43.0989 89.112 43.8909 89.796 43.8909 91.596V105.204C43.8909 107.004 43.0989 107.688 41.8389 107.688C40.5789 107.688 39.7869 107.004 39.7869 105.204V91.596ZM35.8269 104.952C35.8269 108.984 37.9509 111.288 41.8389 111.288C45.7269 111.288 47.8509 108.984 47.8509 104.952V91.848C47.8509 87.816 45.7269 85.512 41.8389 85.512C37.9509 85.512 35.8269 87.816 35.8269 91.848V104.952ZM50.4244 111H54.3844V85.8H50.4244V111ZM65.7398 111H69.8078V85.8H66.2798V100.884L62.2118 85.8H57.2438V111H60.8078V92.748L65.7398 111ZM78.053 85.8V104.988C78.053 109.02 80.069 111.324 83.957 111.324C87.845 111.324 89.861 109.02 89.861 104.988V85.8H86.117V105.24C86.117 107.04 85.325 107.688 84.065 107.688C82.805 107.688 82.013 107.04 82.013 105.24V85.8H78.053ZM92.0727 91.848C92.0727 99.048 99.8127 100.02 99.8127 105.204C99.8127 107.004 99.0207 107.652 97.7607 107.652C96.5007 107.652 95.7087 107.004 95.7087 105.204V103.404H91.9647V104.952C91.9647 108.984 93.9807 111.288 97.8687 111.288C101.757 111.288 103.773 108.984 103.773 104.952C103.773 97.752 96.0327 96.78 96.0327 91.596C96.0327 89.796 96.7527 89.112 98.0127 89.112C99.2727 89.112 99.9927 89.796 99.9927 91.596V92.64H103.737V91.848C103.737 87.816 101.757 85.512 97.9047 85.512C94.0527 85.512 92.0727 87.816 92.0727 91.848ZM120.415 85.8H114.619L110.587 111H114.223L114.907 106.428H119.767L120.451 111H124.447L120.415 85.8ZM117.319 90.264L119.227 103.008H115.411L117.319 90.264ZM134.752 111H138.82V85.8H135.292V100.884L131.224 85.8H126.256V111H129.82V92.748L134.752 111ZM141.655 111H147.919C151.879 111 153.823 108.804 153.823 104.772V92.028C153.823 87.996 151.879 85.8 147.919 85.8H141.655V111ZM147.847 89.4C149.107 89.4 149.863 90.048 149.863 91.848V104.952C149.863 106.752 149.107 107.4 147.847 107.4H145.615V89.4H147.847ZM169.68 101.604V105.204C169.68 107.004 168.888 107.652 167.628 107.652C166.368 107.652 165.576 107.004 165.576 105.204V91.596C165.576 89.796 166.368 89.112 167.628 89.112C168.888 89.112 169.68 89.796 169.68 91.596V94.296H173.424V91.848C173.424 87.816 171.408 85.512 167.52 85.512C163.632 85.512 161.616 87.816 161.616 91.848V104.952C161.616 108.984 163.632 111.288 167.52 111.288C171.408 111.288 173.424 108.984 173.424 104.952V101.604H169.68ZM188.139 111C187.743 110.064 187.707 109.164 187.707 107.94V104.052C187.707 101.424 187.059 99.516 185.079 98.688C186.843 97.86 187.671 96.168 187.671 93.576V91.596C187.671 87.708 185.907 85.8 181.803 85.8H175.827V111H179.787V100.74H181.155C182.955 100.74 183.747 101.604 183.747 103.944V107.904C183.747 109.956 183.891 110.352 184.107 111H188.139ZM181.695 89.4C183.099 89.4 183.711 90.192 183.711 91.992V94.476C183.711 96.492 182.811 97.14 181.335 97.14H179.787V89.4H181.695ZM194.271 89.4H201.111V85.8H190.311V111H201.111V107.4H194.271V100.02H199.707V96.42H194.271V89.4ZM212.349 85.8H206.553L202.521 111H206.157L206.841 106.428H211.701L212.385 111H216.381L212.349 85.8ZM209.253 90.264L211.161 103.008H207.345L209.253 90.264ZM215.702 89.4H219.842V111H223.802V89.4H227.942V85.8H215.702V89.4ZM233.646 89.4H240.486V85.8H229.686V111H240.486V107.4H233.646V100.02H239.082V96.42H233.646V89.4ZM70.609 125.4H77.125V121.8H66.649V147H70.609V136.596H75.721V132.996H70.609V125.4ZM82.66 127.596C82.66 125.796 83.452 125.112 84.712 125.112C85.972 125.112 86.764 125.796 86.764 127.596V141.204C86.764 143.004 85.972 143.688 84.712 143.688C83.452 143.688 82.66 143.004 82.66 141.204V127.596ZM78.7 140.952C78.7 144.984 80.824 147.288 84.712 147.288C88.6 147.288 90.724 144.984 90.724 140.952V127.848C90.724 123.816 88.6 121.512 84.712 121.512C80.824 121.512 78.7 123.816 78.7 127.848V140.952ZM105.609 147C105.213 146.064 105.177 145.164 105.177 143.94V140.052C105.177 137.424 104.529 135.516 102.549 134.688C104.313 133.86 105.141 132.168 105.141 129.576V127.596C105.141 123.708 103.377 121.8 99.2734 121.8H93.2974V147H97.2574V136.74H98.6254C100.425 136.74 101.217 137.604 101.217 139.944V143.904C101.217 145.956 101.361 146.352 101.577 147H105.609ZM99.1654 125.4C100.569 125.4 101.181 126.192 101.181 127.992V130.476C101.181 132.492 100.281 133.14 98.8054 133.14H97.2574V125.4H99.1654ZM122.156 121.8H116.36L112.328 147H115.964L116.648 142.428H121.508L122.192 147H126.188L122.156 121.8ZM119.06 126.264L120.968 139.008H117.152L119.06 126.264ZM141.362 137.604V141.204C141.362 143.004 140.57 143.652 139.31 143.652C138.05 143.652 137.258 143.004 137.258 141.204V127.596C137.258 125.796 138.05 125.112 139.31 125.112C140.57 125.112 141.362 125.796 141.362 127.596V130.296H145.106V127.848C145.106 123.816 143.09 121.512 139.202 121.512C135.314 121.512 133.298 123.816 133.298 127.848V140.952C133.298 144.984 135.314 147.288 139.202 147.288C143.09 147.288 145.106 144.984 145.106 140.952V137.604H141.362ZM156.292 121.8H150.496L146.464 147H150.1L150.784 142.428H155.644L156.328 147H160.324L156.292 121.8ZM153.196 126.264L155.104 139.008H151.288L153.196 126.264ZM161.989 121.8V140.988C161.989 145.02 164.005 147.324 167.893 147.324C171.781 147.324 173.797 145.02 173.797 140.988V121.8H170.053V141.24C170.053 143.04 169.261 143.688 168.001 143.688C166.741 143.688 165.949 143.04 165.949 141.24V121.8H161.989ZM176.008 127.848C176.008 135.048 183.748 136.02 183.748 141.204C183.748 143.004 182.956 143.652 181.696 143.652C180.436 143.652 179.644 143.004 179.644 141.204V139.404H175.9V140.952C175.9 144.984 177.916 147.288 181.804 147.288C185.692 147.288 187.708 144.984 187.708 140.952C187.708 133.752 179.968 132.78 179.968 127.596C179.968 125.796 180.688 125.112 181.948 125.112C183.208 125.112 183.928 125.796 183.928 127.596V128.64H187.672V127.848C187.672 123.816 185.692 121.512 181.84 121.512C177.988 121.512 176.008 123.816 176.008 127.848ZM193.937 125.4H200.777V121.8H189.977V147H200.777V143.4H193.937V136.02H199.373V132.42H193.937V125.4Z" fill="white"/>
</svg>
