<svg width="49" height="48" viewBox="0 0 49 48" fill="none" xmlns="http://www.w3.org/2000/svg">
<path d="M24.5225 0C11.1492 0 0.307617 10.7452 0.307617 24C0.307617 37.2548 11.1492 48 24.5225 48C37.8959 48 48.7375 37.2548 48.7375 24C48.7375 10.7452 37.8959 0 24.5225 0ZM32.8918 25.2722L20.7844 32.7722C20.5394 32.9238 20.2608 33 19.9822 33C19.7299 33 19.4771 32.9378 19.2484 32.8118C18.7673 32.5474 18.4688 32.0456 18.4688 31.5V16.5C18.4688 15.9544 18.7673 15.4526 19.2484 15.1882C19.7295 14.9224 20.3178 14.9385 20.7844 15.2278L32.8918 22.7278C33.3341 23.0025 33.6031 23.483 33.6031 24C33.6031 24.517 33.3341 24.9976 32.8918 25.2722Z" fill="#EB5757"/>
</svg>
