<svg width="1071" height="163" viewBox="0 0 1071 163" fill="none" xmlns="http://www.w3.org/2000/svg">
<rect width="1071" height="163" rx="6" fill="#003459"/>
<path d="M142.6 29.8H136.768V55H140.728V45.532H142.6C146.56 45.532 148.504 43.336 148.504 39.304V36.028C148.504 31.996 146.56 29.8 142.6 29.8ZM142.6 33.4C143.86 33.4 144.544 33.976 144.544 35.776V39.556C144.544 41.356 143.86 41.932 142.6 41.932H140.728V33.4H142.6ZM162.65 55C162.254 54.064 162.218 53.164 162.218 51.94V48.052C162.218 45.424 161.57 43.516 159.59 42.688C161.354 41.86 162.182 40.168 162.182 37.576V35.596C162.182 31.708 160.418 29.8 156.314 29.8H150.338V55H154.298V44.74H155.666C157.466 44.74 158.258 45.604 158.258 47.944V51.904C158.258 53.956 158.402 54.352 158.618 55H162.65ZM156.206 33.4C157.61 33.4 158.222 34.192 158.222 35.992V38.476C158.222 40.492 157.322 41.14 155.846 41.14H154.298V33.4H156.206ZM168.783 33.4H175.623V29.8H164.823V55H175.623V51.4H168.783V44.02H174.219V40.42H168.783V33.4ZM183.549 29.8H178.041V55H181.497V37.18L184.449 55H188.193L190.929 36.928V55H194.673V29.8H189.165L186.465 47.692L183.549 29.8ZM197.553 55H201.513V29.8H197.553V55ZM204.229 29.8V48.988C204.229 53.02 206.245 55.324 210.133 55.324C214.021 55.324 216.037 53.02 216.037 48.988V29.8H212.293V49.24C212.293 51.04 211.501 51.688 210.241 51.688C208.981 51.688 208.189 51.04 208.189 49.24V29.8H204.229ZM224.225 29.8H218.717V55H222.173V37.18L225.125 55H228.869L231.605 36.928V55H235.349V29.8H229.841L227.141 47.692L224.225 29.8ZM243.315 35.848C243.315 43.048 251.055 44.02 251.055 49.204C251.055 51.004 250.263 51.652 249.003 51.652C247.743 51.652 246.951 51.004 246.951 49.204V47.404H243.207V48.952C243.207 52.984 245.223 55.288 249.111 55.288C252.999 55.288 255.015 52.984 255.015 48.952C255.015 41.752 247.275 40.78 247.275 35.596C247.275 33.796 247.995 33.112 249.255 33.112C250.515 33.112 251.235 33.796 251.235 35.596V36.64H254.979V35.848C254.979 31.816 252.999 29.512 249.147 29.512C245.295 29.512 243.315 31.816 243.315 35.848ZM261.244 33.4H268.084V29.8H257.284V55H268.084V51.4H261.244V44.02H266.68V40.42H261.244V33.4ZM270.538 55H281.014V51.4H274.498V29.8H270.538V55ZM286.697 33.4H293.213V29.8H282.737V55H286.697V44.596H291.809V40.996H286.697V33.4ZM107.232 65.8H101.436L97.4038 91H101.04L101.724 86.428H106.584L107.268 91H111.264L107.232 65.8ZM104.136 70.264L106.044 83.008H102.228L104.136 70.264ZM113.108 91H119.372C123.332 91 125.276 88.804 125.276 84.772V72.028C125.276 67.996 123.332 65.8 119.372 65.8H113.108V91ZM119.3 69.4C120.56 69.4 121.316 70.048 121.316 71.848V84.952C121.316 86.752 120.56 87.4 119.3 87.4H117.068V69.4H119.3ZM131.763 80.2H136.263V91H140.295V65.8H136.263V76.6H131.763V65.8H127.803V91H131.763V80.2ZM147.127 69.4H153.967V65.8H143.167V91H153.967V87.4H147.127V80.02H152.563V76.42H147.127V69.4ZM155.916 71.848C155.916 79.048 163.656 80.02 163.656 85.204C163.656 87.004 162.864 87.652 161.604 87.652C160.344 87.652 159.552 87.004 159.552 85.204V83.404H155.808V84.952C155.808 88.984 157.824 91.288 161.712 91.288C165.6 91.288 167.616 88.984 167.616 84.952C167.616 77.752 159.876 76.78 159.876 71.596C159.876 69.796 160.596 69.112 161.856 69.112C163.116 69.112 163.836 69.796 163.836 71.596V72.64H167.58V71.848C167.58 67.816 165.6 65.512 161.748 65.512C157.896 65.512 155.916 67.816 155.916 71.848ZM169.885 91H173.845V65.8H169.885V91ZM179.693 65.8H175.697L179.585 91H185.489L189.377 65.8H185.741L182.717 86.356L179.693 65.8ZM195.185 69.4H202.025V65.8H191.225V91H202.025V87.4H195.185V80.02H200.621V76.42H195.185V69.4ZM213.021 65.8H209.025L212.913 91H218.817L222.705 65.8H219.069L216.045 86.356L213.021 65.8ZM224.553 91H228.513V65.8H224.553V91ZM239.869 91H243.937V65.8H240.409V80.884L236.341 65.8H231.373V91H234.937V72.748L239.869 91ZM250.48 91H254.44V82.648L259.444 65.8H255.664L252.64 77.284L249.616 65.8H245.476L250.48 82.648V91ZM261.045 91H271.521V87.4H265.005V65.8H261.045V91ZM272.741 71.848C272.741 79.048 280.481 80.02 280.481 85.204C280.481 87.004 279.689 87.652 278.429 87.652C277.169 87.652 276.377 87.004 276.377 85.204V83.404H272.633V84.952C272.633 88.984 274.649 91.288 278.537 91.288C282.425 91.288 284.441 88.984 284.441 84.952C284.441 77.752 276.701 76.78 276.701 71.596C276.701 69.796 277.421 69.112 278.681 69.112C279.941 69.112 280.661 69.796 280.661 71.596V72.64H284.405V71.848C284.405 67.816 282.425 65.512 278.573 65.512C274.721 65.512 272.741 67.816 272.741 71.848ZM296.259 69.4H302.775V65.8H292.299V91H296.259V80.596H301.371V76.996H296.259V69.4ZM308.31 71.596C308.31 69.796 309.102 69.112 310.362 69.112C311.622 69.112 312.414 69.796 312.414 71.596V85.204C312.414 87.004 311.622 87.688 310.362 87.688C309.102 87.688 308.31 87.004 308.31 85.204V71.596ZM304.35 84.952C304.35 88.984 306.474 91.288 310.362 91.288C314.25 91.288 316.374 88.984 316.374 84.952V71.848C316.374 67.816 314.25 65.512 310.362 65.512C306.474 65.512 304.35 67.816 304.35 71.848V84.952ZM331.26 91C330.864 90.064 330.828 89.164 330.828 87.94V84.052C330.828 81.424 330.18 79.516 328.2 78.688C329.964 77.86 330.792 76.168 330.792 73.576V71.596C330.792 67.708 329.028 65.8 324.924 65.8H318.948V91H322.908V80.74H324.276C326.076 80.74 326.868 81.604 326.868 83.944V87.904C326.868 89.956 327.012 90.352 327.228 91H331.26ZM324.816 69.4C326.22 69.4 326.832 70.192 326.832 71.992V74.476C326.832 76.492 325.932 77.14 324.456 77.14H322.908V69.4H324.816ZM121.005 105.4H127.845V101.8H117.045V127H127.845V123.4H121.005V116.02H126.441V112.42H121.005V105.4ZM139.839 101.8L136.779 111.088L133.791 101.8H129.687L133.827 114.04L129.399 127H133.107L136.383 117.028L139.623 127H143.799L139.371 114.04L143.511 101.8H139.839ZM152.981 117.604V121.204C152.981 123.004 152.189 123.652 150.929 123.652C149.669 123.652 148.877 123.004 148.877 121.204V107.596C148.877 105.796 149.669 105.112 150.929 105.112C152.189 105.112 152.981 105.796 152.981 107.596V110.296H156.725V107.848C156.725 103.816 154.709 101.512 150.821 101.512C146.933 101.512 144.917 103.816 144.917 107.848V120.952C144.917 124.984 146.933 127.288 150.821 127.288C154.709 127.288 156.725 124.984 156.725 120.952V117.604H152.981ZM159.128 127H169.604V123.4H163.088V101.8H159.128V127ZM171.147 101.8V120.988C171.147 125.02 173.163 127.324 177.051 127.324C180.939 127.324 182.955 125.02 182.955 120.988V101.8H179.211V121.24C179.211 123.04 178.419 123.688 177.159 123.688C175.899 123.688 175.107 123.04 175.107 121.24V101.8H171.147ZM185.166 107.848C185.166 115.048 192.906 116.02 192.906 121.204C192.906 123.004 192.114 123.652 190.854 123.652C189.594 123.652 188.802 123.004 188.802 121.204V119.404H185.058V120.952C185.058 124.984 187.074 127.288 190.962 127.288C194.85 127.288 196.866 124.984 196.866 120.952C196.866 113.752 189.126 112.78 189.126 107.596C189.126 105.796 189.846 105.112 191.106 105.112C192.366 105.112 193.086 105.796 193.086 107.596V108.64H196.83V107.848C196.83 103.816 194.85 101.512 190.998 101.512C187.146 101.512 185.166 103.816 185.166 107.848ZM199.135 127H203.095V101.8H199.135V127ZM208.943 101.8H204.947L208.835 127H214.739L218.627 101.8H214.991L211.967 122.356L208.943 101.8ZM224.435 105.4H231.275V101.8H220.475V127H231.275V123.4H224.435V116.02H229.871V112.42H224.435V105.4ZM245.151 101.8H239.319V127H243.279V117.532H245.151C249.111 117.532 251.055 115.336 251.055 111.304V108.028C251.055 103.996 249.111 101.8 245.151 101.8ZM245.151 105.4C246.411 105.4 247.095 105.976 247.095 107.776V111.556C247.095 113.356 246.411 113.932 245.151 113.932H243.279V105.4H245.151ZM265.201 127C264.805 126.064 264.769 125.164 264.769 123.94V120.052C264.769 117.424 264.121 115.516 262.141 114.688C263.905 113.86 264.733 112.168 264.733 109.576V107.596C264.733 103.708 262.969 101.8 258.865 101.8H252.889V127H256.849V116.74H258.217C260.017 116.74 260.809 117.604 260.809 119.944V123.904C260.809 125.956 260.953 126.352 261.169 127H265.201ZM258.757 105.4C260.161 105.4 260.773 106.192 260.773 107.992V110.476C260.773 112.492 259.873 113.14 258.397 113.14H256.849V105.4H258.757ZM267.374 127H271.334V101.8H267.374V127ZM281.969 117.604V121.204C281.969 123.004 281.177 123.652 279.917 123.652C278.657 123.652 277.865 123.004 277.865 121.204V107.596C277.865 105.796 278.657 105.112 279.917 105.112C281.177 105.112 281.969 105.796 281.969 107.596V110.296H285.713V107.848C285.713 103.816 283.697 101.512 279.809 101.512C275.921 101.512 273.905 103.816 273.905 107.848V120.952C273.905 124.984 275.921 127.288 279.809 127.288C283.697 127.288 285.713 124.984 285.713 120.952V117.604H281.969ZM292.076 105.4H298.916V101.8H288.116V127H298.916V123.4H292.076V116.02H297.512V112.42H292.076V105.4ZM300.866 107.848C300.866 115.048 308.606 116.02 308.606 121.204C308.606 123.004 307.814 123.652 306.554 123.652C305.294 123.652 304.502 123.004 304.502 121.204V119.404H300.758V120.952C300.758 124.984 302.774 127.288 306.662 127.288C310.55 127.288 312.566 124.984 312.566 120.952C312.566 113.752 304.826 112.78 304.826 107.596C304.826 105.796 305.546 105.112 306.806 105.112C308.066 105.112 308.786 105.796 308.786 107.596V108.64H312.53V107.848C312.53 103.816 310.55 101.512 306.698 101.512C302.846 101.512 300.866 103.816 300.866 107.848Z" fill="#F2994A"/>
<path d="M509.493 45.992C509.493 53.264 501.645 54.488 501.645 61.904V65H513.093V61.4H505.605C505.569 61.22 505.569 61.04 505.569 60.86C505.569 56.72 513.453 53.768 513.453 45.848C513.453 41.816 511.437 39.512 507.549 39.512C503.661 39.512 501.645 41.816 501.645 45.848V48.296H505.389V45.596C505.389 43.796 506.181 43.112 507.441 43.112C508.701 43.112 509.493 43.724 509.493 45.992ZM514.983 60.428H522.615V65H526.503V60.428H528.375V56.828H526.503V39.8H522.183L514.983 56.828V60.428ZM518.619 56.828L522.615 47.36V56.828H518.619ZM531.704 43.616L530.66 47.216H532.28L534.008 43.22V39.8H530.192V43.616H531.704ZM536.96 43.616L535.916 47.216H537.536L539.264 43.22V39.8H535.448V43.616H536.96ZM555.367 47.396C555.367 49.412 554.467 50.06 552.991 50.06H551.443V53.66H552.775C554.575 53.66 555.367 54.524 555.367 56.864V58.844C555.367 61.076 554.575 61.688 553.315 61.688C552.055 61.688 551.263 61.004 551.263 59.204V56.864H547.519V58.952C547.519 62.984 549.535 65.288 553.423 65.288C557.311 65.288 559.327 62.984 559.327 58.952V56.972C559.327 54.416 558.535 52.544 556.555 51.68C558.463 50.888 559.327 49.196 559.327 46.496V45.848C559.327 41.816 557.311 39.512 553.423 39.512C549.535 39.512 547.519 41.816 547.519 45.848V47.216H551.263V45.596C551.263 43.796 552.055 43.112 553.315 43.112C554.575 43.112 555.367 43.724 555.367 45.992V47.396ZM561.756 58.952C561.756 62.984 563.88 65.288 567.768 65.288C571.656 65.288 573.78 62.984 573.78 58.952V54.344C573.78 50.636 572.304 48.584 569.388 48.584C567.624 48.584 566.4 49.376 565.716 50.816V46.208C565.716 43.796 566.508 43.112 567.912 43.112C569.172 43.112 569.964 43.796 569.964 45.596V46.496H573.708V45.848C573.708 41.816 571.692 39.512 567.804 39.512C563.7 39.512 561.756 41.816 561.756 46.064V58.952ZM567.768 52.184C569.028 52.184 569.82 52.868 569.82 54.668V59.204C569.82 61.004 569.028 61.652 567.768 61.652C566.508 61.652 565.716 61.004 565.716 59.204V54.668C565.716 52.868 566.508 52.184 567.768 52.184ZM577.794 43.616L576.75 47.216H578.37L580.098 43.22V39.8H576.282V43.616H577.794ZM583.05 43.616L582.006 47.216H583.626L585.354 43.22V39.8H581.538V43.616H583.05Z" fill="white"/>
<path d="M509.024 102.152V104.936C509.024 110.312 511.712 113.384 516.896 113.384C522.08 113.384 524.768 110.312 524.768 104.936V97.448C524.768 92.504 522.8 89.768 518.912 89.768C516.8 89.768 515.264 90.632 514.304 92.216L514.736 84.2H523.904V79.4H509.984L509.024 98.888H514.016V97.88C514.016 95.48 515.072 94.568 516.752 94.568C518.432 94.568 519.488 95.48 519.488 97.88V105.272C519.488 107.672 518.432 108.536 516.752 108.536C515.072 108.536 514.016 107.672 514.016 105.272V102.152H509.024ZM533.143 87.128C533.143 84.728 534.199 83.816 535.879 83.816C537.559 83.816 538.615 84.728 538.615 87.128V105.272C538.615 107.672 537.559 108.584 535.879 108.584C534.199 108.584 533.143 107.672 533.143 105.272V87.128ZM527.863 104.936C527.863 110.312 530.695 113.384 535.879 113.384C541.063 113.384 543.895 110.312 543.895 104.936V87.464C543.895 82.088 541.063 79.016 535.879 79.016C530.695 79.016 527.863 82.088 527.863 87.464V104.936ZM552.174 87.128C552.174 84.728 553.23 83.816 554.91 83.816C556.59 83.816 557.646 84.728 557.646 87.128V105.272C557.646 107.672 556.59 108.584 554.91 108.584C553.23 108.584 552.174 107.672 552.174 105.272V87.128ZM546.894 104.936C546.894 110.312 549.726 113.384 554.91 113.384C560.094 113.384 562.926 110.312 562.926 104.936V87.464C562.926 82.088 560.094 79.016 554.91 79.016C549.726 79.016 546.894 82.088 546.894 87.464V104.936ZM564.678 113H569.238L582.486 79.4H577.926L564.678 113ZM584.399 98.6H593.999V93.8H584.399V98.6Z" fill="white"/>
<path d="M692.016 106.904H702.192V113H707.376V106.904H709.872V102.104H707.376V79.4H701.616L692.016 102.104V106.904ZM696.864 102.104L702.192 89.48V102.104H696.864ZM717.143 87.128C717.143 84.728 718.199 83.816 719.879 83.816C721.559 83.816 722.615 84.728 722.615 87.128V105.272C722.615 107.672 721.559 108.584 719.879 108.584C718.199 108.584 717.143 107.672 717.143 105.272V87.128ZM711.863 104.936C711.863 110.312 714.695 113.384 719.879 113.384C725.063 113.384 727.895 110.312 727.895 104.936V87.464C727.895 82.088 725.063 79.016 719.879 79.016C714.695 79.016 711.863 82.088 711.863 87.464V104.936ZM736.174 87.128C736.174 84.728 737.23 83.816 738.91 83.816C740.59 83.816 741.646 84.728 741.646 87.128V105.272C741.646 107.672 740.59 108.584 738.91 108.584C737.23 108.584 736.174 107.672 736.174 105.272V87.128ZM730.894 104.936C730.894 110.312 733.726 113.384 738.91 113.384C744.094 113.384 746.926 110.312 746.926 104.936V87.464C746.926 82.088 744.094 79.016 738.91 79.016C733.726 79.016 730.894 82.088 730.894 87.464V104.936ZM748.678 113H753.238L766.486 79.4H761.926L748.678 113ZM768.399 98.6H777.999V93.8H768.399V98.6Z" fill="white"/>
<path d="M887.44 89.528C887.44 92.216 886.24 93.08 884.272 93.08H882.208V97.88H883.984C886.384 97.88 887.44 99.032 887.44 102.152V104.792C887.44 107.768 886.384 108.584 884.704 108.584C883.024 108.584 881.968 107.672 881.968 105.272V102.152H876.976V104.936C876.976 110.312 879.664 113.384 884.848 113.384C890.032 113.384 892.72 110.312 892.72 104.936V102.296C892.72 98.888 891.664 96.392 889.024 95.24C891.568 94.184 892.72 91.928 892.72 88.328V87.464C892.72 82.088 890.032 79.016 884.848 79.016C879.664 79.016 876.976 82.088 876.976 87.464V89.288H881.968V87.128C881.968 84.728 883.024 83.816 884.704 83.816C886.384 83.816 887.44 84.632 887.44 87.656V89.528ZM901.143 87.128C901.143 84.728 902.199 83.816 903.879 83.816C905.559 83.816 906.615 84.728 906.615 87.128V105.272C906.615 107.672 905.559 108.584 903.879 108.584C902.199 108.584 901.143 107.672 901.143 105.272V87.128ZM895.863 104.936C895.863 110.312 898.695 113.384 903.879 113.384C909.063 113.384 911.895 110.312 911.895 104.936V87.464C911.895 82.088 909.063 79.016 903.879 79.016C898.695 79.016 895.863 82.088 895.863 87.464V104.936ZM920.174 87.128C920.174 84.728 921.23 83.816 922.91 83.816C924.59 83.816 925.646 84.728 925.646 87.128V105.272C925.646 107.672 924.59 108.584 922.91 108.584C921.23 108.584 920.174 107.672 920.174 105.272V87.128ZM914.894 104.936C914.894 110.312 917.726 113.384 922.91 113.384C928.094 113.384 930.926 110.312 930.926 104.936V87.464C930.926 82.088 928.094 79.016 922.91 79.016C917.726 79.016 914.894 82.088 914.894 87.464V104.936ZM932.678 113H937.238L950.486 79.4H945.926L932.678 113ZM952.399 98.6H961.999V93.8H952.399V98.6Z" fill="white"/>
<path d="M692.493 45.992C692.493 53.264 684.645 54.488 684.645 61.904V65H696.093V61.4H688.605C688.569 61.22 688.569 61.04 688.569 60.86C688.569 56.72 696.453 53.768 696.453 45.848C696.453 41.816 694.437 39.512 690.549 39.512C686.661 39.512 684.645 41.816 684.645 45.848V48.296H688.389V45.596C688.389 43.796 689.181 43.112 690.441 43.112C691.701 43.112 692.493 43.724 692.493 45.992ZM702.555 45.596C702.555 43.796 703.347 43.112 704.607 43.112C705.867 43.112 706.659 43.796 706.659 45.596V59.204C706.659 61.004 705.867 61.688 704.607 61.688C703.347 61.688 702.555 61.004 702.555 59.204V45.596ZM698.595 58.952C698.595 62.984 700.719 65.288 704.607 65.288C708.495 65.288 710.619 62.984 710.619 58.952V45.848C710.619 41.816 708.495 39.512 704.607 39.512C700.719 39.512 698.595 41.816 698.595 45.848V58.952ZM714.704 43.616L713.66 47.216H715.28L717.008 43.22V39.8H713.192V43.616H714.704ZM719.96 43.616L718.916 47.216H720.536L722.264 43.22V39.8H718.448V43.616H719.96ZM738.367 47.396C738.367 49.412 737.467 50.06 735.991 50.06H734.443V53.66H735.775C737.575 53.66 738.367 54.524 738.367 56.864V58.844C738.367 61.076 737.575 61.688 736.315 61.688C735.055 61.688 734.263 61.004 734.263 59.204V56.864H730.519V58.952C730.519 62.984 732.535 65.288 736.423 65.288C740.311 65.288 742.327 62.984 742.327 58.952V56.972C742.327 54.416 741.535 52.544 739.555 51.68C741.463 50.888 742.327 49.196 742.327 46.496V45.848C742.327 41.816 740.311 39.512 736.423 39.512C732.535 39.512 730.519 41.816 730.519 45.848V47.216H734.263V45.596C734.263 43.796 735.055 43.112 736.315 43.112C737.575 43.112 738.367 43.724 738.367 45.992V47.396ZM748.644 45.596C748.644 43.796 749.436 43.112 750.696 43.112C751.956 43.112 752.748 43.796 752.748 45.596V59.204C752.748 61.004 751.956 61.688 750.696 61.688C749.436 61.688 748.644 61.004 748.644 59.204V45.596ZM744.684 58.952C744.684 62.984 746.808 65.288 750.696 65.288C754.584 65.288 756.708 62.984 756.708 58.952V45.848C756.708 41.816 754.584 39.512 750.696 39.512C746.808 39.512 744.684 41.816 744.684 45.848V58.952ZM760.794 43.616L759.75 47.216H761.37L763.098 43.22V39.8H759.282V43.616H760.794ZM766.05 43.616L765.006 47.216H766.626L768.354 43.22V39.8H764.538V43.616H766.05Z" fill="white"/>
<path d="M870.093 45.776H873.153V65H877.113V39.8H874.449C873.837 41.492 873.153 42.968 870.093 42.968V45.776ZM881.667 58.952C881.667 62.984 883.791 65.288 887.679 65.288C891.567 65.288 893.691 62.984 893.691 58.952V54.344C893.691 50.636 892.215 48.584 889.299 48.584C887.535 48.584 886.311 49.376 885.627 50.816V46.208C885.627 43.796 886.419 43.112 887.823 43.112C889.083 43.112 889.875 43.796 889.875 45.596V46.496H893.619V45.848C893.619 41.816 891.603 39.512 887.715 39.512C883.611 39.512 881.667 41.816 881.667 46.064V58.952ZM887.679 52.184C888.939 52.184 889.731 52.868 889.731 54.668V59.204C889.731 61.004 888.939 61.652 887.679 61.652C886.419 61.652 885.627 61.004 885.627 59.204V54.668C885.627 52.868 886.419 52.184 887.679 52.184ZM897.704 43.616L896.66 47.216H898.28L900.008 43.22V39.8H896.192V43.616H897.704ZM902.96 43.616L901.916 47.216H903.536L905.264 43.22V39.8H901.448V43.616H902.96ZM921.583 45.992C921.583 53.264 913.735 54.488 913.735 61.904V65H925.183V61.4H917.695C917.659 61.22 917.659 61.04 917.659 60.86C917.659 56.72 925.543 53.768 925.543 45.848C925.543 41.816 923.527 39.512 919.639 39.512C915.751 39.512 913.735 41.816 913.735 45.848V48.296H917.479V45.596C917.479 43.796 918.271 43.112 919.531 43.112C920.791 43.112 921.583 43.724 921.583 45.992ZM927.072 60.428H934.704V65H938.592V60.428H940.464V56.828H938.592V39.8H934.272L927.072 56.828V60.428ZM930.708 56.828L934.704 47.36V56.828H930.708ZM943.794 43.616L942.75 47.216H944.37L946.098 43.22V39.8H942.282V43.616H943.794ZM949.05 43.616L948.006 47.216H949.626L951.354 43.22V39.8H947.538V43.616H949.05Z" fill="white"/>
</svg>
