<svg width="1059" height="106" viewBox="0 0 1059 106" fill="none" xmlns="http://www.w3.org/2000/svg">
<rect width="1059" height="106" rx="6" fill="#F2994A"/>
<path d="M83.1912 25.4H78.6552V45H81.7352V37.636H83.1912C86.2712 37.636 87.7832 35.928 87.7832 32.792V30.244C87.7832 27.108 86.2712 25.4 83.1912 25.4ZM83.1912 28.2C84.1712 28.2 84.7032 28.648 84.7032 30.048V32.988C84.7032 34.388 84.1712 34.836 83.1912 34.836H81.7352V28.2H83.1912ZM98.7858 45C98.4778 44.272 98.4498 43.572 98.4498 42.62V39.596C98.4498 37.552 97.9458 36.068 96.4058 35.424C97.7778 34.78 98.4218 33.464 98.4218 31.448V29.908C98.4218 26.884 97.0498 25.4 93.8578 25.4H89.2098V45H92.2898V37.02H93.3538C94.7538 37.02 95.3698 37.692 95.3698 39.512V42.592C95.3698 44.188 95.4818 44.496 95.6498 45H98.7858ZM93.7738 28.2C94.8658 28.2 95.3418 28.816 95.3418 30.216V32.148C95.3418 33.716 94.6418 34.22 93.4938 34.22H92.2898V28.2H93.7738ZM103.555 28.2H108.875V25.4H100.475V45H108.875V42.2H103.555V36.46H107.783V33.66H103.555V28.2ZM115.04 25.4H110.756V45H113.444V31.14L115.74 45H118.652L120.78 30.944V45H123.692V25.4H119.408L117.308 39.316L115.04 25.4ZM125.933 45H129.013V25.4H125.933V45ZM131.125 25.4V40.324C131.125 43.46 132.693 45.252 135.717 45.252C138.741 45.252 140.309 43.46 140.309 40.324V25.4H137.397V40.52C137.397 41.92 136.781 42.424 135.801 42.424C134.821 42.424 134.205 41.92 134.205 40.52V25.4H131.125ZM146.677 25.4H142.393V45H145.081V31.14L147.377 45H150.289L152.417 30.944V45H155.329V25.4H151.045L148.945 39.316L146.677 25.4ZM161.525 30.104C161.525 35.704 167.545 36.46 167.545 40.492C167.545 41.892 166.929 42.396 165.949 42.396C164.969 42.396 164.353 41.892 164.353 40.492V39.092H161.441V40.296C161.441 43.432 163.009 45.224 166.033 45.224C169.057 45.224 170.625 43.432 170.625 40.296C170.625 34.696 164.605 33.94 164.605 29.908C164.605 28.508 165.165 27.976 166.145 27.976C167.125 27.976 167.685 28.508 167.685 29.908V30.72H170.597V30.104C170.597 26.968 169.057 25.176 166.061 25.176C163.065 25.176 161.525 26.968 161.525 30.104ZM175.47 28.2H180.79V25.4H172.39V45H180.79V42.2H175.47V36.46H179.698V33.66H175.47V28.2ZM182.698 45H190.846V42.2H185.778V25.4H182.698V45ZM195.266 28.2H200.334V25.4H192.186V45H195.266V36.908H199.242V34.108H195.266V28.2ZM212.991 25.4H208.483L205.347 45H208.175L208.707 41.444H212.487L213.019 45H216.127L212.991 25.4ZM210.583 28.872L212.067 38.784H209.099L210.583 28.872ZM217.561 45H222.433C225.513 45 227.025 43.292 227.025 40.156V30.244C227.025 27.108 225.513 25.4 222.433 25.4H217.561V45ZM222.377 28.2C223.357 28.2 223.945 28.704 223.945 30.104V40.296C223.945 41.696 223.357 42.2 222.377 42.2H220.641V28.2H222.377ZM232.071 36.6H235.571V45H238.707V25.4H235.571V33.8H232.071V25.4H228.991V45H232.071V36.6ZM244.02 28.2H249.34V25.4H240.94V45H249.34V42.2H244.02V36.46H248.248V33.66H244.02V28.2ZM250.857 30.104C250.857 35.704 256.877 36.46 256.877 40.492C256.877 41.892 256.261 42.396 255.281 42.396C254.301 42.396 253.685 41.892 253.685 40.492V39.092H250.773V40.296C250.773 43.432 252.341 45.224 255.365 45.224C258.389 45.224 259.957 43.432 259.957 40.296C259.957 34.696 253.937 33.94 253.937 29.908C253.937 28.508 254.497 27.976 255.477 27.976C256.457 27.976 257.017 28.508 257.017 29.908V30.72H259.929V30.104C259.929 26.968 258.389 25.176 255.393 25.176C252.397 25.176 250.857 26.968 250.857 30.104ZM261.722 45H264.802V25.4H261.722V45ZM269.35 25.4H266.242L269.266 45H273.858L276.882 25.4H274.054L271.702 41.388L269.35 25.4ZM281.399 28.2H286.719V25.4H278.319V45H286.719V42.2H281.399V36.46H285.627V33.66H281.399V28.2ZM295.271 25.4H292.163L295.187 45H299.779L302.803 25.4H299.975L297.623 41.388L295.271 25.4ZM304.241 45H307.321V25.4H304.241V45ZM316.153 45H319.317V25.4H316.573V37.132L313.409 25.4H309.545V45H312.317V30.804L316.153 45ZM324.406 45H327.486V38.504L331.378 25.4H328.438L326.086 34.332L323.734 25.4H320.514L324.406 38.504V45ZM332.624 45H340.772V42.2H335.704V25.4H332.624V45ZM341.72 30.104C341.72 35.704 347.74 36.46 347.74 40.492C347.74 41.892 347.124 42.396 346.144 42.396C345.164 42.396 344.548 41.892 344.548 40.492V39.092H341.636V40.296C341.636 43.432 343.204 45.224 346.228 45.224C349.252 45.224 350.82 43.432 350.82 40.296C350.82 34.696 344.8 33.94 344.8 29.908C344.8 28.508 345.36 27.976 346.34 27.976C347.32 27.976 347.88 28.508 347.88 29.908V30.72H350.792V30.104C350.792 26.968 349.252 25.176 346.256 25.176C343.26 25.176 341.72 26.968 341.72 30.104ZM123.612 56.2H128.68V53.4H120.532V73H123.612V64.908H127.588V62.108H123.612V56.2ZM132.985 57.908C132.985 56.508 133.601 55.976 134.581 55.976C135.561 55.976 136.177 56.508 136.177 57.908V68.492C136.177 69.892 135.561 70.424 134.581 70.424C133.601 70.424 132.985 69.892 132.985 68.492V57.908ZM129.905 68.296C129.905 71.432 131.557 73.224 134.581 73.224C137.605 73.224 139.257 71.432 139.257 68.296V58.104C139.257 54.968 137.605 53.176 134.581 53.176C131.557 53.176 129.905 54.968 129.905 58.104V68.296ZM150.835 73C150.527 72.272 150.499 71.572 150.499 70.62V67.596C150.499 65.552 149.995 64.068 148.455 63.424C149.827 62.78 150.471 61.464 150.471 59.448V57.908C150.471 54.884 149.099 53.4 145.907 53.4H141.259V73H144.339V65.02H145.403C146.803 65.02 147.419 65.692 147.419 67.512V70.592C147.419 72.188 147.531 72.496 147.699 73H150.835ZM145.823 56.2C146.915 56.2 147.391 56.816 147.391 58.216V60.148C147.391 61.716 146.691 62.22 145.543 62.22H144.339V56.2H145.823ZM159.952 56.2H165.272V53.4H156.872V73H165.272V70.2H159.952V64.46H164.18V61.66H159.952V56.2ZM174.601 53.4L172.221 60.624L169.897 53.4H166.705L169.925 62.92L166.481 73H169.365L171.913 65.244L174.433 73H177.681L174.237 62.92L177.457 53.4H174.601ZM184.822 65.692V68.492C184.822 69.892 184.206 70.396 183.226 70.396C182.246 70.396 181.63 69.892 181.63 68.492V57.908C181.63 56.508 182.246 55.976 183.226 55.976C184.206 55.976 184.822 56.508 184.822 57.908V60.008H187.734V58.104C187.734 54.968 186.166 53.176 183.142 53.176C180.118 53.176 178.55 54.968 178.55 58.104V68.296C178.55 71.432 180.118 73.224 183.142 73.224C186.166 73.224 187.734 71.432 187.734 68.296V65.692H184.822ZM189.602 73H197.75V70.2H192.682V53.4H189.602V73ZM198.951 53.4V68.324C198.951 71.46 200.519 73.252 203.543 73.252C206.567 73.252 208.135 71.46 208.135 68.324V53.4H205.223V68.52C205.223 69.92 204.607 70.424 203.627 70.424C202.647 70.424 202.031 69.92 202.031 68.52V53.4H198.951ZM209.855 58.104C209.855 63.704 215.875 64.46 215.875 68.492C215.875 69.892 215.259 70.396 214.279 70.396C213.299 70.396 212.683 69.892 212.683 68.492V67.092H209.771V68.296C209.771 71.432 211.339 73.224 214.363 73.224C217.387 73.224 218.955 71.432 218.955 68.296C218.955 62.696 212.935 61.94 212.935 57.908C212.935 56.508 213.495 55.976 214.475 55.976C215.455 55.976 216.015 56.508 216.015 57.908V58.72H218.927V58.104C218.927 54.968 217.387 53.176 214.391 53.176C211.395 53.176 209.855 54.968 209.855 58.104ZM220.72 73H223.8V53.4H220.72V73ZM228.348 53.4H225.24L228.264 73H232.856L235.88 53.4H233.052L230.7 69.388L228.348 53.4ZM240.397 56.2H245.717V53.4H237.317V73H245.717V70.2H240.397V64.46H244.625V61.66H240.397V56.2ZM256.51 53.4H251.974V73H255.054V65.636H256.51C259.59 65.636 261.102 63.928 261.102 60.792V58.244C261.102 55.108 259.59 53.4 256.51 53.4ZM256.51 56.2C257.49 56.2 258.022 56.648 258.022 58.048V60.988C258.022 62.388 257.49 62.836 256.51 62.836H255.054V56.2H256.51ZM272.104 73C271.796 72.272 271.768 71.572 271.768 70.62V67.596C271.768 65.552 271.264 64.068 269.724 63.424C271.096 62.78 271.74 61.464 271.74 59.448V57.908C271.74 54.884 270.368 53.4 267.176 53.4H262.528V73H265.608V65.02H266.672C268.072 65.02 268.688 65.692 268.688 67.512V70.592C268.688 72.188 268.8 72.496 268.968 73H272.104ZM267.092 56.2C268.184 56.2 268.66 56.816 268.66 58.216V60.148C268.66 61.716 267.96 62.22 266.812 62.22H265.608V56.2H267.092ZM273.794 73H276.874V53.4H273.794V73ZM285.146 65.692V68.492C285.146 69.892 284.53 70.396 283.55 70.396C282.57 70.396 281.954 69.892 281.954 68.492V57.908C281.954 56.508 282.57 55.976 283.55 55.976C284.53 55.976 285.146 56.508 285.146 57.908V60.008H288.058V58.104C288.058 54.968 286.49 53.176 283.466 53.176C280.442 53.176 278.874 54.968 278.874 58.104V68.296C278.874 71.432 280.442 73.224 283.466 73.224C286.49 73.224 288.058 71.432 288.058 68.296V65.692H285.146ZM293.007 56.2H298.327V53.4H289.927V73H298.327V70.2H293.007V64.46H297.235V61.66H293.007V56.2ZM299.843 58.104C299.843 63.704 305.863 64.46 305.863 68.492C305.863 69.892 305.247 70.396 304.267 70.396C303.287 70.396 302.671 69.892 302.671 68.492V67.092H299.759V68.296C299.759 71.432 301.327 73.224 304.351 73.224C307.375 73.224 308.943 71.432 308.943 68.296C308.943 62.696 302.923 61.94 302.923 57.908C302.923 56.508 303.483 55.976 304.463 55.976C305.443 55.976 306.003 56.508 306.003 57.908V58.72H308.915V58.104C308.915 54.968 307.375 53.176 304.379 53.176C301.383 53.176 299.843 54.968 299.843 58.104Z" fill="white"/>
<path d="M526.55 23.216C526.55 28.872 520.446 29.824 520.446 35.592V38H529.35V35.2H523.526C523.498 35.06 523.498 34.92 523.498 34.78C523.498 31.56 529.63 29.264 529.63 23.104C529.63 19.968 528.062 18.176 525.038 18.176C522.014 18.176 520.446 19.968 520.446 23.104V25.008H523.358V22.908C523.358 21.508 523.974 20.976 524.954 20.976C525.934 20.976 526.55 21.452 526.55 23.216ZM530.82 34.444H536.756V38H539.78V34.444H541.236V31.644H539.78V18.4H536.42L530.82 31.644V34.444ZM533.648 31.644L536.756 24.28V31.644H533.648ZM543.825 21.368L543.013 24.168H544.273L545.617 21.06V18.4H542.649V21.368H543.825ZM547.913 21.368L547.101 24.168H548.361L549.705 21.06V18.4H546.737V21.368H547.913ZM562.23 24.308C562.23 25.876 561.53 26.38 560.382 26.38H559.178V29.18H560.214C561.614 29.18 562.23 29.852 562.23 31.672V33.212C562.23 34.948 561.614 35.424 560.634 35.424C559.654 35.424 559.038 34.892 559.038 33.492V31.672H556.126V33.296C556.126 36.432 557.694 38.224 560.718 38.224C563.742 38.224 565.31 36.432 565.31 33.296V31.756C565.31 29.768 564.694 28.312 563.154 27.64C564.638 27.024 565.31 25.708 565.31 23.608V23.104C565.31 19.968 563.742 18.176 560.718 18.176C557.694 18.176 556.126 19.968 556.126 23.104V24.168H559.038V22.908C559.038 21.508 559.654 20.976 560.634 20.976C561.614 20.976 562.23 21.452 562.23 23.216V24.308ZM567.199 33.296C567.199 36.432 568.851 38.224 571.875 38.224C574.899 38.224 576.551 36.432 576.551 33.296V29.712C576.551 26.828 575.403 25.232 573.135 25.232C571.763 25.232 570.811 25.848 570.279 26.968V23.384C570.279 21.508 570.895 20.976 571.987 20.976C572.967 20.976 573.583 21.508 573.583 22.908V23.608H576.495V23.104C576.495 19.968 574.927 18.176 571.903 18.176C568.711 18.176 567.199 19.968 567.199 23.272V33.296ZM571.875 28.032C572.855 28.032 573.471 28.564 573.471 29.964V33.492C573.471 34.892 572.855 35.396 571.875 35.396C570.895 35.396 570.279 34.892 570.279 33.492V29.964C570.279 28.564 570.895 28.032 571.875 28.032ZM579.673 21.368L578.861 24.168H580.121L581.465 21.06V18.4H578.497V21.368H579.673ZM583.761 21.368L582.949 24.168H584.209L585.553 21.06V18.4H582.585V21.368H583.761Z" fill="white"/>
<path d="M519.643 74.864V76.952C519.643 80.984 521.659 83.288 525.547 83.288C529.435 83.288 531.451 80.984 531.451 76.952V71.336C531.451 67.628 529.975 65.576 527.059 65.576C525.475 65.576 524.323 66.224 523.603 67.412L523.927 61.4H530.803V57.8H520.363L519.643 72.416H523.387V71.66C523.387 69.86 524.179 69.176 525.439 69.176C526.699 69.176 527.491 69.86 527.491 71.66V77.204C527.491 79.004 526.699 79.652 525.439 79.652C524.179 79.652 523.387 79.004 523.387 77.204V74.864H519.643ZM537.732 63.596C537.732 61.796 538.524 61.112 539.784 61.112C541.044 61.112 541.836 61.796 541.836 63.596V77.204C541.836 79.004 541.044 79.688 539.784 79.688C538.524 79.688 537.732 79.004 537.732 77.204V63.596ZM533.772 76.952C533.772 80.984 535.896 83.288 539.784 83.288C543.672 83.288 545.796 80.984 545.796 76.952V63.848C545.796 59.816 543.672 57.512 539.784 57.512C535.896 57.512 533.772 59.816 533.772 63.848V76.952ZM552.006 63.596C552.006 61.796 552.798 61.112 554.058 61.112C555.318 61.112 556.11 61.796 556.11 63.596V77.204C556.11 79.004 555.318 79.688 554.058 79.688C552.798 79.688 552.006 79.004 552.006 77.204V63.596ZM548.046 76.952C548.046 80.984 550.17 83.288 554.058 83.288C557.946 83.288 560.07 80.984 560.07 76.952V63.848C560.07 59.816 557.946 57.512 554.058 57.512C550.17 57.512 548.046 59.816 548.046 63.848V76.952ZM561.383 83H564.803L574.739 57.8H571.319L561.383 83ZM576.174 72.2H583.374V68.6H576.174V72.2Z" fill="white"/>
<path d="M702.887 78.428H710.519V83H714.407V78.428H716.279V74.828H714.407V57.8H710.087L702.887 74.828V78.428ZM706.523 74.828L710.519 65.36V74.828H706.523ZM721.732 63.596C721.732 61.796 722.524 61.112 723.784 61.112C725.044 61.112 725.836 61.796 725.836 63.596V77.204C725.836 79.004 725.044 79.688 723.784 79.688C722.524 79.688 721.732 79.004 721.732 77.204V63.596ZM717.772 76.952C717.772 80.984 719.896 83.288 723.784 83.288C727.672 83.288 729.796 80.984 729.796 76.952V63.848C729.796 59.816 727.672 57.512 723.784 57.512C719.896 57.512 717.772 59.816 717.772 63.848V76.952ZM736.006 63.596C736.006 61.796 736.798 61.112 738.058 61.112C739.318 61.112 740.11 61.796 740.11 63.596V77.204C740.11 79.004 739.318 79.688 738.058 79.688C736.798 79.688 736.006 79.004 736.006 77.204V63.596ZM732.046 76.952C732.046 80.984 734.17 83.288 738.058 83.288C741.946 83.288 744.07 80.984 744.07 76.952V63.848C744.07 59.816 741.946 57.512 738.058 57.512C734.17 57.512 732.046 59.816 732.046 63.848V76.952ZM745.383 83H748.803L758.739 57.8H755.319L745.383 83ZM760.174 72.2H767.374V68.6H760.174V72.2Z" fill="white"/>
<path d="M895.455 65.396C895.455 67.412 894.555 68.06 893.079 68.06H891.531V71.66H892.863C894.663 71.66 895.455 72.524 895.455 74.864V76.844C895.455 79.076 894.663 79.688 893.403 79.688C892.143 79.688 891.351 79.004 891.351 77.204V74.864H887.607V76.952C887.607 80.984 889.623 83.288 893.511 83.288C897.399 83.288 899.415 80.984 899.415 76.952V74.972C899.415 72.416 898.623 70.544 896.643 69.68C898.551 68.888 899.415 67.196 899.415 64.496V63.848C899.415 59.816 897.399 57.512 893.511 57.512C889.623 57.512 887.607 59.816 887.607 63.848V65.216H891.351V63.596C891.351 61.796 892.143 61.112 893.403 61.112C894.663 61.112 895.455 61.724 895.455 63.992V65.396ZM905.732 63.596C905.732 61.796 906.524 61.112 907.784 61.112C909.044 61.112 909.836 61.796 909.836 63.596V77.204C909.836 79.004 909.044 79.688 907.784 79.688C906.524 79.688 905.732 79.004 905.732 77.204V63.596ZM901.772 76.952C901.772 80.984 903.896 83.288 907.784 83.288C911.672 83.288 913.796 80.984 913.796 76.952V63.848C913.796 59.816 911.672 57.512 907.784 57.512C903.896 57.512 901.772 59.816 901.772 63.848V76.952ZM920.006 63.596C920.006 61.796 920.798 61.112 922.058 61.112C923.318 61.112 924.11 61.796 924.11 63.596V77.204C924.11 79.004 923.318 79.688 922.058 79.688C920.798 79.688 920.006 79.004 920.006 77.204V63.596ZM916.046 76.952C916.046 80.984 918.17 83.288 922.058 83.288C925.946 83.288 928.07 80.984 928.07 76.952V63.848C928.07 59.816 925.946 57.512 922.058 57.512C918.17 57.512 916.046 59.816 916.046 63.848V76.952ZM929.383 83H932.803L942.739 57.8H939.319L929.383 83ZM944.174 72.2H951.374V68.6H944.174V72.2Z" fill="white"/>
<path d="M709.55 23.216C709.55 28.872 703.446 29.824 703.446 35.592V38H712.35V35.2H706.526C706.498 35.06 706.498 34.92 706.498 34.78C706.498 31.56 712.63 29.264 712.63 23.104C712.63 19.968 711.062 18.176 708.038 18.176C705.014 18.176 703.446 19.968 703.446 23.104V25.008H706.358V22.908C706.358 21.508 706.974 20.976 707.954 20.976C708.934 20.976 709.55 21.452 709.55 23.216ZM717.376 22.908C717.376 21.508 717.992 20.976 718.972 20.976C719.952 20.976 720.568 21.508 720.568 22.908V33.492C720.568 34.892 719.952 35.424 718.972 35.424C717.992 35.424 717.376 34.892 717.376 33.492V22.908ZM714.296 33.296C714.296 36.432 715.948 38.224 718.972 38.224C721.996 38.224 723.648 36.432 723.648 33.296V23.104C723.648 19.968 721.996 18.176 718.972 18.176C715.948 18.176 714.296 19.968 714.296 23.104V33.296ZM726.825 21.368L726.013 24.168H727.273L728.617 21.06V18.4H725.649V21.368H726.825ZM730.913 21.368L730.101 24.168H731.361L732.705 21.06V18.4H729.737V21.368H730.913ZM745.23 24.308C745.23 25.876 744.53 26.38 743.382 26.38H742.178V29.18H743.214C744.614 29.18 745.23 29.852 745.23 31.672V33.212C745.23 34.948 744.614 35.424 743.634 35.424C742.654 35.424 742.038 34.892 742.038 33.492V31.672H739.126V33.296C739.126 36.432 740.694 38.224 743.718 38.224C746.742 38.224 748.31 36.432 748.31 33.296V31.756C748.31 29.768 747.694 28.312 746.154 27.64C747.638 27.024 748.31 25.708 748.31 23.608V23.104C748.31 19.968 746.742 18.176 743.718 18.176C740.694 18.176 739.126 19.968 739.126 23.104V24.168H742.038V22.908C742.038 21.508 742.654 20.976 743.634 20.976C744.614 20.976 745.23 21.452 745.23 23.216V24.308ZM753.223 22.908C753.223 21.508 753.839 20.976 754.819 20.976C755.799 20.976 756.415 21.508 756.415 22.908V33.492C756.415 34.892 755.799 35.424 754.819 35.424C753.839 35.424 753.223 34.892 753.223 33.492V22.908ZM750.143 33.296C750.143 36.432 751.795 38.224 754.819 38.224C757.843 38.224 759.495 36.432 759.495 33.296V23.104C759.495 19.968 757.843 18.176 754.819 18.176C751.795 18.176 750.143 19.968 750.143 23.104V33.296ZM762.673 21.368L761.861 24.168H763.121L764.465 21.06V18.4H761.497V21.368H762.673ZM766.761 21.368L765.949 24.168H767.209L768.553 21.06V18.4H765.585V21.368H766.761Z" fill="white"/>
<path d="M888.35 23.048H890.73V38H893.81V18.4H891.738C891.262 19.716 890.73 20.864 888.35 20.864V23.048ZM897.352 33.296C897.352 36.432 899.004 38.224 902.028 38.224C905.052 38.224 906.704 36.432 906.704 33.296V29.712C906.704 26.828 905.556 25.232 903.288 25.232C901.916 25.232 900.964 25.848 900.432 26.968V23.384C900.432 21.508 901.048 20.976 902.14 20.976C903.12 20.976 903.736 21.508 903.736 22.908V23.608H906.648V23.104C906.648 19.968 905.08 18.176 902.056 18.176C898.864 18.176 897.352 19.968 897.352 23.272V33.296ZM902.028 28.032C903.008 28.032 903.624 28.564 903.624 29.964V33.492C903.624 34.892 903.008 35.396 902.028 35.396C901.048 35.396 900.432 34.892 900.432 33.492V29.964C900.432 28.564 901.048 28.032 902.028 28.032ZM909.825 21.368L909.013 24.168H910.273L911.617 21.06V18.4H908.649V21.368H909.825ZM913.913 21.368L913.101 24.168H914.361L915.705 21.06V18.4H912.737V21.368H913.913ZM928.398 23.216C928.398 28.872 922.294 29.824 922.294 35.592V38H931.198V35.2H925.374C925.346 35.06 925.346 34.92 925.346 34.78C925.346 31.56 931.478 29.264 931.478 23.104C931.478 19.968 929.91 18.176 926.886 18.176C923.862 18.176 922.294 19.968 922.294 23.104V25.008H925.206V22.908C925.206 21.508 925.822 20.976 926.802 20.976C927.782 20.976 928.398 21.452 928.398 23.216ZM932.667 34.444H938.603V38H941.627V34.444H943.083V31.644H941.627V18.4H938.267L932.667 31.644V34.444ZM935.495 31.644L938.603 24.28V31.644H935.495ZM945.673 21.368L944.861 24.168H946.121L947.465 21.06V18.4H944.497V21.368H945.673ZM949.761 21.368L948.949 24.168H950.209L951.553 21.06V18.4H948.585V21.368H949.761Z" fill="white"/>
</svg>
