<svg width="72" height="46" viewBox="0 0 72 46" fill="none" xmlns="http://www.w3.org/2000/svg">
<path d="M35.9082 0.918945C45.697 0.918945 55.4455 0.918945 65.2342 0.918945C69.0454 0.918945 71.5728 3.44636 71.5728 7.21742C71.5728 17.7282 71.5728 28.1989 71.5728 38.7098C71.5728 42.5209 69.0053 45.0885 65.1941 45.0885C45.6969 45.0885 26.1597 45.0885 6.66248 45.0885C2.8513 45.0885 0.243652 42.5209 0.243652 38.7098C0.243652 28.1989 0.243652 17.7282 0.243652 7.21742C0.243652 3.44636 2.81118 0.918945 6.58224 0.918945C16.3709 0.918945 26.1195 0.918945 35.9082 0.918945ZM35.9885 4.08824C26.2399 4.08824 16.5314 4.08824 6.78283 4.08824C4.61648 4.08824 3.45306 5.21153 3.45306 7.37789C3.45306 17.7684 3.45306 28.1989 3.45306 38.5894C3.45306 40.7157 4.65659 41.8389 6.78283 41.8389C26.2399 41.8389 45.6568 41.8389 65.1139 41.8389C67.2401 41.8389 68.4035 40.7157 68.4035 38.5894C68.4035 28.1989 68.4035 17.7684 68.4035 7.37789C68.4035 5.21153 67.2401 4.08824 65.0337 4.08824C55.3252 4.08824 45.6568 4.08824 35.9885 4.08824Z" fill="#003459"/>
<path d="M35.9882 4.08789C45.6565 4.08789 55.365 4.08789 65.0334 4.08789C67.2398 4.08789 68.4032 5.21119 68.4032 7.37754C68.4032 17.768 68.4032 28.1986 68.4032 38.5891C68.4032 40.7153 67.2398 41.8386 65.1136 41.8386C45.6565 41.8386 26.2396 41.8386 6.78255 41.8386C4.65631 41.8386 3.45278 40.7153 3.45278 38.5891C3.45278 28.1986 3.45278 17.768 3.45278 7.37754C3.45278 5.17107 4.61619 4.08789 6.78255 4.08789C16.5311 4.08789 26.2396 4.08789 35.9882 4.08789ZM57.8924 20.135C57.8924 22.4618 57.9325 24.588 57.8924 26.7142C57.8523 27.8375 58.1732 28.2387 59.2564 28.2387C59.4971 28.2387 59.778 28.2387 60.0187 28.2387C60.9414 28.1986 61.3024 27.9178 61.3024 26.9951C61.3024 23.1839 61.3024 19.4128 61.3024 15.6017C61.3024 14.679 60.9815 14.358 60.0588 14.358C56.2476 14.358 52.4765 14.358 48.6654 14.358C47.7427 14.358 47.4217 14.679 47.3816 15.6017C47.3816 15.9226 47.3816 16.2435 47.3816 16.5645C47.3816 17.4471 47.7427 17.768 48.5851 17.768C50.0294 17.7279 51.4736 17.6878 52.9178 17.6878C53.7202 17.6878 54.4824 17.6878 55.4452 17.6878C55.0842 18.0488 54.8836 18.2895 54.6429 18.5302C52.1155 21.0577 49.548 23.6252 47.0205 26.1526C46.2583 26.9148 46.2583 27.3561 46.9804 28.1585C47.1008 28.2788 47.2211 28.3992 47.3415 28.5195C48.2642 29.4021 48.6252 29.4422 49.5078 28.5597C51.1928 26.8747 52.8777 25.1898 54.5627 23.5048C55.7261 22.3815 56.7691 21.2984 57.8924 20.135ZM25.3169 14.7191C21.1045 14.7191 16.9323 14.7191 12.72 14.7191C10.5135 14.7191 10.5135 14.7191 10.5135 16.9255C10.5135 18.1291 10.5135 18.1291 11.7571 18.1291C20.4225 18.1291 29.088 18.1291 37.7534 18.1291C40.5215 18.1291 40 18.45 40.1203 15.7621C40.1604 14.8795 39.7994 14.679 38.997 14.7191C34.4236 14.7592 29.8502 14.7191 25.3169 14.7191ZM22.3482 28.2788C19.1388 28.2788 15.9294 28.2788 12.72 28.2788C10.5135 28.2788 10.5135 28.2788 10.5536 30.4853C10.5536 31.6086 10.5536 31.6487 11.717 31.6487C18.6975 31.6487 25.678 31.6487 32.6584 31.6487C34.1027 31.6487 34.1027 31.6487 34.1027 30.1644C34.1027 29.8434 34.0625 29.5225 34.1027 29.2015C34.1829 28.4794 33.862 28.2387 33.1398 28.2387C29.5292 28.2788 25.9187 28.2788 22.3482 28.2788ZM19.0184 24.8287C21.1447 24.8287 23.2308 24.8287 25.357 24.8287C28.085 24.7886 27.6437 25.27 27.6838 22.3815C27.6838 21.6594 27.3629 21.4588 26.6809 21.4588C21.6261 21.4588 16.5311 21.499 11.4763 21.4588C10.7542 21.4588 10.3931 21.6594 10.4734 22.4217C10.5135 22.8228 10.4734 23.224 10.4734 23.6252C10.4734 24.7886 10.4734 24.7886 11.5967 24.7886C14.1241 24.8287 16.5712 24.8287 19.0184 24.8287Z" fill="white"/>
<path d="M57.8929 20.135C56.7696 21.2984 55.6865 22.3415 54.6434 23.4247C52.9585 25.1096 51.2735 26.7945 49.5886 28.4795C48.706 29.3621 48.3449 29.3621 47.4222 28.4394C47.3019 28.319 47.1815 28.1987 47.0612 28.0783C46.2989 27.3161 46.2989 26.8748 47.1013 26.0724C49.6287 23.545 52.1962 20.9775 54.7237 18.4501C54.9242 18.2495 55.1649 18.0088 55.526 17.6076C54.5632 17.6076 53.7608 17.6076 52.9986 17.6076C51.5544 17.6477 50.1101 17.6878 48.6659 17.6878C47.8234 17.6878 47.4624 17.3669 47.4624 16.4843C47.4624 16.1634 47.4624 15.8424 47.4624 15.5215C47.4624 14.5988 47.7833 14.2778 48.7461 14.2778C52.5573 14.2778 56.3284 14.2778 60.1395 14.2778C61.0622 14.2778 61.3832 14.5988 61.3832 15.5215C61.3832 19.3327 61.3832 23.1037 61.3832 26.9149C61.3832 27.8376 61.0221 28.1585 60.0994 28.1585C59.8587 28.1585 59.5779 28.1585 59.3372 28.1585C58.254 28.1585 57.9732 27.7574 57.9732 26.6341C57.9331 24.5881 57.8929 22.4618 57.8929 20.135Z" fill="#56CCF2"/>
<path d="M25.3173 14.7192C29.8506 14.7192 34.424 14.7192 38.9573 14.7192C39.7597 14.7192 40.1207 14.9198 40.0806 15.7623C40.0004 18.4502 40.4818 18.1292 37.7137 18.1292C29.0483 18.1292 20.3828 18.1292 11.7174 18.1292C10.5139 18.1292 10.5139 18.1292 10.4738 16.9257C10.4738 14.7192 10.4738 14.7192 12.6802 14.7192C16.9327 14.7192 21.105 14.7192 25.3173 14.7192Z" fill="#003459"/>
<path d="M22.3488 28.2788C25.9192 28.2788 29.5298 28.2788 33.1003 28.2788C33.8224 28.2788 34.1032 28.5195 34.0631 29.2416C34.023 29.5626 34.0631 29.8835 34.0631 30.2045C34.0631 31.6888 34.0631 31.6888 32.6189 31.6888C25.6384 31.6888 18.658 31.6888 11.6775 31.6888C10.5141 31.6888 10.5141 31.6888 10.5141 30.5254C10.5141 28.3189 10.5141 28.3189 12.6804 28.3189C15.8898 28.2788 19.1394 28.2788 22.3488 28.2788Z" fill="#003459"/>
<path d="M19.0189 24.8288C16.5717 24.8288 14.0844 24.8288 11.6373 24.8288C10.514 24.8288 10.514 24.8288 10.514 23.6654C10.514 23.2642 10.5541 22.863 10.514 22.4618C10.4337 21.6595 10.7948 21.499 11.5169 21.499C16.5717 21.5391 21.6667 21.5391 26.7215 21.499C27.4035 21.499 27.7244 21.6996 27.7244 22.4217C27.6442 25.3102 28.0855 24.8288 25.3976 24.8689C23.2714 24.8689 21.1452 24.8288 19.0189 24.8288Z" fill="#003459"/>
</svg>
