<svg width="121" height="37" viewBox="0 0 121 37" fill="none" xmlns="http://www.w3.org/2000/svg">
<path d="M118.578 3.02274C118.08 3.51615 117.582 4.00956 117.084 4.50297C116.695 4.85972 116.715 5.16357 117.031 5.49039C117.727 6.19725 118.367 6.97243 119.004 7.68684C119.583 8.40882 119.591 8.53035 118.871 9.2363C117.988 10.1472 117.046 11.0657 116.1 11.9235C115.765 12.2119 115.84 12.4474 116.094 12.721C116.797 13.5494 117.505 14.4386 118.266 15.2594C118.712 15.7534 118.673 16.0648 118.175 16.5582C117.23 17.416 116.342 18.2661 115.455 19.1163C115.066 19.473 115.027 19.7844 115.352 20.2328C115.997 21.0688 116.7 21.8971 117.4 22.6648C117.782 23.1056 117.803 23.4094 117.359 23.8345C116.359 24.7606 115.483 25.793 114.421 26.6659C113.973 27.0302 114.172 27.3721 114.426 27.6457C115.063 28.3601 115.7 29.0746 116.341 29.8497C116.537 30.1309 116.962 30.3211 116.698 30.7843C116.488 31.1791 116.087 31.3535 115.673 31.3457C114.262 31.4056 112.855 31.5262 111.502 31.5785C107.151 31.7732 102.8 31.9679 98.4453 32.1019C93.8606 32.3268 89.2758 32.5518 84.687 32.7159C81.1003 32.8732 77.4551 33.0379 73.8683 33.1952C69.3421 33.4125 64.8158 33.6299 60.2895 33.8473C56.7028 34.0045 53.0575 34.1693 49.4708 34.3265C44.9405 34.4832 40.3558 34.7081 35.8295 34.9255C32.3012 35.0751 28.7185 35.2931 25.1902 35.4428C20.4885 35.6829 15.7243 35.8697 11.0227 36.1098C8.14156 36.2371 5.20602 36.4327 2.32493 36.56C1.85315 36.5597 1.27649 36.7568 1.00245 36.1793C0.724395 35.5411 1.41399 35.2681 1.74874 34.9797C2.52315 34.2054 3.30157 33.4919 4.07999 32.7784C4.52365 32.3533 4.62052 32.0343 4.1791 31.6011C3.5422 30.8867 2.96376 30.1647 2.32686 29.4503C1.74842 28.7283 1.74039 28.6068 2.40187 27.9084C3.23073 27.0658 4.11404 26.1548 5.00539 25.3654C5.44905 24.9404 5.48744 24.629 5.1045 24.1882C4.40109 23.3598 3.69769 22.5314 2.99428 21.703C2.67382 21.3154 2.71623 21.0648 3.04697 20.7156C3.93028 19.8046 4.87207 18.8861 5.82188 18.0892C6.32402 17.6565 6.35839 17.2844 5.91697 16.8511C5.21758 16.0835 4.6271 15.1792 3.86924 14.4191C3.42783 13.9859 3.52067 13.6062 3.97237 13.3026C4.98065 12.4981 5.80148 11.534 6.74728 10.6762C7.13649 10.3195 7.17488 10.0081 6.91289 9.61294C6.19744 8.60224 5.38512 7.9105 4.74019 7.07455C4.54871 6.85414 4.18183 6.65642 4.3876 6.2008C4.6014 5.86672 4.95222 5.82137 5.30304 5.77602C8.36356 5.68682 11.4201 5.53686 14.4766 5.3869C19.8839 5.1169 25.3537 4.90012 30.7611 4.63012C34.2893 4.48046 37.7591 4.33836 41.2834 4.12792C46.2815 3.91084 51.2755 3.63298 56.2736 3.4159C58.3905 3.3261 60.5075 3.2363 62.566 3.15406C67.5056 2.94454 72.4451 2.73501 77.3847 2.52548C80.913 2.37582 84.4413 2.22616 87.9655 2.01573C93.7862 1.75359 99.6028 1.43069 105.423 1.16855C107.423 1.09387 109.361 0.965977 111.361 0.891297C113.946 0.741032 116.535 0.651536 119.061 0.508829C119.353 0.471036 119.591 0.501572 119.833 0.592877C120.379 0.828696 120.403 1.19331 119.96 1.61839C119.52 2.10424 119.018 2.53689 118.578 3.02274Z" fill="#F2994A"/>
</svg>
