<svg width="269" height="239" viewBox="0 0 269 239" fill="none" xmlns="http://www.w3.org/2000/svg">
<rect y="33.6846" width="268.674" height="205.315" fill="#E2C97A"/>
<path d="M58.9709 94H64.8109L67.9309 66H64.0909L61.8109 88.24L59.6109 66H55.3709L53.2509 88.08L50.8909 66H46.6109L49.7309 94H55.7709L57.3709 79.08L58.9709 94ZM74.39 72.44C74.39 70.44 75.27 69.68 76.67 69.68C78.07 69.68 78.95 70.44 78.95 72.44V87.56C78.95 89.56 78.07 90.32 76.67 90.32C75.27 90.32 74.39 89.56 74.39 87.56V72.44ZM69.99 87.28C69.99 91.76 72.35 94.32 76.67 94.32C80.99 94.32 83.35 91.76 83.35 87.28V72.72C83.35 68.24 80.99 65.68 76.67 65.68C72.35 65.68 69.99 68.24 69.99 72.72V87.28ZM100.089 94C99.6494 92.96 99.6094 91.96 99.6094 90.6V86.28C99.6094 83.36 98.8894 81.24 96.6894 80.32C98.6494 79.4 99.5694 77.52 99.5694 74.64V72.44C99.5694 68.12 97.6094 66 93.0494 66H86.4094V94H90.8094V82.6H92.3294C94.3294 82.6 95.2094 83.56 95.2094 86.16V90.56C95.2094 92.84 95.3694 93.28 95.6094 94H100.089ZM92.9294 70C94.4894 70 95.1694 70.88 95.1694 72.88V75.64C95.1694 77.88 94.1694 78.6 92.5294 78.6H90.8094V70H92.9294ZM112.743 94H117.263L111.143 78.48L117.263 66H112.863L107.103 78.2V66H102.703V94H107.103V85.4L108.463 82.84L112.743 94ZM133.146 94C132.706 92.96 132.666 91.96 132.666 90.6V86.28C132.666 83.36 131.946 81.24 129.746 80.32C131.706 79.4 132.626 77.52 132.626 74.64V72.44C132.626 68.12 130.666 66 126.106 66H119.466V94H123.866V82.6H125.386C127.386 82.6 128.266 83.56 128.266 86.16V90.56C128.266 92.84 128.426 93.28 128.666 94H133.146ZM125.986 70C127.546 70 128.226 70.88 128.226 72.88V75.64C128.226 77.88 127.226 78.6 125.586 78.6H123.866V70H125.986ZM135.759 94H140.159V66H135.759V94ZM150.177 82.4H152.177V87.56C152.177 89.56 151.297 90.28 149.897 90.28C148.497 90.28 147.617 89.56 147.617 87.56V72.44C147.617 70.44 148.497 69.68 149.897 69.68C151.297 69.68 152.177 70.44 152.177 72.44V75.44H156.337V72.72C156.337 68.24 154.097 65.68 149.777 65.68C145.457 65.68 143.217 68.24 143.217 72.72V87.28C143.217 91.76 145.457 94.32 149.777 94.32C154.097 94.32 156.337 91.76 156.337 87.28V78.4H150.177V82.4ZM163.763 82H168.763V94H173.243V66H168.763V78H163.763V66H159.363V94H163.763V82ZM175.353 70H179.953V94H184.353V70H188.953V66H175.353V70ZM197.502 94H201.902V66H197.502V94ZM214.719 94H219.239V66H215.319V82.76L210.799 66H205.279V94H209.239V73.72L214.719 94ZM71.4747 127H76.0747V151H80.4747V127H85.0747V123H71.4747V127ZM91.6125 139H96.6125V151H101.093V123H96.6125V135H91.6125V123H87.2125V151H91.6125V139ZM108.883 127H116.483V123H104.483V151H116.483V147H108.883V138.8H114.923V134.8H108.883V127ZM139.5 151C139.06 149.96 139.02 148.96 139.02 147.6V143.28C139.02 140.36 138.3 138.24 136.1 137.32C138.06 136.4 138.98 134.52 138.98 131.64V129.44C138.98 125.12 137.02 123 132.46 123H125.82V151H130.22V139.6H131.74C133.74 139.6 134.62 140.56 134.62 143.16V147.56C134.62 149.84 134.78 150.28 135.02 151H139.5ZM132.34 127C133.9 127 134.58 127.88 134.58 129.88V132.64C134.58 134.88 133.58 135.6 131.94 135.6H130.22V127H132.34ZM142.114 151H146.514V123H142.114V151ZM156.531 139.4H158.531V144.56C158.531 146.56 157.651 147.28 156.251 147.28C154.851 147.28 153.971 146.56 153.971 144.56V129.44C153.971 127.44 154.851 126.68 156.251 126.68C157.651 126.68 158.531 127.44 158.531 129.44V132.44H162.691V129.72C162.691 125.24 160.451 122.68 156.131 122.68C151.811 122.68 149.571 125.24 149.571 129.72V144.28C149.571 148.76 151.811 151.32 156.131 151.32C160.451 151.32 162.691 148.76 162.691 144.28V135.4H156.531V139.4ZM170.117 139H175.117V151H179.597V123H175.117V135H170.117V123H165.717V151H170.117V139ZM181.707 127H186.307V151H190.707V127H195.307V123H181.707V127ZM52.3867 184H59.9867V180H47.9867V208H59.9867V204H52.3867V195.8H58.4267V191.8H52.3867V184ZM72.3133 208H76.8333V180H72.9133V196.76L68.3933 180H62.8733V208H66.8333V187.72L72.3133 208ZM83.4636 180H79.0236L83.3436 208H89.9036L94.2236 180H90.1836L86.8236 202.84L83.4636 180ZM96.4773 208H100.877V180H96.4773V208ZM117.975 208C117.535 206.96 117.495 205.96 117.495 204.6V200.28C117.495 197.36 116.775 195.24 114.575 194.32C116.535 193.4 117.455 191.52 117.455 188.64V186.44C117.455 182.12 115.495 180 110.935 180H104.295V208H108.695V196.6H110.215C112.215 196.6 113.095 197.56 113.095 200.16V204.56C113.095 206.84 113.255 207.28 113.495 208H117.975ZM110.815 184C112.375 184 113.055 184.88 113.055 186.88V189.64C113.055 191.88 112.055 192.6 110.415 192.6H108.695V184H110.815ZM124.628 186.44C124.628 184.44 125.508 183.68 126.908 183.68C128.308 183.68 129.188 184.44 129.188 186.44V201.56C129.188 203.56 128.308 204.32 126.908 204.32C125.508 204.32 124.628 203.56 124.628 201.56V186.44ZM120.228 201.28C120.228 205.76 122.588 208.32 126.908 208.32C131.228 208.32 133.588 205.76 133.588 201.28V186.72C133.588 182.24 131.228 179.68 126.908 179.68C122.588 179.68 120.228 182.24 120.228 186.72V201.28ZM146.048 208H150.568V180H146.648V196.76L142.128 180H136.608V208H140.568V187.72L146.048 208ZM159.998 180H153.878V208H157.718V188.2L160.998 208H165.158L168.198 187.92V208H172.358V180H166.238L163.238 199.88L159.998 180ZM180.159 184H187.759V180H175.759V208H187.759V204H180.159V195.8H186.199V191.8H180.159V184ZM200.085 208H204.605V180H200.685V196.76L196.165 180H190.645V208H194.605V187.72L200.085 208ZM206.675 184H211.275V208H215.675V184H220.275V180H206.675V184Z" fill="#003459"/>
<path d="M191.805 14.715C191.297 15.3189 190.788 15.9228 190.28 16.5267C189.883 16.9633 189.903 17.3352 190.226 17.7352C190.936 18.6003 191.59 19.5491 192.24 20.4235C192.83 21.3071 192.838 21.4559 192.104 22.3199C191.202 23.4348 190.241 24.559 189.276 25.6088C188.934 25.9618 189.01 26.25 189.27 26.5849C189.987 27.5988 190.709 28.6871 191.487 29.6917C191.941 30.2963 191.902 30.6775 191.394 31.2814C190.429 32.3312 189.523 33.3717 188.618 34.4122C188.221 34.8489 188.181 35.23 188.512 35.7788C189.171 36.8019 189.888 37.8158 190.602 38.7553C190.993 39.2948 191.013 39.6667 190.561 40.187C189.54 41.3204 188.647 42.584 187.562 43.6523C187.105 44.0982 187.309 44.5167 187.568 44.8516C188.218 45.726 188.868 46.6004 189.522 47.5492C189.722 47.8933 190.156 48.126 189.886 48.6929C189.672 49.1762 189.262 49.3897 188.841 49.3801C187.4 49.4533 185.964 49.601 184.584 49.665C180.144 49.9033 175.704 50.1416 171.259 50.3056C166.581 50.5809 161.902 50.8562 157.219 51.0571C153.559 51.2496 149.839 51.4513 146.179 51.6437C141.56 51.9097 136.94 52.1758 132.321 52.4419C128.661 52.6343 124.941 52.836 121.281 53.0284C116.658 53.2201 111.979 53.4954 107.36 53.7615C103.759 53.9446 100.103 54.2114 96.5025 54.3946C91.7044 54.6884 86.8426 54.9171 82.0445 55.211C79.1044 55.3667 76.1086 55.6062 73.1685 55.762C72.687 55.7616 72.0985 56.0028 71.8189 55.2961C71.5351 54.5149 72.2389 54.1808 72.5805 53.8278C73.3708 52.8801 74.1651 52.0069 74.9595 51.1336C75.4123 50.6133 75.5111 50.2229 75.0607 49.6927C74.4107 48.8183 73.8204 47.9346 73.1704 47.0603C72.5802 46.1766 72.572 46.0279 73.247 45.1731C74.0929 44.1418 74.9943 43.0269 75.9039 42.0607C76.3567 41.5405 76.3958 41.1593 76.005 40.6198C75.2872 39.6059 74.5694 38.592 73.8516 37.5781C73.5245 37.1038 73.5678 36.797 73.9053 36.3696C74.8067 35.2547 75.7678 34.1305 76.7371 33.1551C77.2496 32.6256 77.2846 32.1701 76.8342 31.6398C76.1204 30.7003 75.5179 29.5936 74.7445 28.6633C74.294 28.133 74.3887 27.6683 74.8497 27.2968C75.8786 26.3121 76.7163 25.1321 77.6815 24.0823C78.0787 23.6456 78.1179 23.2645 77.8505 22.7809C77.1204 21.5438 76.2914 20.6972 75.6333 19.6741C75.4379 19.4043 75.0635 19.1623 75.2734 18.6047C75.4916 18.1958 75.8496 18.1403 76.2076 18.0848C79.3309 17.9756 82.4501 17.7921 85.5692 17.6085C91.0874 17.2781 96.6694 17.0127 102.188 16.6823C105.788 16.4991 109.329 16.3252 112.926 16.0676C118.026 15.8019 123.123 15.4619 128.223 15.1962C130.383 15.0863 132.544 14.9764 134.645 14.8757C139.685 14.6193 144.726 14.3628 149.767 14.1064C153.368 13.9232 156.968 13.74 160.565 13.4825C166.505 13.1616 172.441 12.7664 178.381 12.4456C180.422 12.3542 182.399 12.1977 184.44 12.1063C187.078 11.9223 189.719 11.8128 192.297 11.6381C192.596 11.5919 192.839 11.6293 193.085 11.741C193.643 12.0296 193.668 12.4759 193.215 12.9962C192.766 13.5908 192.254 14.1203 191.805 14.715Z" fill="#F2994A"/>
</svg>
