<svg width="269" height="239" viewBox="0 0 269 239" fill="none" xmlns="http://www.w3.org/2000/svg">
<rect y="33.6846" width="268.674" height="205.315" fill="#D2D2D2"/>
<path d="M41.1673 100.72C41.1673 108.72 49.7673 109.8 49.7673 115.56C49.7673 117.56 48.8873 118.28 47.4873 118.28C46.0873 118.28 45.2073 117.56 45.2073 115.56V113.56H41.0473V115.28C41.0473 119.76 43.2873 122.32 47.6073 122.32C51.9273 122.32 54.1673 119.76 54.1673 115.28C54.1673 107.28 45.5673 106.2 45.5673 100.44C45.5673 98.44 46.3673 97.68 47.7673 97.68C49.1673 97.68 49.9673 98.44 49.9673 100.44V101.6H54.1273V100.72C54.1273 96.24 51.9273 93.68 47.6473 93.68C43.3673 93.68 41.1673 96.24 41.1673 100.72ZM55.6083 98H60.2083V122H64.6083V98H69.2083V94H55.6083V98ZM79.5827 94H73.1427L68.6627 122H72.7027L73.4627 116.92H78.8627L79.6227 122H84.0627L79.5827 94ZM76.1427 98.96L78.2627 113.12H74.0227L76.1427 98.96ZM88.4786 122H92.8786V112.72L98.4386 94H94.2386L90.8786 106.76L87.5186 94H82.9186L88.4786 112.72V122ZM106.269 100.72C106.269 108.72 114.869 109.8 114.869 115.56C114.869 117.56 113.989 118.28 112.589 118.28C111.189 118.28 110.309 117.56 110.309 115.56V113.56H106.149V115.28C106.149 119.76 108.389 122.32 112.709 122.32C117.029 122.32 119.269 119.76 119.269 115.28C119.269 107.28 110.669 106.2 110.669 100.44C110.669 98.44 111.469 97.68 112.869 97.68C114.269 97.68 115.069 98.44 115.069 100.44V101.6H119.229V100.72C119.229 96.24 117.029 93.68 112.749 93.68C108.469 93.68 106.269 96.24 106.269 100.72ZM131.75 94H125.31L120.83 122H124.87L125.63 116.92H131.03L131.79 122H136.23L131.75 94ZM128.31 98.96L130.43 113.12H126.19L128.31 98.96ZM142.879 98H150.119V94H138.479V122H142.879V110.44H148.559V106.44H142.879V98ZM156.829 98H164.429V94H152.429V122H164.429V118H156.829V109.8H162.869V105.8H156.829V98ZM172.486 98H177.086V122H181.486V98H186.086V94H172.486V98ZM192.624 110H197.624V122H202.104V94H197.624V106H192.624V94H188.224V122H192.624V110ZM205.495 122H209.895V94H205.495V122ZM212.752 100.72C212.752 108.72 221.352 109.8 221.352 115.56C221.352 117.56 220.472 118.28 219.072 118.28C217.672 118.28 216.792 117.56 216.792 115.56V113.56H212.632V115.28C212.632 119.76 214.872 122.32 219.192 122.32C223.512 122.32 225.752 119.76 225.752 115.28C225.752 107.28 217.152 106.2 217.152 100.44C217.152 98.44 217.952 97.68 219.352 97.68C220.752 97.68 221.552 98.44 221.552 100.44V101.6H225.712V100.72C225.712 96.24 223.512 93.68 219.232 93.68C214.952 93.68 212.752 96.24 212.752 100.72ZM81.4198 151H75.2998V179H79.1398V159.2L82.4198 179H86.5798L89.6198 158.92V179H93.7798V151H87.6598L84.6598 170.88L81.4198 151ZM101.22 157.44C101.22 155.44 102.1 154.68 103.5 154.68C104.9 154.68 105.78 155.44 105.78 157.44V172.56C105.78 174.56 104.9 175.32 103.5 175.32C102.1 175.32 101.22 174.56 101.22 172.56V157.44ZM96.8205 172.28C96.8205 176.76 99.1805 179.32 103.5 179.32C107.82 179.32 110.18 176.76 110.18 172.28V157.72C110.18 153.24 107.82 150.68 103.5 150.68C99.1805 150.68 96.8205 153.24 96.8205 157.72V172.28ZM122.64 179H127.16V151H123.24V167.76L118.72 151H113.2V179H117.16V158.72L122.64 179ZM129.95 157.72C129.95 165.72 138.55 166.8 138.55 172.56C138.55 174.56 137.67 175.28 136.27 175.28C134.87 175.28 133.99 174.56 133.99 172.56V170.56H129.83V172.28C129.83 176.76 132.07 179.32 136.39 179.32C140.71 179.32 142.95 176.76 142.95 172.28C142.95 164.28 134.35 163.2 134.35 157.44C134.35 155.44 135.15 154.68 136.55 154.68C137.95 154.68 138.75 155.44 138.75 157.44V158.6H142.91V157.72C142.91 153.24 140.71 150.68 136.43 150.68C132.15 150.68 129.95 153.24 129.95 157.72ZM149.711 157.44C149.711 155.44 150.591 154.68 151.991 154.68C153.391 154.68 154.271 155.44 154.271 157.44V172.56C154.271 174.56 153.391 175.32 151.991 175.32C150.591 175.32 149.711 174.56 149.711 172.56V157.44ZM145.311 172.28C145.311 176.76 147.671 179.32 151.991 179.32C156.311 179.32 158.671 176.76 158.671 172.28V157.72C158.671 153.24 156.311 150.68 151.991 150.68C147.671 150.68 145.311 153.24 145.311 157.72V172.28ZM165.77 157.44C165.77 155.44 166.65 154.68 168.05 154.68C169.45 154.68 170.33 155.44 170.33 157.44V172.56C170.33 174.56 169.45 175.32 168.05 175.32C166.65 175.32 165.77 174.56 165.77 172.56V157.44ZM161.37 172.28C161.37 176.76 163.73 179.32 168.05 179.32C172.37 179.32 174.73 176.76 174.73 172.28V157.72C174.73 153.24 172.37 150.68 168.05 150.68C163.73 150.68 161.37 153.24 161.37 157.72V172.28ZM187.19 179H191.71V151H187.79V167.76L183.27 151H177.75V179H181.71V158.72L187.19 179Z" fill="#003459"/>
<path d="M191.805 14.715C191.297 15.3189 190.788 15.9228 190.28 16.5267C189.883 16.9633 189.903 17.3352 190.226 17.7352C190.936 18.6003 191.59 19.5491 192.24 20.4235C192.83 21.3071 192.838 21.4559 192.104 22.3199C191.202 23.4348 190.241 24.559 189.276 25.6088C188.934 25.9618 189.01 26.25 189.27 26.5849C189.987 27.5988 190.709 28.6871 191.487 29.6917C191.941 30.2963 191.902 30.6775 191.394 31.2814C190.429 32.3312 189.523 33.3717 188.618 34.4122C188.221 34.8489 188.181 35.23 188.512 35.7788C189.171 36.8019 189.888 37.8158 190.602 38.7553C190.993 39.2948 191.013 39.6667 190.561 40.187C189.54 41.3204 188.647 42.584 187.562 43.6523C187.105 44.0982 187.309 44.5167 187.568 44.8516C188.218 45.726 188.868 46.6004 189.522 47.5492C189.722 47.8933 190.156 48.126 189.886 48.6929C189.672 49.1762 189.262 49.3897 188.841 49.3801C187.4 49.4533 185.964 49.601 184.584 49.665C180.144 49.9033 175.704 50.1416 171.259 50.3056C166.581 50.5809 161.902 50.8562 157.219 51.0571C153.559 51.2496 149.839 51.4513 146.179 51.6437C141.56 51.9097 136.94 52.1758 132.321 52.4419C128.661 52.6343 124.941 52.836 121.281 53.0284C116.658 53.2201 111.979 53.4954 107.36 53.7615C103.759 53.9446 100.103 54.2114 96.5025 54.3946C91.7044 54.6884 86.8426 54.9171 82.0445 55.211C79.1044 55.3667 76.1086 55.6062 73.1685 55.762C72.687 55.7616 72.0985 56.0028 71.8189 55.2961C71.5351 54.5149 72.2389 54.1808 72.5805 53.8278C73.3708 52.8801 74.1651 52.0069 74.9595 51.1336C75.4123 50.6133 75.5111 50.2229 75.0607 49.6927C74.4107 48.8183 73.8204 47.9346 73.1704 47.0603C72.5802 46.1766 72.572 46.0279 73.247 45.1731C74.0929 44.1418 74.9943 43.0269 75.9039 42.0607C76.3567 41.5405 76.3958 41.1593 76.005 40.6198C75.2872 39.6059 74.5694 38.592 73.8516 37.5781C73.5245 37.1038 73.5678 36.797 73.9053 36.3696C74.8067 35.2547 75.7678 34.1305 76.7371 33.1551C77.2496 32.6256 77.2846 32.1701 76.8342 31.6398C76.1204 30.7003 75.5179 29.5936 74.7445 28.6633C74.294 28.133 74.3887 27.6683 74.8497 27.2968C75.8786 26.3121 76.7163 25.1321 77.6815 24.0823C78.0787 23.6456 78.1179 23.2645 77.8505 22.7809C77.1204 21.5438 76.2914 20.6972 75.6333 19.6741C75.4379 19.4043 75.0635 19.1623 75.2734 18.6047C75.4916 18.1958 75.8496 18.1403 76.2076 18.0848C79.3309 17.9756 82.4501 17.7921 85.5692 17.6085C91.0874 17.2781 96.6694 17.0127 102.188 16.6823C105.788 16.4991 109.329 16.3252 112.926 16.0676C118.026 15.8019 123.123 15.4619 128.223 15.1962C130.383 15.0863 132.544 14.9764 134.645 14.8757C139.685 14.6193 144.726 14.3628 149.767 14.1064C153.368 13.9232 156.968 13.74 160.565 13.4825C166.505 13.1616 172.441 12.7664 178.381 12.4456C180.422 12.3542 182.399 12.1977 184.44 12.1063C187.078 11.9223 189.719 11.8128 192.297 11.6381C192.596 11.5919 192.839 11.6293 193.085 11.741C193.643 12.0296 193.668 12.4759 193.215 12.9962C192.766 13.5908 192.254 14.1203 191.805 14.715Z" fill="#F2994A"/>
</svg>
